<svg class="railroad" viewBox="0 0 1069 2034" xmlns="http://www.w3.org/2000/svg" xmlns:xlink="http://www.w3.org/1999/xlink">
<style type="text/css">svg.railroad{background-color:hsl(30,20%,95%);background-size:15px 15px;background-image:linear-gradient(to right,rgba(30,30,30,.05) 1px,transparent 1px),linear-gradient(to bottom,rgba(30,30,30,.05) 1px,transparent 1px);}svg.railroad path{stroke-width:3px;stroke:black;fill:transparent;}svg.railroad .debug{stroke-width:1px;stroke:red;}svg.railroad text{font-size:14px;font-family:monospace;text-anchor:middle;}svg.railroad .nonterminal text{font-weight:bold;}svg.railroad text.comment{font-family:serif;font-style:italic;font-size:12px;}svg.railroad rect{stroke-width:3px;stroke:black;}svg.railroad g.labeledbox>rect{stroke-width:1px;stroke:grey;stroke-dasharray:5px;fill:rgba(90,90,150,.1);}svg.railroad .symbol>rect{fill:rgba(90,90,150,.1);}svg.railroad .regex>rect{fill:honeydew;}svg.railroad .string>rect{fill:cornsilk;}svg.railroad .character>rect{fill:lightcoral;}</style>
<g class="verticalgrid">
<g class="sequence">
<path d=" M 10 21 a 5 5 0 0 1 5 -5 a 5 5 0 0 1 5 5 a 5 5 0 0 1 -5 5 a 5 5 0 0 1 -5 -5 m 10 0 h 5"/>
<text class="comment" id="Root" x="54" y="26">
Root</text>
<g class="sequence">
<g class="repeat">
<path d=" M 83 21 h 12 m 154 0 h 12 m -12 0 a 12 12 0 0 1 12 12 v 7 a 12 12 0 0 1 -12 12 m -52 0 h -102 m 54 0 l 5 -5 m 0 10 l -5 -5 m -54 0 a 12 12 0 0 1 -12 -12 v -7 a 12 12 0 0 1 12 -12"/>
<text class="comment" x="223" y="57">
[0, ∞]</text>
<g class="sequence">
<g class="character">
<rect height="22" rx="10" ry="10" width="52" x="95" y="10"/>
<text x="121" y="26">
HIDE</text>
</g>
<a class="link" xlink:href="#Statement">
<g class="symbol">
<rect height="22" width="92" x="157" y="10"/>
<text x="203" y="26">
Statement</text>
</g>
</a>
<path d=" M 147 21 h 10"/>
</g>
</g>
<g class="character">
<rect height="22" rx="10" ry="10" width="52" x="271" y="10"/>
<text x="297" y="26">
HIDE</text>
</g>
<g class="character">
<rect height="22" rx="10" ry="10" width="116" x="333" y="10"/>
<text x="391" y="26">
END_OF_INPUT</text>
</g>
<path d=" M 261 21 h 10"/>
<path d=" M 323 21 h 10"/>
</g>
<path d=" M 459 21 h 5 a 5 5 0 0 1 5 -5 a 5 5 0 0 1 5 5 a 5 5 0 0 1 -5 5 a 5 5 0 0 1 -5 -5"/>
<path d=" M 25 21 h 10"/>
<path d=" M 73 21 h 10"/>
<path d=" M 449 21 h 10"/>
</g>
<g class="sequence">
<path d=" M 10 85 a 5 5 0 0 1 5 -5 a 5 5 0 0 1 5 5 a 5 5 0 0 1 -5 5 a 5 5 0 0 1 -5 -5 m 10 0 h 5"/>
<text class="comment" id="Statement" x="71" y="90">
Statement</text>
<g class="choice">
<path d=" M 118 85 h 24 m 156 0 h 24"/>
<a class="link" xlink:href="#PropertyStatement">
<g class="symbol">
<rect height="22" width="156" x="142" y="74"/>
<text x="220" y="90">
PropertyStatement</text>
</g>
</a>
<path d=" M 118 85 a 12 12 0 0 1 12 12 v 9 m 180 0 v -9 a 12 12 0 0 1 12 -12"/>
<path d=" M 130 106 v 33 m 180 0 v -33"/>
<path d=" M 130 106 v 0 a 12 12 0 0 0 12 12 m 132 0 h 24 a 12 12 0 0 0 12 -12 v 0"/>
<a class="link" xlink:href="#TraitStatement">
<g class="symbol">
<rect height="22" width="132" x="142" y="107"/>
<text x="208" y="123">
TraitStatement</text>
</g>
</a>
<path d=" M 130 139 v 0 a 12 12 0 0 0 12 12 m 132 0 h 24 a 12 12 0 0 0 12 -12 v 0"/>
<a class="link" xlink:href="#EventStatement">
<g class="symbol">
<rect height="22" width="132" x="142" y="140"/>
<text x="208" y="156">
EventStatement</text>
</g>
</a>
</g>
<path d=" M 332 85 h 5 a 5 5 0 0 1 5 -5 a 5 5 0 0 1 5 5 a 5 5 0 0 1 -5 5 a 5 5 0 0 1 -5 -5"/>
<path d=" M 25 85 h 10"/>
<path d=" M 108 85 h 10"/>
<path d=" M 322 85 h 10"/>
</g>
<g class="sequence">
<path d=" M 10 185 a 5 5 0 0 1 5 -5 a 5 5 0 0 1 5 5 a 5 5 0 0 1 -5 5 a 5 5 0 0 1 -5 -5 m 10 0 h 5"/>
<text class="comment" id="PropertyStatement" x="99" y="190">
PropertyStatement</text>
<g class="sequence">
<a class="link" xlink:href="#KW_ATTRIBUTE">
<g class="symbol">
<rect height="22" width="116" x="174" y="174"/>
<text x="232" y="190">
KW_ATTRIBUTE</text>
</g>
</a>
<g class="character">
<rect height="22" rx="10" ry="10" width="52" x="300" y="174"/>
<text x="326" y="190">
HIDE</text>
</g>
<a class="link" xlink:href="#Identifier">
<g class="symbol">
<rect height="22" width="100" x="362" y="174"/>
<text x="412" y="190">
Identifier</text>
</g>
</a>
<g class="character">
<rect height="22" rx="10" ry="10" width="52" x="472" y="174"/>
<text x="498" y="190">
HIDE</text>
</g>
<a class="link" xlink:href="#PropertyBlock">
<g class="symbol">
<rect height="22" width="124" x="534" y="174"/>
<text x="596" y="190">
PropertyBlock</text>
</g>
</a>
<path d=" M 290 185 h 10"/>
<path d=" M 352 185 h 10"/>
<path d=" M 462 185 h 10"/>
<path d=" M 524 185 h 10"/>
</g>
<path d=" M 668 185 h 5 a 5 5 0 0 1 5 -5 a 5 5 0 0 1 5 5 a 5 5 0 0 1 -5 5 a 5 5 0 0 1 -5 -5"/>
<path d=" M 25 185 h 10"/>
<path d=" M 164 185 h 10"/>
<path d=" M 658 185 h 10"/>
</g>
<g class="sequence">
<path d=" M 10 219 a 5 5 0 0 1 5 -5 a 5 5 0 0 1 5 5 a 5 5 0 0 1 -5 5 a 5 5 0 0 1 -5 -5 m 10 0 h 5"/>
<text class="comment" id="PropertyBlock" x="85" y="224">
PropertyBlock</text>
<g class="sequence">
<g class="string">
<rect height="22" rx="10" ry="10" width="28" x="146" y="208"/>
<text x="160" y="224">
{</text>
</g>
<g class="character">
<rect height="22" rx="10" ry="10" width="52" x="184" y="208"/>
<text x="210" y="224">
HIDE</text>
</g>
<g class="string">
<rect height="22" rx="10" ry="10" width="28" x="246" y="208"/>
<text x="260" y="224">
}</text>
</g>
<path d=" M 174 219 h 10"/>
<path d=" M 236 219 h 10"/>
</g>
<path d=" M 284 219 h 5 a 5 5 0 0 1 5 -5 a 5 5 0 0 1 5 5 a 5 5 0 0 1 -5 5 a 5 5 0 0 1 -5 -5"/>
<path d=" M 25 219 h 10"/>
<path d=" M 136 219 h 10"/>
<path d=" M 274 219 h 10"/>
</g>
<g class="sequence">
<path d=" M 10 253 a 5 5 0 0 1 5 -5 a 5 5 0 0 1 5 5 a 5 5 0 0 1 -5 5 a 5 5 0 0 1 -5 -5 m 10 0 h 5"/>
<text class="comment" id="TraitStatement" x="89" y="258">
TraitStatement</text>
<g class="sequence">
<a class="link" xlink:href="#KW_TRAIT">
<g class="symbol">
<rect height="22" width="84" x="153" y="242"/>
<text x="195" y="258">
KW_TRAIT</text>
</g>
</a>
<g class="character">
<rect height="22" rx="10" ry="10" width="52" x="247" y="242"/>
<text x="273" y="258">
HIDE</text>
</g>
<a class="link" xlink:href="#Identifier">
<g class="symbol">
<rect height="22" width="100" x="309" y="242"/>
<text x="359" y="258">
Identifier</text>
</g>
</a>
<g class="character">
<rect height="22" rx="10" ry="10" width="52" x="419" y="242"/>
<text x="445" y="258">
HIDE</text>
</g>
<a class="link" xlink:href="#TraitBlock">
<g class="symbol">
<rect height="22" width="100" x="481" y="242"/>
<text x="531" y="258">
TraitBlock</text>
</g>
</a>
<path d=" M 237 253 h 10"/>
<path d=" M 299 253 h 10"/>
<path d=" M 409 253 h 10"/>
<path d=" M 471 253 h 10"/>
</g>
<path d=" M 591 253 h 5 a 5 5 0 0 1 5 -5 a 5 5 0 0 1 5 5 a 5 5 0 0 1 -5 5 a 5 5 0 0 1 -5 -5"/>
<path d=" M 25 253 h 10"/>
<path d=" M 143 253 h 10"/>
<path d=" M 581 253 h 10"/>
</g>
<g class="sequence">
<path d=" M 10 287 a 5 5 0 0 1 5 -5 a 5 5 0 0 1 5 5 a 5 5 0 0 1 -5 5 a 5 5 0 0 1 -5 -5 m 10 0 h 5"/>
<text class="comment" id="TraitBlock" x="75" y="292">
TraitBlock</text>
<g class="sequence">
<g class="string">
<rect height="22" rx="10" ry="10" width="28" x="125" y="276"/>
<text x="139" y="292">
{</text>
</g>
<g class="character">
<rect height="22" rx="10" ry="10" width="52" x="163" y="276"/>
<text x="189" y="292">
HIDE</text>
</g>
<g class="repeat">
<path d=" M 225 287 h 12 m 186 0 h 12 m -12 0 a 12 12 0 0 1 12 12 v 7 a 12 12 0 0 1 -12 12 m -52 0 h -134 m 70 0 l 5 -5 m 0 10 l -5 -5 m -70 0 a 12 12 0 0 1 -12 -12 v -7 a 12 12 0 0 1 12 -12"/>
<text class="comment" x="397" y="323">
[0, ∞]</text>
<g class="sequence">
<g class="character">
<rect height="22" rx="10" ry="10" width="52" x="237" y="276"/>
<text x="263" y="292">
HIDE</text>
</g>
<a class="link" xlink:href="#TraitProperty">
<g class="symbol">
<rect height="22" width="124" x="299" y="276"/>
<text x="361" y="292">
TraitProperty</text>
</g>
</a>
<path d=" M 289 287 h 10"/>
</g>
</g>
<g class="character">
<rect height="22" rx="10" ry="10" width="52" x="445" y="276"/>
<text x="471" y="292">
HIDE</text>
</g>
<g class="string">
<rect height="22" rx="10" ry="10" width="28" x="507" y="276"/>
<text x="521" y="292">
}</text>
</g>
<path d=" M 153 287 h 10"/>
<path d=" M 215 287 h 10"/>
<path d=" M 435 287 h 10"/>
<path d=" M 497 287 h 10"/>
</g>
<path d=" M 545 287 h 5 a 5 5 0 0 1 5 -5 a 5 5 0 0 1 5 5 a 5 5 0 0 1 -5 5 a 5 5 0 0 1 -5 -5"/>
<path d=" M 25 287 h 10"/>
<path d=" M 115 287 h 10"/>
<path d=" M 535 287 h 10"/>
</g>
<g class="sequence">
<path d=" M 10 351 a 5 5 0 0 1 5 -5 a 5 5 0 0 1 5 5 a 5 5 0 0 1 -5 5 a 5 5 0 0 1 -5 -5 m 10 0 h 5"/>
<text class="comment" id="TraitProperty" x="85" y="356">
TraitProperty</text>
<g class="sequence">
<a class="link" xlink:href="#Identifier">
<g class="symbol">
<rect height="22" width="100" x="146" y="340"/>
<text x="196" y="356">
Identifier</text>
</g>
</a>
<g class="character">
<rect height="22" rx="10" ry="10" width="52" x="256" y="340"/>
<text x="282" y="356">
HIDE</text>
</g>
<g class="string">
<rect height="22" rx="10" ry="10" width="28" x="318" y="340"/>
<text x="332" y="356">
:</text>
</g>
<g class="character">
<rect height="22" rx="10" ry="10" width="52" x="356" y="340"/>
<text x="382" y="356">
HIDE</text>
</g>
<a class="link" xlink:href="#Atomic">
<g class="symbol">
<rect height="22" width="68" x="418" y="340"/>
<text x="452" y="356">
Atomic</text>
</g>
</a>
<path d=" M 246 351 h 10"/>
<path d=" M 308 351 h 10"/>
<path d=" M 346 351 h 10"/>
<path d=" M 408 351 h 10"/>
</g>
<path d=" M 496 351 h 5 a 5 5 0 0 1 5 -5 a 5 5 0 0 1 5 5 a 5 5 0 0 1 -5 5 a 5 5 0 0 1 -5 -5"/>
<path d=" M 25 351 h 10"/>
<path d=" M 136 351 h 10"/>
<path d=" M 486 351 h 10"/>
</g>
<g class="sequence">
<path d=" M 10 385 a 5 5 0 0 1 5 -5 a 5 5 0 0 1 5 5 a 5 5 0 0 1 -5 5 a 5 5 0 0 1 -5 -5 m 10 0 h 5"/>
<text class="comment" id="EventStatement" x="89" y="390">
EventStatement</text>
<g class="sequence">
<a class="link" xlink:href="#KW_EVENT">
<g class="symbol">
<rect height="22" width="84" x="153" y="374"/>
<text x="195" y="390">
KW_EVENT</text>
</g>
</a>
<g class="character">
<rect height="22" rx="10" ry="10" width="52" x="247" y="374"/>
<text x="273" y="390">
HIDE</text>
</g>
<a class="link" xlink:href="#Identifier">
<g class="symbol">
<rect height="22" width="100" x="309" y="374"/>
<text x="359" y="390">
Identifier</text>
</g>
</a>
<g class="character">
<rect height="22" rx="10" ry="10" width="52" x="419" y="374"/>
<text x="445" y="390">
HIDE</text>
</g>
<a class="link" xlink:href="#EventBlock">
<g class="symbol">
<rect height="22" width="100" x="481" y="374"/>
<text x="531" y="390">
EventBlock</text>
</g>
</a>
<path d=" M 237 385 h 10"/>
<path d=" M 299 385 h 10"/>
<path d=" M 409 385 h 10"/>
<path d=" M 471 385 h 10"/>
</g>
<path d=" M 591 385 h 5 a 5 5 0 0 1 5 -5 a 5 5 0 0 1 5 5 a 5 5 0 0 1 -5 5 a 5 5 0 0 1 -5 -5"/>
<path d=" M 25 385 h 10"/>
<path d=" M 143 385 h 10"/>
<path d=" M 581 385 h 10"/>
</g>
<g class="sequence">
<path d=" M 10 419 a 5 5 0 0 1 5 -5 a 5 5 0 0 1 5 5 a 5 5 0 0 1 -5 5 a 5 5 0 0 1 -5 -5 m 10 0 h 5"/>
<text class="comment" id="EventBlock" x="75" y="424">
EventBlock</text>
<g class="sequence">
<g class="string">
<rect height="22" rx="10" ry="10" width="28" x="125" y="408"/>
<text x="139" y="424">
{</text>
</g>
<g class="character">
<rect height="22" rx="10" ry="10" width="52" x="163" y="408"/>
<text x="189" y="424">
HIDE</text>
</g>
<g class="repeat">
<path d=" M 225 419 h 12 m 186 0 h 12 m -12 0 a 12 12 0 0 1 12 12 v 7 a 12 12 0 0 1 -12 12 m -52 0 h -134 m 70 0 l 5 -5 m 0 10 l -5 -5 m -70 0 a 12 12 0 0 1 -12 -12 v -7 a 12 12 0 0 1 12 -12"/>
<text class="comment" x="397" y="455">
[0, ∞]</text>
<g class="sequence">
<g class="character">
<rect height="22" rx="10" ry="10" width="52" x="237" y="408"/>
<text x="263" y="424">
HIDE</text>
</g>
<a class="link" xlink:href="#EventProperty">
<g class="symbol">
<rect height="22" width="124" x="299" y="408"/>
<text x="361" y="424">
EventProperty</text>
</g>
</a>
<path d=" M 289 419 h 10"/>
</g>
</g>
<g class="character">
<rect height="22" rx="10" ry="10" width="52" x="445" y="408"/>
<text x="471" y="424">
HIDE</text>
</g>
<g class="string">
<rect height="22" rx="10" ry="10" width="28" x="507" y="408"/>
<text x="521" y="424">
}</text>
</g>
<path d=" M 153 419 h 10"/>
<path d=" M 215 419 h 10"/>
<path d=" M 435 419 h 10"/>
<path d=" M 497 419 h 10"/>
</g>
<path d=" M 545 419 h 5 a 5 5 0 0 1 5 -5 a 5 5 0 0 1 5 5 a 5 5 0 0 1 -5 5 a 5 5 0 0 1 -5 -5"/>
<path d=" M 25 419 h 10"/>
<path d=" M 115 419 h 10"/>
<path d=" M 535 419 h 10"/>
</g>
<g class="sequence">
<path d=" M 10 496 a 5 5 0 0 1 5 -5 a 5 5 0 0 1 5 5 a 5 5 0 0 1 -5 5 a 5 5 0 0 1 -5 -5 m 10 0 h 5"/>
<text class="comment" id="EventProperty" x="85" y="501">
EventProperty</text>
<g class="sequence">
<a class="link" xlink:href="#Identifier">
<g class="symbol">
<rect height="22" width="100" x="146" y="485"/>
<text x="196" y="501">
Identifier</text>
</g>
</a>
<g class="character">
<rect height="22" rx="10" ry="10" width="52" x="256" y="485"/>
<text x="282" y="501">
HIDE</text>
</g>
<g class="choice">
<path d=" M 318 496 h 24 m 28 0 h 24"/>
<g class="string">
<rect height="22" rx="10" ry="10" width="28" x="342" y="485"/>
<text x="356" y="501">
:</text>
</g>
<path d=" M 318 496 a 12 12 0 0 1 12 12 v 9 m 52 0 v -9 a 12 12 0 0 1 12 -12"/>
<path d=" M 330 517 v 0 a 12 12 0 0 0 12 12 m 28 0 h 0 a 12 12 0 0 0 12 -12 v 0"/>
<g class="string">
<rect height="22" rx="10" ry="10" width="28" x="342" y="518"/>
<text x="356" y="534">
[</text>
</g>
</g>
<g class="character">
<rect height="22" rx="10" ry="10" width="52" x="404" y="485"/>
<text x="430" y="501">
HIDE</text>
</g>
<a class="link" xlink:href="#Expression">
<g class="symbol">
<rect height="22" width="100" x="466" y="485"/>
<text x="516" y="501">
Expression</text>
</g>
</a>
<g class="character">
<rect height="22" rx="10" ry="10" width="52" x="576" y="485"/>
<text x="602" y="501">
HIDE</text>
</g>
<g class="optional">
<path d=" M 638 496 h 24 m -24 0 a 12 12 0 0 0 12 -12 v 0 a 12 12 0 0 1 12 -12 h 348 m -171 0 l -5 -5 m 0 10 l 5 -5 m 171 0 a 12 12 0 0 1 12 12 v 0 a 12 12 0 0 0 12 12 h -24"/>
<g class="choice">
<path d=" M 662 496 h 24 m 28 0 h 296 m -145 0 l -5 -5 m 0 10 l 5 -5 m 145 0"/>
<g class="string">
<rect height="22" rx="10" ry="10" width="28" x="686" y="485"/>
<text x="700" y="501">
]</text>
</g>
<path d=" M 662 496 a 12 12 0 0 1 12 12 v 9 m 324 0 v -9 a 12 12 0 0 1 12 -12"/>
<path d=" M 674 517 v 33 m 324 0 v -33"/>
<path d=" M 674 517 v 0 a 12 12 0 0 0 12 12 m 300 0 h 0 a 12 12 0 0 0 12 -12 v 0"/>
<g class="sequence">
<g class="string">
<rect height="22" rx="10" ry="10" width="28" x="686" y="518"/>
<text x="700" y="534">
{</text>
</g>
<g class="character">
<rect height="22" rx="10" ry="10" width="52" x="724" y="518"/>
<text x="750" y="534">
HIDE</text>
</g>
<a class="link" xlink:href="#EventBlock">
<g class="symbol">
<rect height="22" width="100" x="786" y="518"/>
<text x="836" y="534">
EventBlock</text>
</g>
</a>
<g class="character">
<rect height="22" rx="10" ry="10" width="52" x="896" y="518"/>
<text x="922" y="534">
HIDE</text>
</g>
<g class="string">
<rect height="22" rx="10" ry="10" width="28" x="958" y="518"/>
<text x="972" y="534">
}</text>
</g>
<path d=" M 714 529 h 10"/>
<path d=" M 776 529 h 10"/>
<path d=" M 886 529 h 10"/>
<path d=" M 948 529 h 10"/>
</g>
<path d=" M 674 550 v 0 a 12 12 0 0 0 12 12 m 100 0 h 200 m -97 0 l -5 -5 m 0 10 l 5 -5 m 97 0 a 12 12 0 0 0 12 -12 v 0"/>
<a class="link" xlink:href="#EventBlock">
<g class="symbol">
<rect height="22" width="100" x="686" y="551"/>
<text x="736" y="567">
EventBlock</text>
</g>
</a>
</g>
</g>
<path d=" M 246 496 h 10"/>
<path d=" M 308 496 h 10"/>
<path d=" M 394 496 h 10"/>
<path d=" M 456 496 h 10"/>
<path d=" M 566 496 h 10"/>
<path d=" M 628 496 h 10"/>
</g>
<path d=" M 1044 496 h 5 a 5 5 0 0 1 5 -5 a 5 5 0 0 1 5 5 a 5 5 0 0 1 -5 5 a 5 5 0 0 1 -5 -5"/>
<path d=" M 25 496 h 10"/>
<path d=" M 136 496 h 10"/>
<path d=" M 1034 496 h 10"/>
</g>
<g class="sequence">
<path d=" M 10 596 a 5 5 0 0 1 5 -5 a 5 5 0 0 1 5 5 a 5 5 0 0 1 -5 5 a 5 5 0 0 1 -5 -5 m 10 0 h 5"/>
<text class="comment" id="Expression" x="75" y="601">
Expression</text>
<a class="link" xlink:href="#Atomic">
<g class="symbol">
<rect height="22" width="68" x="125" y="585"/>
<text x="159" y="601">
Atomic</text>
</g>
</a>
<path d=" M 203 596 h 5 a 5 5 0 0 1 5 -5 a 5 5 0 0 1 5 5 a 5 5 0 0 1 -5 5 a 5 5 0 0 1 -5 -5"/>
<path d=" M 25 596 h 10"/>
<path d=" M 115 596 h 10"/>
<path d=" M 193 596 h 10"/>
</g>
<g class="sequence">
<path d=" M 10 630 a 5 5 0 0 1 5 -5 a 5 5 0 0 1 5 5 a 5 5 0 0 1 -5 5 a 5 5 0 0 1 -5 -5 m 10 0 h 5"/>
<text class="comment" id="Atomic" x="61" y="635">
Atomic</text>
<g class="choice">
<path d=" M 97 630 h 24 m 100 0 h 40"/>
<a class="link" xlink:href="#Identifier">
<g class="symbol">
<rect height="22" width="100" x="121" y="619"/>
<text x="171" y="635">
Identifier</text>
</g>
</a>
<path d=" M 97 630 a 12 12 0 0 1 12 12 v 9 m 140 0 v -9 a 12 12 0 0 1 12 -12"/>
<path d=" M 109 651 v 33 m 140 0 v -33"/>
<path d=" M 109 684 v 33 m 140 0 v -33"/>
<path d=" M 109 717 v 33 m 140 0 v -33"/>
<path d=" M 109 750 v 33 m 140 0 v -33"/>
<path d=" M 109 783 v 33 m 140 0 v -33"/>
<path d=" M 109 651 v 0 a 12 12 0 0 0 12 12 m 76 0 h 40 a 12 12 0 0 0 12 -12 v 0"/>
<a class="link" xlink:href="#Integer">
<g class="symbol">
<rect height="22" width="76" x="121" y="652"/>
<text x="159" y="668">
Integer</text>
</g>
</a>
<path d=" M 109 684 v 0 a 12 12 0 0 0 12 12 m 92 0 h 24 a 12 12 0 0 0 12 -12 v 0"/>
<a class="link" xlink:href="#StringRaw">
<g class="symbol">
<rect height="22" width="92" x="121" y="685"/>
<text x="167" y="701">
StringRaw</text>
</g>
</a>
<path d=" M 109 717 v 0 a 12 12 0 0 0 12 12 m 116 0 h 0 a 12 12 0 0 0 12 -12 v 0"/>
<a class="link" xlink:href="#StringNormal">
<g class="symbol">
<rect height="22" width="116" x="121" y="718"/>
<text x="179" y="734">
StringNormal</text>
</g>
</a>
<path d=" M 109 750 v 0 a 12 12 0 0 0 12 12 m 76 0 h 40 a 12 12 0 0 0 12 -12 v 0"/>
<a class="link" xlink:href="#Boolean">
<g class="symbol">
<rect height="22" width="76" x="121" y="751"/>
<text x="159" y="767">
Boolean</text>
</g>
</a>
<path d=" M 109 783 v 0 a 12 12 0 0 0 12 12 m 100 0 h 16 a 12 12 0 0 0 12 -12 v 0"/>
<a class="link" xlink:href="#RangeExact">
<g class="symbol">
<rect height="22" width="100" x="121" y="784"/>
<text x="171" y="800">
RangeExact</text>
</g>
</a>
<path d=" M 109 816 v 0 a 12 12 0 0 0 12 12 m 60 0 h 56 m -25 0 l -5 -5 m 0 10 l 5 -5 m 25 0 a 12 12 0 0 0 12 -12 v 0"/>
<a class="link" xlink:href="#Range">
<g class="symbol">
<rect height="22" width="60" x="121" y="817"/>
<text x="151" y="833">
Range</text>
</g>
</a>
</g>
<path d=" M 271 630 h 5 a 5 5 0 0 1 5 -5 a 5 5 0 0 1 5 5 a 5 5 0 0 1 -5 5 a 5 5 0 0 1 -5 -5"/>
<path d=" M 25 630 h 10"/>
<path d=" M 87 630 h 10"/>
<path d=" M 261 630 h 10"/>
</g>
<g class="sequence">
<path d=" M 10 862 a 5 5 0 0 1 5 -5 a 5 5 0 0 1 5 5 a 5 5 0 0 1 -5 5 a 5 5 0 0 1 -5 -5 m 10 0 h 5"/>
<text class="comment" id="NegationExpression" x="103" y="867">
NegationExpression</text>
<g class="sequence">
<g class="string">
<rect height="22" rx="10" ry="10" width="28" x="181" y="851"/>
<text x="195" y="867">
!</text>
</g>
<g class="character">
<rect height="22" rx="10" ry="10" width="52" x="219" y="851"/>
<text x="245" y="867">
HIDE</text>
</g>
<a class="link" xlink:href="#Expression">
<g class="symbol">
<rect height="22" width="100" x="281" y="851"/>
<text x="331" y="867">
Expression</text>
</g>
</a>
<path d=" M 209 862 h 10"/>
<path d=" M 271 862 h 10"/>
</g>
<path d=" M 391 862 h 5 a 5 5 0 0 1 5 -5 a 5 5 0 0 1 5 5 a 5 5 0 0 1 -5 5 a 5 5 0 0 1 -5 -5"/>
<path d=" M 25 862 h 10"/>
<path d=" M 171 862 h 10"/>
<path d=" M 381 862 h 10"/>
</g>
<g class="sequence">
<path d=" M 10 896 a 5 5 0 0 1 5 -5 a 5 5 0 0 1 5 5 a 5 5 0 0 1 -5 5 a 5 5 0 0 1 -5 -5 m 10 0 h 5"/>
<text class="comment" id="ComparisonExpression" x="113" y="901">
ComparisonExpression</text>
<g class="sequence">
<a class="link" xlink:href="#Identifier">
<g class="symbol">
<rect height="22" width="100" x="202" y="885"/>
<text x="252" y="901">
Identifier</text>
</g>
</a>
<g class="character">
<rect height="22" rx="10" ry="10" width="52" x="312" y="885"/>
<text x="338" y="901">
HIDE</text>
</g>
<a class="link" xlink:href="#ComparisonOperator">
<g class="symbol">
<rect height="22" width="164" x="374" y="885"/>
<text x="456" y="901">
ComparisonOperator</text>
</g>
</a>
<g class="character">
<rect height="22" rx="10" ry="10" width="52" x="548" y="885"/>
<text x="574" y="901">
HIDE</text>
</g>
<a class="link" xlink:href="#Expression">
<g class="symbol">
<rect height="22" width="100" x="610" y="885"/>
<text x="660" y="901">
Expression</text>
</g>
</a>
<path d=" M 302 896 h 10"/>
<path d=" M 364 896 h 10"/>
<path d=" M 538 896 h 10"/>
<path d=" M 600 896 h 10"/>
</g>
<path d=" M 720 896 h 5 a 5 5 0 0 1 5 -5 a 5 5 0 0 1 5 5 a 5 5 0 0 1 -5 5 a 5 5 0 0 1 -5 -5"/>
<path d=" M 25 896 h 10"/>
<path d=" M 192 896 h 10"/>
<path d=" M 710 896 h 10"/>
</g>
<g class="sequence">
<path d=" M 10 930 a 5 5 0 0 1 5 -5 a 5 5 0 0 1 5 5 a 5 5 0 0 1 -5 5 a 5 5 0 0 1 -5 -5 m 10 0 h 5"/>
<text class="comment" id="LogicalExpression" x="99" y="935">
LogicalExpression</text>
<g class="sequence">
<a class="link" xlink:href="#Expression">
<g class="symbol">
<rect height="22" width="100" x="174" y="919"/>
<text x="224" y="935">
Expression</text>
</g>
</a>
<g class="character">
<rect height="22" rx="10" ry="10" width="52" x="284" y="919"/>
<text x="310" y="935">
HIDE</text>
</g>
<a class="link" xlink:href="#LogicalOperator">
<g class="symbol">
<rect height="22" width="140" x="346" y="919"/>
<text x="416" y="935">
LogicalOperator</text>
</g>
</a>
<g class="character">
<rect height="22" rx="10" ry="10" width="52" x="496" y="919"/>
<text x="522" y="935">
HIDE</text>
</g>
<a class="link" xlink:href="#Expression">
<g class="symbol">
<rect height="22" width="100" x="558" y="919"/>
<text x="608" y="935">
Expression</text>
</g>
</a>
<path d=" M 274 930 h 10"/>
<path d=" M 336 930 h 10"/>
<path d=" M 486 930 h 10"/>
<path d=" M 548 930 h 10"/>
</g>
<path d=" M 668 930 h 5 a 5 5 0 0 1 5 -5 a 5 5 0 0 1 5 5 a 5 5 0 0 1 -5 5 a 5 5 0 0 1 -5 -5"/>
<path d=" M 25 930 h 10"/>
<path d=" M 164 930 h 10"/>
<path d=" M 658 930 h 10"/>
</g>
<g class="sequence">
<path d=" M 10 964 a 5 5 0 0 1 5 -5 a 5 5 0 0 1 5 5 a 5 5 0 0 1 -5 5 a 5 5 0 0 1 -5 -5 m 10 0 h 5"/>
<text class="comment" id="ComparisonOperator" x="103" y="969">
ComparisonOperator</text>
<g class="choice">
<path d=" M 181 964 h 24 m 28 0 h 32"/>
<g class="string">
<rect height="22" rx="10" ry="10" width="28" x="205" y="953"/>
<text x="219" y="969">
&gt;</text>
</g>
<path d=" M 181 964 a 12 12 0 0 1 12 12 v 9 m 60 0 v -9 a 12 12 0 0 1 12 -12"/>
<path d=" M 193 985 v 33 m 60 0 v -33"/>
<path d=" M 193 1018 v 33 m 60 0 v -33"/>
<path d=" M 193 1051 v 33 m 60 0 v -33"/>
<path d=" M 193 1084 v 33 m 60 0 v -33"/>
<path d=" M 193 985 v 0 a 12 12 0 0 0 12 12 m 36 0 h 0 a 12 12 0 0 0 12 -12 v 0"/>
<g class="string">
<rect height="22" rx="10" ry="10" width="36" x="205" y="986"/>
<text x="223" y="1002">
&gt;=</text>
</g>
<path d=" M 193 1018 v 0 a 12 12 0 0 0 12 12 m 28 0 h 8 a 12 12 0 0 0 12 -12 v 0"/>
<g class="string">
<rect height="22" rx="10" ry="10" width="28" x="205" y="1019"/>
<text x="219" y="1035">
&lt;</text>
</g>
<path d=" M 193 1051 v 0 a 12 12 0 0 0 12 12 m 36 0 h 0 a 12 12 0 0 0 12 -12 v 0"/>
<g class="string">
<rect height="22" rx="10" ry="10" width="36" x="205" y="1052"/>
<text x="223" y="1068">
&lt;=</text>
</g>
<path d=" M 193 1084 v 0 a 12 12 0 0 0 12 12 m 36 0 h 0 a 12 12 0 0 0 12 -12 v 0"/>
<g class="string">
<rect height="22" rx="10" ry="10" width="36" x="205" y="1085"/>
<text x="223" y="1101">
==</text>
</g>
<path d=" M 193 1117 v 0 a 12 12 0 0 0 12 12 m 36 0 h 0 a 12 12 0 0 0 12 -12 v 0"/>
<g class="string">
<rect height="22" rx="10" ry="10" width="36" x="205" y="1118"/>
<text x="223" y="1134">
!=</text>
</g>
</g>
<path d=" M 275 964 h 5 a 5 5 0 0 1 5 -5 a 5 5 0 0 1 5 5 a 5 5 0 0 1 -5 5 a 5 5 0 0 1 -5 -5"/>
<path d=" M 25 964 h 10"/>
<path d=" M 171 964 h 10"/>
<path d=" M 265 964 h 10"/>
</g>
<g class="sequence">
<path d=" M 10 1163 a 5 5 0 0 1 5 -5 a 5 5 0 0 1 5 5 a 5 5 0 0 1 -5 5 a 5 5 0 0 1 -5 -5 m 10 0 h 5"/>
<text class="comment" id="LogicalOperator" x="92" y="1168">
LogicalOperator</text>
<g class="choice">
<path d=" M 160 1163 h 24 m 36 0 h 24"/>
<g class="string">
<rect height="22" rx="10" ry="10" width="36" x="184" y="1152"/>
<text x="202" y="1168">
&amp;&amp;</text>
</g>
<path d=" M 160 1163 a 12 12 0 0 1 12 12 v 9 m 60 0 v -9 a 12 12 0 0 1 12 -12"/>
<path d=" M 172 1184 v 0 a 12 12 0 0 0 12 12 m 36 0 h 0 a 12 12 0 0 0 12 -12 v 0"/>
<g class="string">
<rect height="22" rx="10" ry="10" width="36" x="184" y="1185"/>
<text x="202" y="1201">
||</text>
</g>
</g>
<path d=" M 254 1163 h 5 a 5 5 0 0 1 5 -5 a 5 5 0 0 1 5 5 a 5 5 0 0 1 -5 5 a 5 5 0 0 1 -5 -5"/>
<path d=" M 25 1163 h 10"/>
<path d=" M 150 1163 h 10"/>
<path d=" M 244 1163 h 10"/>
</g>
<g class="sequence">
<path d=" M 10 1230 a 5 5 0 0 1 5 -5 a 5 5 0 0 1 5 5 a 5 5 0 0 1 -5 5 a 5 5 0 0 1 -5 -5 m 10 0 h 5"/>
<text class="comment" id="StringRaw" x="71" y="1235">
StringRaw</text>
<g class="sequence">
<g class="string">
<rect height="22" rx="10" ry="10" width="28" x="118" y="1219"/>
<text x="132" y="1235">
&#x27;</text>
</g>
<a class="link" xlink:href="#StringRawText">
<g class="symbol">
<rect height="22" width="124" x="156" y="1219"/>
<text x="218" y="1235">
StringRawText</text>
</g>
</a>
<g class="string">
<rect height="22" rx="10" ry="10" width="28" x="290" y="1219"/>
<text x="304" y="1235">
&#x27;</text>
</g>
<path d=" M 146 1230 h 10"/>
<path d=" M 280 1230 h 10"/>
</g>
<path d=" M 328 1230 h 5 a 5 5 0 0 1 5 -5 a 5 5 0 0 1 5 5 a 5 5 0 0 1 -5 5 a 5 5 0 0 1 -5 -5"/>
<path d=" M 25 1230 h 10"/>
<path d=" M 108 1230 h 10"/>
<path d=" M 318 1230 h 10"/>
</g>
<g class="sequence">
<path d=" M 10 1264 a 5 5 0 0 1 5 -5 a 5 5 0 0 1 5 5 a 5 5 0 0 1 -5 5 a 5 5 0 0 1 -5 -5 m 10 0 h 5"/>
<text class="comment" id="StringRawText" x="85" y="1269">
StringRawText</text>
<g class="string">
<rect height="22" rx="10" ry="10" width="60" x="146" y="1253"/>
<text x="176" y="1269">
[^&#x27;]*</text>
</g>
<path d=" M 216 1264 h 5 a 5 5 0 0 1 5 -5 a 5 5 0 0 1 5 5 a 5 5 0 0 1 -5 5 a 5 5 0 0 1 -5 -5"/>
<path d=" M 25 1264 h 10"/>
<path d=" M 136 1264 h 10"/>
<path d=" M 206 1264 h 10"/>
</g>
<g class="sequence">
<path d=" M 10 1298 a 5 5 0 0 1 5 -5 a 5 5 0 0 1 5 5 a 5 5 0 0 1 -5 5 a 5 5 0 0 1 -5 -5 m 10 0 h 5"/>
<text class="comment" id="StringNormal" x="82" y="1303">
StringNormal</text>
<g class="sequence">
<g class="string">
<rect height="22" rx="10" ry="10" width="28" x="139" y="1287"/>
<text x="153" y="1303">
&quot;</text>
</g>
<g class="repeat">
<path d=" M 177 1298 h 12 m 100 0 h 12 m -12 0 a 12 12 0 0 1 12 12 v 7 a 12 12 0 0 1 -12 12 m -52 0 h -48 a 12 12 0 0 1 -12 -12 v -7 a 12 12 0 0 1 12 -12"/>
<text class="comment" x="263" y="1334">
[0, ∞]</text>
<a class="link" xlink:href="#StringItem">
<g class="symbol">
<rect height="22" width="100" x="189" y="1287"/>
<text x="239" y="1303">
StringItem</text>
</g>
</a>
</g>
<g class="string">
<rect height="22" rx="10" ry="10" width="28" x="311" y="1287"/>
<text x="325" y="1303">
&quot;</text>
</g>
<path d=" M 167 1298 h 10"/>
<path d=" M 301 1298 h 10"/>
</g>
<path d=" M 349 1298 h 5 a 5 5 0 0 1 5 -5 a 5 5 0 0 1 5 5 a 5 5 0 0 1 -5 5 a 5 5 0 0 1 -5 -5"/>
<path d=" M 25 1298 h 10"/>
<path d=" M 129 1298 h 10"/>
<path d=" M 339 1298 h 10"/>
</g>
<g class="sequence">
<path d=" M 10 1362 a 5 5 0 0 1 5 -5 a 5 5 0 0 1 5 5 a 5 5 0 0 1 -5 5 a 5 5 0 0 1 -5 -5 m 10 0 h 5"/>
<text class="comment" id="StringItem" x="75" y="1367">
StringItem</text>
<g class="choice">
<path d=" M 125 1362 h 24 m 132 0 h 40"/>
<a class="link" xlink:href="#EscapedUnicode">
<g class="symbol">
<rect height="22" width="132" x="149" y="1351"/>
<text x="215" y="1367">
EscapedUnicode</text>
</g>
</a>
<path d=" M 125 1362 a 12 12 0 0 1 12 12 v 9 m 172 0 v -9 a 12 12 0 0 1 12 -12"/>
<path d=" M 137 1383 v 33 m 172 0 v -33"/>
<path d=" M 137 1383 v 0 a 12 12 0 0 0 12 12 m 148 0 h 0 a 12 12 0 0 0 12 -12 v 0"/>
<a class="link" xlink:href="#EscapedCharacter">
<g class="symbol">
<rect height="22" width="148" x="149" y="1384"/>
<text x="223" y="1400">
EscapedCharacter</text>
</g>
</a>
<path d=" M 137 1416 v 0 a 12 12 0 0 0 12 12 m 76 0 h 72 m -33 0 l -5 -5 m 0 10 l 5 -5 m 33 0 a 12 12 0 0 0 12 -12 v 0"/>
<a class="link" xlink:href="#TextAny">
<g class="symbol">
<rect height="22" width="76" x="149" y="1417"/>
<text x="187" y="1433">
TextAny</text>
</g>
</a>
</g>
<path d=" M 331 1362 h 5 a 5 5 0 0 1 5 -5 a 5 5 0 0 1 5 5 a 5 5 0 0 1 -5 5 a 5 5 0 0 1 -5 -5"/>
<path d=" M 25 1362 h 10"/>
<path d=" M 115 1362 h 10"/>
<path d=" M 321 1362 h 10"/>
</g>
<g class="sequence">
<path d=" M 10 1462 a 5 5 0 0 1 5 -5 a 5 5 0 0 1 5 5 a 5 5 0 0 1 -5 5 a 5 5 0 0 1 -5 -5 m 10 0 h 5"/>
<text class="comment" id="EscapedUnicode" x="89" y="1467">
EscapedUnicode</text>
<g class="sequence">
<g class="string">
<rect height="22" rx="10" ry="10" width="44" x="153" y="1451"/>
<text x="175" y="1467">
\u{</text>
</g>
<a class="link" xlink:href="#HEX">
<g class="symbol">
<rect height="22" width="44" x="207" y="1451"/>
<text x="229" y="1467">
HEX</text>
</g>
</a>
<g class="string">
<rect height="22" rx="10" ry="10" width="28" x="261" y="1451"/>
<text x="275" y="1467">
}</text>
</g>
<path d=" M 197 1462 h 10"/>
<path d=" M 251 1462 h 10"/>
</g>
<path d=" M 299 1462 h 5 a 5 5 0 0 1 5 -5 a 5 5 0 0 1 5 5 a 5 5 0 0 1 -5 5 a 5 5 0 0 1 -5 -5"/>
<path d=" M 25 1462 h 10"/>
<path d=" M 143 1462 h 10"/>
<path d=" M 289 1462 h 10"/>
</g>
<g class="sequence">
<path d=" M 10 1496 a 5 5 0 0 1 5 -5 a 5 5 0 0 1 5 5 a 5 5 0 0 1 -5 5 a 5 5 0 0 1 -5 -5 m 10 0 h 5"/>
<text class="comment" id="EscapedCharacter" x="96" y="1501">
EscapedCharacter</text>
<g class="string">
<rect height="22" rx="10" ry="10" width="44" x="167" y="1485"/>
<text x="189" y="1501">
\\.</text>
</g>
<path d=" M 221 1496 h 5 a 5 5 0 0 1 5 -5 a 5 5 0 0 1 5 5 a 5 5 0 0 1 -5 5 a 5 5 0 0 1 -5 -5"/>
<path d=" M 25 1496 h 10"/>
<path d=" M 157 1496 h 10"/>
<path d=" M 211 1496 h 10"/>
</g>
<g class="sequence">
<path d=" M 10 1530 a 5 5 0 0 1 5 -5 a 5 5 0 0 1 5 5 a 5 5 0 0 1 -5 5 a 5 5 0 0 1 -5 -5 m 10 0 h 5"/>
<text class="comment" id="HEX" x="50" y="1535">
HEX</text>
<g class="repeat">
<path d=" M 76 1530 h 12 m 170 0 h 12 m -12 0 a 12 12 0 0 1 12 12 v 7 a 12 12 0 0 1 -12 12 m -52 0 h -118 m 62 0 l 5 -5 m 0 10 l -5 -5 m -62 0 a 12 12 0 0 1 -12 -12 v -7 a 12 12 0 0 1 12 -12"/>
<text class="comment" x="232" y="1566">
[1, 6]</text>
<g class="sequence">
<g class="character">
<rect height="22" rx="10" ry="10" width="52" x="88" y="1519"/>
<text x="114" y="1535">
HIDE</text>
</g>
<g class="string">
<rect height="22" rx="10" ry="10" width="108" x="150" y="1519"/>
<text x="204" y="1535">
[0-9a-fA-F]</text>
</g>
<path d=" M 140 1530 h 10"/>
</g>
</g>
<path d=" M 280 1530 h 5 a 5 5 0 0 1 5 -5 a 5 5 0 0 1 5 5 a 5 5 0 0 1 -5 5 a 5 5 0 0 1 -5 -5"/>
<path d=" M 25 1530 h 10"/>
<path d=" M 66 1530 h 10"/>
<path d=" M 270 1530 h 10"/>
</g>
<g class="sequence">
<path d=" M 10 1594 a 5 5 0 0 1 5 -5 a 5 5 0 0 1 5 5 a 5 5 0 0 1 -5 5 a 5 5 0 0 1 -5 -5 m 10 0 h 5"/>
<text class="comment" id="TextAny" x="64" y="1599">
TextAny</text>
<g class="string">
<rect height="22" rx="10" ry="10" width="76" x="104" y="1583"/>
<text x="142" y="1599">
[^&quot;\\]+</text>
</g>
<path d=" M 190 1594 h 5 a 5 5 0 0 1 5 -5 a 5 5 0 0 1 5 5 a 5 5 0 0 1 -5 5 a 5 5 0 0 1 -5 -5"/>
<path d=" M 25 1594 h 10"/>
<path d=" M 94 1594 h 10"/>
<path d=" M 180 1594 h 10"/>
</g>
<g class="sequence">
<path d=" M 10 1628 a 5 5 0 0 1 5 -5 a 5 5 0 0 1 5 5 a 5 5 0 0 1 -5 5 a 5 5 0 0 1 -5 -5 m 10 0 h 5"/>
<text class="comment" id="Identifier" x="75" y="1633">
Identifier</text>
<g class="string">
<rect height="22" rx="10" ry="10" width="292" x="125" y="1617"/>
<text x="271" y="1633">
[_\p{XID_start}]\p{XID_continue}*</text>
</g>
<path d=" M 427 1628 h 5 a 5 5 0 0 1 5 -5 a 5 5 0 0 1 5 5 a 5 5 0 0 1 -5 5 a 5 5 0 0 1 -5 -5"/>
<path d=" M 25 1628 h 10"/>
<path d=" M 115 1628 h 10"/>
<path d=" M 417 1628 h 10"/>
</g>
<g class="sequence">
<path d=" M 10 1662 a 5 5 0 0 1 5 -5 a 5 5 0 0 1 5 5 a 5 5 0 0 1 -5 5 a 5 5 0 0 1 -5 -5 m 10 0 h 5"/>
<text class="comment" id="Integer" x="64" y="1667">
Integer</text>
<g class="string">
<rect height="22" rx="10" ry="10" width="124" x="104" y="1651"/>
<text x="166" y="1667">
0|[1-9][0-9]*</text>
</g>
<path d=" M 238 1662 h 5 a 5 5 0 0 1 5 -5 a 5 5 0 0 1 5 5 a 5 5 0 0 1 -5 5 a 5 5 0 0 1 -5 -5"/>
<path d=" M 25 1662 h 10"/>
<path d=" M 94 1662 h 10"/>
<path d=" M 228 1662 h 10"/>
</g>
<g class="sequence">
<path d=" M 10 1696 a 5 5 0 0 1 5 -5 a 5 5 0 0 1 5 5 a 5 5 0 0 1 -5 5 a 5 5 0 0 1 -5 -5 m 10 0 h 5"/>
<text class="comment" id="RangeExact" x="75" y="1701">
RangeExact</text>
<g class="sequence">
<g class="string">
<rect height="22" rx="10" ry="10" width="28" x="125" y="1685"/>
<text x="139" y="1701">
{</text>
</g>
<g class="character">
<rect height="22" rx="10" ry="10" width="52" x="163" y="1685"/>
<text x="189" y="1701">
HIDE</text>
</g>
<a class="link" xlink:href="#Integer">
<g class="symbol">
<rect height="22" width="76" x="225" y="1685"/>
<text x="263" y="1701">
Integer</text>
</g>
</a>
<g class="character">
<rect height="22" rx="10" ry="10" width="52" x="311" y="1685"/>
<text x="337" y="1701">
HIDE</text>
</g>
<g class="string">
<rect height="22" rx="10" ry="10" width="28" x="373" y="1685"/>
<text x="387" y="1701">
}</text>
</g>
<path d=" M 153 1696 h 10"/>
<path d=" M 215 1696 h 10"/>
<path d=" M 301 1696 h 10"/>
<path d=" M 363 1696 h 10"/>
</g>
<path d=" M 411 1696 h 5 a 5 5 0 0 1 5 -5 a 5 5 0 0 1 5 5 a 5 5 0 0 1 -5 5 a 5 5 0 0 1 -5 -5"/>
<path d=" M 25 1696 h 10"/>
<path d=" M 115 1696 h 10"/>
<path d=" M 401 1696 h 10"/>
</g>
<g class="sequence">
<path d=" M 10 1743 a 5 5 0 0 1 5 -5 a 5 5 0 0 1 5 5 a 5 5 0 0 1 -5 5 a 5 5 0 0 1 -5 -5 m 10 0 h 5"/>
<text class="comment" id="Range" x="57" y="1748">
Range</text>
<g class="sequence">
<g class="string">
<rect height="22" rx="10" ry="10" width="28" x="90" y="1732"/>
<text x="104" y="1748">
{</text>
</g>
<g class="character">
<rect height="22" rx="10" ry="10" width="52" x="128" y="1732"/>
<text x="154" y="1748">
HIDE</text>
</g>
<g class="optional">
<path d=" M 190 1743 h 24 m -24 0 a 12 12 0 0 0 12 -12 v 0 a 12 12 0 0 1 12 -12 h 76 m -35 0 l -5 -5 m 0 10 l 5 -5 m 35 0 a 12 12 0 0 1 12 12 v 0 a 12 12 0 0 0 12 12 h -24"/>
<a class="link" xlink:href="#Integer">
<g class="symbol">
<rect height="22" width="76" x="214" y="1732"/>
<text x="252" y="1748">
Integer</text>
</g>
</a>
</g>
<g class="character">
<rect height="22" rx="10" ry="10" width="52" x="324" y="1732"/>
<text x="350" y="1748">
HIDE</text>
</g>
<g class="string">
<rect height="22" rx="10" ry="10" width="28" x="386" y="1732"/>
<text x="400" y="1748">
,</text>
</g>
<g class="character">
<rect height="22" rx="10" ry="10" width="52" x="424" y="1732"/>
<text x="450" y="1748">
HIDE</text>
</g>
<g class="optional">
<path d=" M 486 1743 h 24 m -24 0 a 12 12 0 0 0 12 -12 v 0 a 12 12 0 0 1 12 -12 h 76 m -35 0 l -5 -5 m 0 10 l 5 -5 m 35 0 a 12 12 0 0 1 12 12 v 0 a 12 12 0 0 0 12 12 h -24"/>
<a class="link" xlink:href="#Integer">
<g class="symbol">
<rect height="22" width="76" x="510" y="1732"/>
<text x="548" y="1748">
Integer</text>
</g>
</a>
</g>
<g class="character">
<rect height="22" rx="10" ry="10" width="52" x="620" y="1732"/>
<text x="646" y="1748">
HIDE</text>
</g>
<g class="string">
<rect height="22" rx="10" ry="10" width="28" x="682" y="1732"/>
<text x="696" y="1748">
}</text>
</g>
<path d=" M 118 1743 h 10"/>
<path d=" M 180 1743 h 10"/>
<path d=" M 314 1743 h 10"/>
<path d=" M 376 1743 h 10"/>
<path d=" M 414 1743 h 10"/>
<path d=" M 476 1743 h 10"/>
<path d=" M 610 1743 h 10"/>
<path d=" M 672 1743 h 10"/>
</g>
<path d=" M 720 1743 h 5 a 5 5 0 0 1 5 -5 a 5 5 0 0 1 5 5 a 5 5 0 0 1 -5 5 a 5 5 0 0 1 -5 -5"/>
<path d=" M 25 1743 h 10"/>
<path d=" M 80 1743 h 10"/>
<path d=" M 710 1743 h 10"/>
</g>
<g class="sequence">
<path d=" M 10 1777 a 5 5 0 0 1 5 -5 a 5 5 0 0 1 5 5 a 5 5 0 0 1 -5 5 a 5 5 0 0 1 -5 -5 m 10 0 h 5"/>
<text class="comment" id="Boolean" x="64" y="1782">
Boolean</text>
<g class="choice">
<path d=" M 104 1777 h 24 m 52 0 h 32"/>
<g class="string">
<rect height="22" rx="10" ry="10" width="52" x="128" y="1766"/>
<text x="154" y="1782">
true</text>
</g>
<path d=" M 104 1777 a 12 12 0 0 1 12 12 v 9 m 84 0 v -9 a 12 12 0 0 1 12 -12"/>
<path d=" M 116 1798 v 0 a 12 12 0 0 0 12 12 m 60 0 h 0 a 12 12 0 0 0 12 -12 v 0"/>
<g class="string">
<rect height="22" rx="10" ry="10" width="60" x="128" y="1799"/>
<text x="158" y="1815">
false</text>
</g>
</g>
<path d=" M 222 1777 h 5 a 5 5 0 0 1 5 -5 a 5 5 0 0 1 5 5 a 5 5 0 0 1 -5 5 a 5 5 0 0 1 -5 -5"/>
<path d=" M 25 1777 h 10"/>
<path d=" M 94 1777 h 10"/>
<path d=" M 212 1777 h 10"/>
</g>
<g class="sequence">
<path d=" M 10 1844 a 5 5 0 0 1 5 -5 a 5 5 0 0 1 5 5 a 5 5 0 0 1 -5 5 a 5 5 0 0 1 -5 -5 m 10 0 h 5"/>
<text class="comment" id="KW_ATTRIBUTE" x="82" y="1849">
KW_ATTRIBUTE</text>
<g class="string">
<rect height="22" rx="10" ry="10" width="108" x="139" y="1833"/>
<text x="193" y="1849">
属性|属性名</text>
</g>
<path d=" M 257 1844 h 5 a 5 5 0 0 1 5 -5 a 5 5 0 0 1 5 5 a 5 5 0 0 1 -5 5 a 5 5 0 0 1 -5 -5"/>
<path d=" M 25 1844 h 10"/>
<path d=" M 129 1844 h 10"/>
<path d=" M 247 1844 h 10"/>
</g>
<g class="sequence">
<path d=" M 10 1878 a 5 5 0 0 1 5 -5 a 5 5 0 0 1 5 5 a 5 5 0 0 1 -5 5 a 5 5 0 0 1 -5 -5 m 10 0 h 5"/>
<text class="comment" id="KW_TRAIT" x="68" y="1883">
KW_TRAIT</text>
<g class="string">
<rect height="22" rx="10" ry="10" width="92" x="111" y="1867"/>
<text x="157" y="1883">
特质|特征</text>
</g>
<path d=" M 213 1878 h 5 a 5 5 0 0 1 5 -5 a 5 5 0 0 1 5 5 a 5 5 0 0 1 -5 5 a 5 5 0 0 1 -5 -5"/>
<path d=" M 25 1878 h 10"/>
<path d=" M 101 1878 h 10"/>
<path d=" M 203 1878 h 10"/>
</g>
<g class="sequence">
<path d=" M 10 1912 a 5 5 0 0 1 5 -5 a 5 5 0 0 1 5 5 a 5 5 0 0 1 -5 5 a 5 5 0 0 1 -5 -5 m 10 0 h 5"/>
<text class="comment" id="KW_EVENT" x="68" y="1917">
KW_EVENT</text>
<g class="string">
<rect height="22" rx="10" ry="10" width="52" x="111" y="1901"/>
<text x="137" y="1917">
事件</text>
</g>
<path d=" M 173 1912 h 5 a 5 5 0 0 1 5 -5 a 5 5 0 0 1 5 5 a 5 5 0 0 1 -5 5 a 5 5 0 0 1 -5 -5"/>
<path d=" M 25 1912 h 10"/>
<path d=" M 101 1912 h 10"/>
<path d=" M 163 1912 h 10"/>
</g>
<g class="sequence">
<path d=" M 10 1946 a 5 5 0 0 1 5 -5 a 5 5 0 0 1 5 5 a 5 5 0 0 1 -5 5 a 5 5 0 0 1 -5 -5 m 10 0 h 5"/>
<text class="comment" id="WhiteSpace" x="75" y="1951">
WhiteSpace</text>
<g class="string">
<rect height="22" rx="10" ry="10" width="148" x="125" y="1935"/>
<text x="199" y="1951">
\p{White_Space}+</text>
</g>
<path d=" M 283 1946 h 5 a 5 5 0 0 1 5 -5 a 5 5 0 0 1 5 5 a 5 5 0 0 1 -5 5 a 5 5 0 0 1 -5 -5"/>
<path d=" M 25 1946 h 10"/>
<path d=" M 115 1946 h 10"/>
<path d=" M 273 1946 h 10"/>
</g>
<g class="sequence">
<path d=" M 10 1980 a 5 5 0 0 1 5 -5 a 5 5 0 0 1 5 5 a 5 5 0 0 1 -5 5 a 5 5 0 0 1 -5 -5 m 10 0 h 5"/>
<text class="comment" id="Comment" x="64" y="1985">
Comment</text>
<g class="choice">
<path d=" M 104 1980 h 24 m 116 0 h 24"/>
<g class="string">
<rect height="22" rx="10" ry="10" width="116" x="128" y="1969"/>
<text x="186" y="1985">
\/\/[^\n\r]*</text>
</g>
<path d=" M 104 1980 a 12 12 0 0 1 12 12 v 9 m 140 0 v -9 a 12 12 0 0 1 12 -12"/>
<path d=" M 116 2001 v 0 a 12 12 0 0 0 12 12 m 82 0 h 34 a 12 12 0 0 0 12 -12 v 0"/>
<g class="sequence">
<g class="string">
<rect height="22" rx="10" ry="10" width="36" x="128" y="2002"/>
<text x="146" y="2018">
/*</text>
</g>
<g class="string">
<rect height="22" rx="10" ry="10" width="36" x="174" y="2002"/>
<text x="192" y="2018">
*/</text>
</g>
<path d=" M 164 2013 h 10"/>
</g>
</g>
<path d=" M 278 1980 h 5 a 5 5 0 0 1 5 -5 a 5 5 0 0 1 5 5 a 5 5 0 0 1 -5 5 a 5 5 0 0 1 -5 -5"/>
<path d=" M 25 1980 h 10"/>
<path d=" M 94 1980 h 10"/>
<path d=" M 268 1980 h 10"/>
</g>
</g>
</svg>