<svg class="railroad" viewBox="0 0 1101 2194" xmlns="http://www.w3.org/2000/svg" xmlns:xlink="http://www.w3.org/1999/xlink">
<style type="text/css">svg.railroad{background-color:hsl(30,20%,95%);background-size:15px 15px;background-image:linear-gradient(to right,rgba(30,30,30,.05) 1px,transparent 1px),linear-gradient(to bottom,rgba(30,30,30,.05) 1px,transparent 1px);}svg.railroad path{stroke-width:3px;stroke:black;fill:transparent;}svg.railroad .debug{stroke-width:1px;stroke:red;}svg.railroad text{font-size:14px;font-family:monospace;text-anchor:middle;}svg.railroad .nonterminal text{font-weight:bold;}svg.railroad text.comment{font-family:serif;font-style:italic;font-size:12px;}svg.railroad rect{stroke-width:3px;stroke:black;}svg.railroad g.labeledbox>rect{stroke-width:1px;stroke:grey;stroke-dasharray:5px;fill:rgba(90,90,150,.1);}svg.railroad .symbol>rect{fill:rgba(90,90,150,.1);}svg.railroad .regex>rect{fill:honeydew;}svg.railroad .string>rect{fill:cornsilk;}svg.railroad .character>rect{fill:lightcoral;}</style>
<g class="verticalgrid">
<g class="sequence">
<path d=" M 10 21 a 5 5 0 0 1 5 -5 a 5 5 0 0 1 5 5 a 5 5 0 0 1 -5 5 a 5 5 0 0 1 -5 -5 m 10 0 h 5"/>
<text class="comment" id="Root" x="54" y="26">
Root</text>
<g class="sequence">
<g class="repeat">
<path d=" M 83 21 h 12 m 154 0 h 12 m -12 0 a 12 12 0 0 1 12 12 v 7 a 12 12 0 0 1 -12 12 m -52 0 h -102 m 54 0 l 5 -5 m 0 10 l -5 -5 m -54 0 a 12 12 0 0 1 -12 -12 v -7 a 12 12 0 0 1 12 -12"/>
<text class="comment" x="223" y="57">
[0, ∞]</text>
<g class="sequence">
<g class="character">
<rect height="22" rx="10" ry="10" width="52" x="95" y="10"/>
<text x="121" y="26">
HIDE</text>
</g>
<a class="link" xlink:href="#Statement">
<g class="symbol">
<rect height="22" width="92" x="157" y="10"/>
<text x="203" y="26">
Statement</text>
</g>
</a>
<path d=" M 147 21 h 10"/>
</g>
</g>
<g class="character">
<rect height="22" rx="10" ry="10" width="52" x="271" y="10"/>
<text x="297" y="26">
HIDE</text>
</g>
<g class="character">
<rect height="22" rx="10" ry="10" width="116" x="333" y="10"/>
<text x="391" y="26">
END_OF_INPUT</text>
</g>
<path d=" M 261 21 h 10"/>
<path d=" M 323 21 h 10"/>
</g>
<path d=" M 459 21 h 5 a 5 5 0 0 1 5 -5 a 5 5 0 0 1 5 5 a 5 5 0 0 1 -5 5 a 5 5 0 0 1 -5 -5"/>
<path d=" M 25 21 h 10"/>
<path d=" M 73 21 h 10"/>
<path d=" M 449 21 h 10"/>
</g>
<g class="sequence">
<path d=" M 10 85 a 5 5 0 0 1 5 -5 a 5 5 0 0 1 5 5 a 5 5 0 0 1 -5 5 a 5 5 0 0 1 -5 -5 m 10 0 h 5"/>
<text class="comment" id="Statement" x="71" y="90">
Statement</text>
<g class="choice">
<path d=" M 118 85 h 24 m 156 0 h 24"/>
<a class="link" xlink:href="#PropertyStatement">
<g class="symbol">
<rect height="22" width="156" x="142" y="74"/>
<text x="220" y="90">
PropertyStatement</text>
</g>
</a>
<path d=" M 118 85 a 12 12 0 0 1 12 12 v 9 m 180 0 v -9 a 12 12 0 0 1 12 -12"/>
<path d=" M 130 106 v 33 m 180 0 v -33"/>
<path d=" M 130 106 v 0 a 12 12 0 0 0 12 12 m 100 0 h 56 m -25 0 l -5 -5 m 0 10 l 5 -5 m 25 0 a 12 12 0 0 0 12 -12 v 0"/>
<a class="link" xlink:href="#TraitGroup">
<g class="symbol">
<rect height="22" width="100" x="142" y="107"/>
<text x="192" y="123">
TraitGroup</text>
</g>
</a>
<path d=" M 130 139 v 0 a 12 12 0 0 0 12 12 m 132 0 h 24 a 12 12 0 0 0 12 -12 v 0"/>
<a class="link" xlink:href="#TraitStatement">
<g class="symbol">
<rect height="22" width="132" x="142" y="140"/>
<text x="208" y="156">
TraitStatement</text>
</g>
</a>
</g>
<path d=" M 332 85 h 5 a 5 5 0 0 1 5 -5 a 5 5 0 0 1 5 5 a 5 5 0 0 1 -5 5 a 5 5 0 0 1 -5 -5"/>
<path d=" M 25 85 h 10"/>
<path d=" M 108 85 h 10"/>
<path d=" M 322 85 h 10"/>
</g>
<g class="sequence">
<path d=" M 10 185 a 5 5 0 0 1 5 -5 a 5 5 0 0 1 5 5 a 5 5 0 0 1 -5 5 a 5 5 0 0 1 -5 -5 m 10 0 h 5"/>
<text class="comment" id="PropertyStatement" x="99" y="190">
PropertyStatement</text>
<g class="sequence">
<a class="link" xlink:href="#KW_PROPERTY">
<g class="symbol">
<rect height="22" width="108" x="174" y="174"/>
<text x="228" y="190">
KW_PROPERTY</text>
</g>
</a>
<g class="character">
<rect height="22" rx="10" ry="10" width="52" x="292" y="174"/>
<text x="318" y="190">
HIDE</text>
</g>
<a class="link" xlink:href="#Identifier">
<g class="symbol">
<rect height="22" width="100" x="354" y="174"/>
<text x="404" y="190">
Identifier</text>
</g>
</a>
<g class="character">
<rect height="22" rx="10" ry="10" width="52" x="464" y="174"/>
<text x="490" y="190">
HIDE</text>
</g>
<g class="string">
<rect height="22" rx="10" ry="10" width="28" x="526" y="174"/>
<text x="540" y="190">
{</text>
</g>
<g class="character">
<rect height="22" rx="10" ry="10" width="52" x="564" y="174"/>
<text x="590" y="190">
HIDE</text>
</g>
<g class="repeat">
<path d=" M 626 185 h 12 m 178 0 h 12 m -12 0 a 12 12 0 0 1 12 12 v 7 a 12 12 0 0 1 -12 12 m -52 0 h -126 m 66 0 l 5 -5 m 0 10 l -5 -5 m -66 0 a 12 12 0 0 1 -12 -12 v -7 a 12 12 0 0 1 12 -12"/>
<text class="comment" x="790" y="221">
[0, ∞]</text>
<g class="sequence">
<g class="character">
<rect height="22" rx="10" ry="10" width="52" x="638" y="174"/>
<text x="664" y="190">
HIDE</text>
</g>
<a class="link" xlink:href="#PropertyItem">
<g class="symbol">
<rect height="22" width="116" x="700" y="174"/>
<text x="758" y="190">
PropertyItem</text>
</g>
</a>
<path d=" M 690 185 h 10"/>
</g>
</g>
<g class="character">
<rect height="22" rx="10" ry="10" width="52" x="838" y="174"/>
<text x="864" y="190">
HIDE</text>
</g>
<g class="string">
<rect height="22" rx="10" ry="10" width="28" x="900" y="174"/>
<text x="914" y="190">
}</text>
</g>
<path d=" M 282 185 h 10"/>
<path d=" M 344 185 h 10"/>
<path d=" M 454 185 h 10"/>
<path d=" M 516 185 h 10"/>
<path d=" M 554 185 h 10"/>
<path d=" M 616 185 h 10"/>
<path d=" M 828 185 h 10"/>
<path d=" M 890 185 h 10"/>
</g>
<path d=" M 938 185 h 5 a 5 5 0 0 1 5 -5 a 5 5 0 0 1 5 5 a 5 5 0 0 1 -5 5 a 5 5 0 0 1 -5 -5"/>
<path d=" M 25 185 h 10"/>
<path d=" M 164 185 h 10"/>
<path d=" M 928 185 h 10"/>
</g>
<g class="sequence">
<path d=" M 10 249 a 5 5 0 0 1 5 -5 a 5 5 0 0 1 5 5 a 5 5 0 0 1 -5 5 a 5 5 0 0 1 -5 -5 m 10 0 h 5"/>
<text class="comment" id="PropertyItem" x="82" y="254">
PropertyItem</text>
<g class="choice">
<path d=" M 139 249 h 24 m 108 0 h 104 m -49 0 l -5 -5 m 0 10 l 5 -5 m 49 0"/>
<a class="link" xlink:href="#IdStatement">
<g class="symbol">
<rect height="22" width="108" x="163" y="238"/>
<text x="217" y="254">
IdStatement</text>
</g>
</a>
<path d=" M 139 249 a 12 12 0 0 1 12 12 v 9 m 212 0 v -9 a 12 12 0 0 1 12 -12"/>
<path d=" M 151 270 v 33 m 212 0 v -33"/>
<path d=" M 151 270 v 0 a 12 12 0 0 0 12 12 m 188 0 h 0 a 12 12 0 0 0 12 -12 v 0"/>
<a class="link" xlink:href="#DescriptionStatement">
<g class="symbol">
<rect height="22" width="188" x="163" y="271"/>
<text x="257" y="287">
DescriptionStatement</text>
</g>
</a>
<path d=" M 151 303 v 0 a 12 12 0 0 0 12 12 m 188 0 h 0 a 12 12 0 0 0 12 -12 v 0"/>
<a class="link" xlink:href="#RequirementStatement">
<g class="symbol">
<rect height="22" width="188" x="163" y="304"/>
<text x="257" y="320">
RequirementStatement</text>
</g>
</a>
</g>
<path d=" M 385 249 h 5 a 5 5 0 0 1 5 -5 a 5 5 0 0 1 5 5 a 5 5 0 0 1 -5 5 a 5 5 0 0 1 -5 -5"/>
<path d=" M 25 249 h 10"/>
<path d=" M 129 249 h 10"/>
<path d=" M 375 249 h 10"/>
</g>
<g class="sequence">
<path d=" M 10 349 a 5 5 0 0 1 5 -5 a 5 5 0 0 1 5 5 a 5 5 0 0 1 -5 5 a 5 5 0 0 1 -5 -5 m 10 0 h 5"/>
<text class="comment" id="TraitGroup" x="75" y="354">
TraitGroup</text>
<g class="sequence">
<a class="link" xlink:href="#KW_TRAIT_GROUP">
<g class="symbol">
<rect height="22" width="132" x="125" y="338"/>
<text x="191" y="354">
KW_TRAIT_GROUP</text>
</g>
</a>
<g class="character">
<rect height="22" rx="10" ry="10" width="52" x="267" y="338"/>
<text x="293" y="354">
HIDE</text>
</g>
<a class="link" xlink:href="#Identifier">
<g class="symbol">
<rect height="22" width="100" x="329" y="338"/>
<text x="379" y="354">
Identifier</text>
</g>
</a>
<g class="character">
<rect height="22" rx="10" ry="10" width="52" x="439" y="338"/>
<text x="465" y="354">
HIDE</text>
</g>
<g class="string">
<rect height="22" rx="10" ry="10" width="28" x="501" y="338"/>
<text x="515" y="354">
{</text>
</g>
<g class="character">
<rect height="22" rx="10" ry="10" width="52" x="539" y="338"/>
<text x="565" y="354">
HIDE</text>
</g>
<g class="repeat">
<path d=" M 601 349 h 12 m 194 0 h 12 m -12 0 a 12 12 0 0 1 12 12 v 7 a 12 12 0 0 1 -12 12 m -52 0 h -142 m 74 0 l 5 -5 m 0 10 l -5 -5 m -74 0 a 12 12 0 0 1 -12 -12 v -7 a 12 12 0 0 1 12 -12"/>
<text class="comment" x="781" y="385">
[0, ∞]</text>
<g class="sequence">
<g class="character">
<rect height="22" rx="10" ry="10" width="52" x="613" y="338"/>
<text x="639" y="354">
HIDE</text>
</g>
<a class="link" xlink:href="#TraitStatement">
<g class="symbol">
<rect height="22" width="132" x="675" y="338"/>
<text x="741" y="354">
TraitStatement</text>
</g>
</a>
<path d=" M 665 349 h 10"/>
</g>
</g>
<g class="character">
<rect height="22" rx="10" ry="10" width="52" x="829" y="338"/>
<text x="855" y="354">
HIDE</text>
</g>
<g class="string">
<rect height="22" rx="10" ry="10" width="28" x="891" y="338"/>
<text x="905" y="354">
}</text>
</g>
<path d=" M 257 349 h 10"/>
<path d=" M 319 349 h 10"/>
<path d=" M 429 349 h 10"/>
<path d=" M 491 349 h 10"/>
<path d=" M 529 349 h 10"/>
<path d=" M 591 349 h 10"/>
<path d=" M 819 349 h 10"/>
<path d=" M 881 349 h 10"/>
</g>
<path d=" M 929 349 h 5 a 5 5 0 0 1 5 -5 a 5 5 0 0 1 5 5 a 5 5 0 0 1 -5 5 a 5 5 0 0 1 -5 -5"/>
<path d=" M 25 349 h 10"/>
<path d=" M 115 349 h 10"/>
<path d=" M 919 349 h 10"/>
</g>
<g class="sequence">
<path d=" M 10 413 a 5 5 0 0 1 5 -5 a 5 5 0 0 1 5 5 a 5 5 0 0 1 -5 5 a 5 5 0 0 1 -5 -5 m 10 0 h 5"/>
<text class="comment" id="TraitStatement" x="89" y="418">
TraitStatement</text>
<g class="sequence">
<a class="link" xlink:href="#KW_TRAIT">
<g class="symbol">
<rect height="22" width="84" x="153" y="402"/>
<text x="195" y="418">
KW_TRAIT</text>
</g>
</a>
<g class="character">
<rect height="22" rx="10" ry="10" width="52" x="247" y="402"/>
<text x="273" y="418">
HIDE</text>
</g>
<a class="link" xlink:href="#Identifier">
<g class="symbol">
<rect height="22" width="100" x="309" y="402"/>
<text x="359" y="418">
Identifier</text>
</g>
</a>
<g class="character">
<rect height="22" rx="10" ry="10" width="52" x="419" y="402"/>
<text x="445" y="418">
HIDE</text>
</g>
<g class="string">
<rect height="22" rx="10" ry="10" width="28" x="481" y="402"/>
<text x="495" y="418">
{</text>
</g>
<g class="character">
<rect height="22" rx="10" ry="10" width="52" x="519" y="402"/>
<text x="545" y="418">
HIDE</text>
</g>
<g class="repeat">
<path d=" M 581 413 h 12 m 154 0 h 12 m -12 0 a 12 12 0 0 1 12 12 v 7 a 12 12 0 0 1 -12 12 m -52 0 h -102 m 54 0 l 5 -5 m 0 10 l -5 -5 m -54 0 a 12 12 0 0 1 -12 -12 v -7 a 12 12 0 0 1 12 -12"/>
<text class="comment" x="721" y="449">
[0, ∞]</text>
<g class="sequence">
<g class="character">
<rect height="22" rx="10" ry="10" width="52" x="593" y="402"/>
<text x="619" y="418">
HIDE</text>
</g>
<a class="link" xlink:href="#TraitItem">
<g class="symbol">
<rect height="22" width="92" x="655" y="402"/>
<text x="701" y="418">
TraitItem</text>
</g>
</a>
<path d=" M 645 413 h 10"/>
</g>
</g>
<g class="character">
<rect height="22" rx="10" ry="10" width="52" x="769" y="402"/>
<text x="795" y="418">
HIDE</text>
</g>
<g class="string">
<rect height="22" rx="10" ry="10" width="28" x="831" y="402"/>
<text x="845" y="418">
}</text>
</g>
<path d=" M 237 413 h 10"/>
<path d=" M 299 413 h 10"/>
<path d=" M 409 413 h 10"/>
<path d=" M 471 413 h 10"/>
<path d=" M 509 413 h 10"/>
<path d=" M 571 413 h 10"/>
<path d=" M 759 413 h 10"/>
<path d=" M 821 413 h 10"/>
</g>
<path d=" M 869 413 h 5 a 5 5 0 0 1 5 -5 a 5 5 0 0 1 5 5 a 5 5 0 0 1 -5 5 a 5 5 0 0 1 -5 -5"/>
<path d=" M 25 413 h 10"/>
<path d=" M 143 413 h 10"/>
<path d=" M 859 413 h 10"/>
</g>
<g class="sequence">
<path d=" M 10 477 a 5 5 0 0 1 5 -5 a 5 5 0 0 1 5 5 a 5 5 0 0 1 -5 5 a 5 5 0 0 1 -5 -5 m 10 0 h 5"/>
<text class="comment" id="TraitItem" x="71" y="482">
TraitItem</text>
<g class="choice">
<path d=" M 118 477 h 24 m 108 0 h 104 m -49 0 l -5 -5 m 0 10 l 5 -5 m 49 0"/>
<a class="link" xlink:href="#IdStatement">
<g class="symbol">
<rect height="22" width="108" x="142" y="466"/>
<text x="196" y="482">
IdStatement</text>
</g>
</a>
<path d=" M 118 477 a 12 12 0 0 1 12 12 v 9 m 212 0 v -9 a 12 12 0 0 1 12 -12"/>
<path d=" M 130 498 v 33 m 212 0 v -33"/>
<path d=" M 130 498 v 0 a 12 12 0 0 0 12 12 m 188 0 h 0 a 12 12 0 0 0 12 -12 v 0"/>
<a class="link" xlink:href="#DescriptionStatement">
<g class="symbol">
<rect height="22" width="188" x="142" y="499"/>
<text x="236" y="515">
DescriptionStatement</text>
</g>
</a>
<path d=" M 130 531 v 0 a 12 12 0 0 0 12 12 m 188 0 h 0 a 12 12 0 0 0 12 -12 v 0"/>
<a class="link" xlink:href="#RequirementStatement">
<g class="symbol">
<rect height="22" width="188" x="142" y="532"/>
<text x="236" y="548">
RequirementStatement</text>
</g>
</a>
</g>
<path d=" M 364 477 h 5 a 5 5 0 0 1 5 -5 a 5 5 0 0 1 5 5 a 5 5 0 0 1 -5 5 a 5 5 0 0 1 -5 -5"/>
<path d=" M 25 477 h 10"/>
<path d=" M 108 477 h 10"/>
<path d=" M 354 477 h 10"/>
</g>
<g class="sequence">
<path d=" M 10 577 a 5 5 0 0 1 5 -5 a 5 5 0 0 1 5 5 a 5 5 0 0 1 -5 5 a 5 5 0 0 1 -5 -5 m 10 0 h 5"/>
<text class="comment" id="TraitProperty" x="85" y="582">
TraitProperty</text>
<g class="sequence">
<a class="link" xlink:href="#Identifier">
<g class="symbol">
<rect height="22" width="100" x="146" y="566"/>
<text x="196" y="582">
Identifier</text>
</g>
</a>
<g class="character">
<rect height="22" rx="10" ry="10" width="52" x="256" y="566"/>
<text x="282" y="582">
HIDE</text>
</g>
<g class="string">
<rect height="22" rx="10" ry="10" width="28" x="318" y="566"/>
<text x="332" y="582">
:</text>
</g>
<g class="character">
<rect height="22" rx="10" ry="10" width="52" x="356" y="566"/>
<text x="382" y="582">
HIDE</text>
</g>
<a class="link" xlink:href="#Atomic">
<g class="symbol">
<rect height="22" width="68" x="418" y="566"/>
<text x="452" y="582">
Atomic</text>
</g>
</a>
<path d=" M 246 577 h 10"/>
<path d=" M 308 577 h 10"/>
<path d=" M 346 577 h 10"/>
<path d=" M 408 577 h 10"/>
</g>
<path d=" M 496 577 h 5 a 5 5 0 0 1 5 -5 a 5 5 0 0 1 5 5 a 5 5 0 0 1 -5 5 a 5 5 0 0 1 -5 -5"/>
<path d=" M 25 577 h 10"/>
<path d=" M 136 577 h 10"/>
<path d=" M 486 577 h 10"/>
</g>
<g class="sequence">
<path d=" M 10 611 a 5 5 0 0 1 5 -5 a 5 5 0 0 1 5 5 a 5 5 0 0 1 -5 5 a 5 5 0 0 1 -5 -5 m 10 0 h 5"/>
<text class="comment" id="EventStatement" x="89" y="616">
EventStatement</text>
<g class="sequence">
<a class="link" xlink:href="#KW_EVENT">
<g class="symbol">
<rect height="22" width="84" x="153" y="600"/>
<text x="195" y="616">
KW_EVENT</text>
</g>
</a>
<g class="character">
<rect height="22" rx="10" ry="10" width="52" x="247" y="600"/>
<text x="273" y="616">
HIDE</text>
</g>
<a class="link" xlink:href="#Identifier">
<g class="symbol">
<rect height="22" width="100" x="309" y="600"/>
<text x="359" y="616">
Identifier</text>
</g>
</a>
<g class="character">
<rect height="22" rx="10" ry="10" width="52" x="419" y="600"/>
<text x="445" y="616">
HIDE</text>
</g>
<a class="link" xlink:href="#EventBlock">
<g class="symbol">
<rect height="22" width="100" x="481" y="600"/>
<text x="531" y="616">
EventBlock</text>
</g>
</a>
<path d=" M 237 611 h 10"/>
<path d=" M 299 611 h 10"/>
<path d=" M 409 611 h 10"/>
<path d=" M 471 611 h 10"/>
</g>
<path d=" M 591 611 h 5 a 5 5 0 0 1 5 -5 a 5 5 0 0 1 5 5 a 5 5 0 0 1 -5 5 a 5 5 0 0 1 -5 -5"/>
<path d=" M 25 611 h 10"/>
<path d=" M 143 611 h 10"/>
<path d=" M 581 611 h 10"/>
</g>
<g class="sequence">
<path d=" M 10 645 a 5 5 0 0 1 5 -5 a 5 5 0 0 1 5 5 a 5 5 0 0 1 -5 5 a 5 5 0 0 1 -5 -5 m 10 0 h 5"/>
<text class="comment" id="EventBlock" x="75" y="650">
EventBlock</text>
<g class="sequence">
<g class="string">
<rect height="22" rx="10" ry="10" width="28" x="125" y="634"/>
<text x="139" y="650">
{</text>
</g>
<g class="character">
<rect height="22" rx="10" ry="10" width="52" x="163" y="634"/>
<text x="189" y="650">
HIDE</text>
</g>
<g class="repeat">
<path d=" M 225 645 h 12 m 186 0 h 12 m -12 0 a 12 12 0 0 1 12 12 v 7 a 12 12 0 0 1 -12 12 m -52 0 h -134 m 70 0 l 5 -5 m 0 10 l -5 -5 m -70 0 a 12 12 0 0 1 -12 -12 v -7 a 12 12 0 0 1 12 -12"/>
<text class="comment" x="397" y="681">
[0, ∞]</text>
<g class="sequence">
<g class="character">
<rect height="22" rx="10" ry="10" width="52" x="237" y="634"/>
<text x="263" y="650">
HIDE</text>
</g>
<a class="link" xlink:href="#EventProperty">
<g class="symbol">
<rect height="22" width="124" x="299" y="634"/>
<text x="361" y="650">
EventProperty</text>
</g>
</a>
<path d=" M 289 645 h 10"/>
</g>
</g>
<g class="character">
<rect height="22" rx="10" ry="10" width="52" x="445" y="634"/>
<text x="471" y="650">
HIDE</text>
</g>
<g class="string">
<rect height="22" rx="10" ry="10" width="28" x="507" y="634"/>
<text x="521" y="650">
}</text>
</g>
<path d=" M 153 645 h 10"/>
<path d=" M 215 645 h 10"/>
<path d=" M 435 645 h 10"/>
<path d=" M 497 645 h 10"/>
</g>
<path d=" M 545 645 h 5 a 5 5 0 0 1 5 -5 a 5 5 0 0 1 5 5 a 5 5 0 0 1 -5 5 a 5 5 0 0 1 -5 -5"/>
<path d=" M 25 645 h 10"/>
<path d=" M 115 645 h 10"/>
<path d=" M 535 645 h 10"/>
</g>
<g class="sequence">
<path d=" M 10 722 a 5 5 0 0 1 5 -5 a 5 5 0 0 1 5 5 a 5 5 0 0 1 -5 5 a 5 5 0 0 1 -5 -5 m 10 0 h 5"/>
<text class="comment" id="EventProperty" x="85" y="727">
EventProperty</text>
<g class="sequence">
<a class="link" xlink:href="#Identifier">
<g class="symbol">
<rect height="22" width="100" x="146" y="711"/>
<text x="196" y="727">
Identifier</text>
</g>
</a>
<g class="character">
<rect height="22" rx="10" ry="10" width="52" x="256" y="711"/>
<text x="282" y="727">
HIDE</text>
</g>
<g class="choice">
<path d=" M 318 722 h 24 m 28 0 h 24"/>
<g class="string">
<rect height="22" rx="10" ry="10" width="28" x="342" y="711"/>
<text x="356" y="727">
:</text>
</g>
<path d=" M 318 722 a 12 12 0 0 1 12 12 v 9 m 52 0 v -9 a 12 12 0 0 1 12 -12"/>
<path d=" M 330 743 v 0 a 12 12 0 0 0 12 12 m 28 0 h 0 a 12 12 0 0 0 12 -12 v 0"/>
<g class="string">
<rect height="22" rx="10" ry="10" width="28" x="342" y="744"/>
<text x="356" y="760">
[</text>
</g>
</g>
<g class="character">
<rect height="22" rx="10" ry="10" width="52" x="404" y="711"/>
<text x="430" y="727">
HIDE</text>
</g>
<a class="link" xlink:href="#Expression">
<g class="symbol">
<rect height="22" width="100" x="466" y="711"/>
<text x="516" y="727">
Expression</text>
</g>
</a>
<g class="character">
<rect height="22" rx="10" ry="10" width="52" x="576" y="711"/>
<text x="602" y="727">
HIDE</text>
</g>
<g class="optional">
<path d=" M 638 722 h 24 m -24 0 a 12 12 0 0 0 12 -12 v 0 a 12 12 0 0 1 12 -12 h 348 m -171 0 l -5 -5 m 0 10 l 5 -5 m 171 0 a 12 12 0 0 1 12 12 v 0 a 12 12 0 0 0 12 12 h -24"/>
<g class="choice">
<path d=" M 662 722 h 24 m 28 0 h 296 m -145 0 l -5 -5 m 0 10 l 5 -5 m 145 0"/>
<g class="string">
<rect height="22" rx="10" ry="10" width="28" x="686" y="711"/>
<text x="700" y="727">
]</text>
</g>
<path d=" M 662 722 a 12 12 0 0 1 12 12 v 9 m 324 0 v -9 a 12 12 0 0 1 12 -12"/>
<path d=" M 674 743 v 33 m 324 0 v -33"/>
<path d=" M 674 743 v 0 a 12 12 0 0 0 12 12 m 300 0 h 0 a 12 12 0 0 0 12 -12 v 0"/>
<g class="sequence">
<g class="string">
<rect height="22" rx="10" ry="10" width="28" x="686" y="744"/>
<text x="700" y="760">
{</text>
</g>
<g class="character">
<rect height="22" rx="10" ry="10" width="52" x="724" y="744"/>
<text x="750" y="760">
HIDE</text>
</g>
<a class="link" xlink:href="#EventBlock">
<g class="symbol">
<rect height="22" width="100" x="786" y="744"/>
<text x="836" y="760">
EventBlock</text>
</g>
</a>
<g class="character">
<rect height="22" rx="10" ry="10" width="52" x="896" y="744"/>
<text x="922" y="760">
HIDE</text>
</g>
<g class="string">
<rect height="22" rx="10" ry="10" width="28" x="958" y="744"/>
<text x="972" y="760">
}</text>
</g>
<path d=" M 714 755 h 10"/>
<path d=" M 776 755 h 10"/>
<path d=" M 886 755 h 10"/>
<path d=" M 948 755 h 10"/>
</g>
<path d=" M 674 776 v 0 a 12 12 0 0 0 12 12 m 100 0 h 200 m -97 0 l -5 -5 m 0 10 l 5 -5 m 97 0 a 12 12 0 0 0 12 -12 v 0"/>
<a class="link" xlink:href="#EventBlock">
<g class="symbol">
<rect height="22" width="100" x="686" y="777"/>
<text x="736" y="793">
EventBlock</text>
</g>
</a>
</g>
</g>
<path d=" M 246 722 h 10"/>
<path d=" M 308 722 h 10"/>
<path d=" M 394 722 h 10"/>
<path d=" M 456 722 h 10"/>
<path d=" M 566 722 h 10"/>
<path d=" M 628 722 h 10"/>
</g>
<path d=" M 1044 722 h 5 a 5 5 0 0 1 5 -5 a 5 5 0 0 1 5 5 a 5 5 0 0 1 -5 5 a 5 5 0 0 1 -5 -5"/>
<path d=" M 25 722 h 10"/>
<path d=" M 136 722 h 10"/>
<path d=" M 1034 722 h 10"/>
</g>
<g class="sequence">
<path d=" M 10 822 a 5 5 0 0 1 5 -5 a 5 5 0 0 1 5 5 a 5 5 0 0 1 -5 5 a 5 5 0 0 1 -5 -5 m 10 0 h 5"/>
<text class="comment" id="IdStatement" x="78" y="827">
IdStatement</text>
<g class="sequence">
<a class="link" xlink:href="#KW_ID">
<g class="symbol">
<rect height="22" width="60" x="132" y="811"/>
<text x="162" y="827">
KW_ID</text>
</g>
</a>
<g class="character">
<rect height="22" rx="10" ry="10" width="52" x="202" y="811"/>
<text x="228" y="827">
HIDE</text>
</g>
<a class="link" xlink:href="#Integer">
<g class="symbol">
<rect height="22" width="76" x="264" y="811"/>
<text x="302" y="827">
Integer</text>
</g>
</a>
<path d=" M 192 822 h 10"/>
<path d=" M 254 822 h 10"/>
</g>
<path d=" M 350 822 h 5 a 5 5 0 0 1 5 -5 a 5 5 0 0 1 5 5 a 5 5 0 0 1 -5 5 a 5 5 0 0 1 -5 -5"/>
<path d=" M 25 822 h 10"/>
<path d=" M 122 822 h 10"/>
<path d=" M 340 822 h 10"/>
</g>
<g class="sequence">
<path d=" M 10 869 a 5 5 0 0 1 5 -5 a 5 5 0 0 1 5 5 a 5 5 0 0 1 -5 5 a 5 5 0 0 1 -5 -5 m 10 0 h 5"/>
<text class="comment" id="DescriptionStatement" x="113" y="874">
DescriptionStatement</text>
<g class="choice">
<path d=" M 202 869 h 24 m 320 0 h 520 m -257 0 l -5 -5 m 0 10 l 5 -5 m 257 0"/>
<g class="sequence">
<a class="link" xlink:href="#KW_DESCRIPTION">
<g class="symbol">
<rect height="22" width="132" x="226" y="858"/>
<text x="292" y="874">
KW_DESCRIPTION</text>
</g>
</a>
<g class="character">
<rect height="22" rx="10" ry="10" width="52" x="368" y="858"/>
<text x="394" y="874">
HIDE</text>
</g>
<g class="optional">
<path d=" M 430 869 h 24 m -24 0 a 12 12 0 0 0 12 -12 v 0 a 12 12 0 0 1 12 -12 h 68 m -31 0 l -5 -5 m 0 10 l 5 -5 m 31 0 a 12 12 0 0 1 12 12 v 0 a 12 12 0 0 0 12 12 h -24"/>
<a class="link" xlink:href="#String">
<g class="symbol">
<rect height="22" width="68" x="454" y="858"/>
<text x="488" y="874">
String</text>
</g>
</a>
</g>
<path d=" M 358 869 h 10"/>
<path d=" M 420 869 h 10"/>
</g>
<path d=" M 202 869 a 12 12 0 0 1 12 12 v 9 m 840 0 v -9 a 12 12 0 0 1 12 -12"/>
<path d=" M 214 890 v 24 a 12 12 0 0 0 12 12 m 816 0 h 0 a 12 12 0 0 0 12 -12 v -24"/>
<g class="sequence">
<g class="string">
<rect height="22" rx="10" ry="10" width="28" x="226" y="915"/>
<text x="240" y="931">
(</text>
</g>
<g class="character">
<rect height="22" rx="10" ry="10" width="52" x="264" y="915"/>
<text x="290" y="931">
HIDE</text>
</g>
<g class="optional">
<path d=" M 326 926 h 24 m -24 0 a 12 12 0 0 0 12 -12 v -12 a 12 12 0 0 1 12 -12 h 568 m -281 0 l -5 -5 m 0 10 l 5 -5 m 281 0 a 12 12 0 0 1 12 12 v 12 a 12 12 0 0 0 12 12 h -24"/>
<g class="sequence">
<a class="link" xlink:href="#String">
<g class="symbol">
<rect height="22" width="68" x="350" y="915"/>
<text x="384" y="931">
String</text>
</g>
</a>
<g class="character">
<rect height="22" rx="10" ry="10" width="52" x="428" y="915"/>
<text x="454" y="931">
HIDE</text>
</g>
<g class="optional">
<path d=" M 490 926 h 24 m -24 0 a 12 12 0 0 0 12 -12 v 0 a 12 12 0 0 1 12 -12 h 200 m -97 0 l -5 -5 m 0 10 l 5 -5 m 97 0 a 12 12 0 0 1 12 12 v 0 a 12 12 0 0 0 12 12 h -24"/>
<g class="sequence">
<a class="link" xlink:href="#COMMA">
<g class="symbol">
<rect height="22" width="60" x="514" y="915"/>
<text x="544" y="931">
COMMA</text>
</g>
</a>
<g class="character">
<rect height="22" rx="10" ry="10" width="52" x="584" y="915"/>
<text x="610" y="931">
HIDE</text>
</g>
<a class="link" xlink:href="#String">
<g class="symbol">
<rect height="22" width="68" x="646" y="915"/>
<text x="680" y="931">
String</text>
</g>
</a>
<path d=" M 574 926 h 10"/>
<path d=" M 636 926 h 10"/>
</g>
</g>
<g class="character">
<rect height="22" rx="10" ry="10" width="52" x="748" y="915"/>
<text x="774" y="931">
HIDE</text>
</g>
<g class="optional">
<path d=" M 810 926 h 24 m -24 0 a 12 12 0 0 0 12 -12 v 0 a 12 12 0 0 1 12 -12 h 60 m -27 0 l -5 -5 m 0 10 l 5 -5 m 27 0 a 12 12 0 0 1 12 12 v 0 a 12 12 0 0 0 12 12 h -24"/>
<a class="link" xlink:href="#COMMA">
<g class="symbol">
<rect height="22" width="60" x="834" y="915"/>
<text x="864" y="931">
COMMA</text>
</g>
</a>
</g>
<path d=" M 418 926 h 10"/>
<path d=" M 480 926 h 10"/>
<path d=" M 738 926 h 10"/>
<path d=" M 800 926 h 10"/>
</g>
</g>
<g class="character">
<rect height="22" rx="10" ry="10" width="52" x="952" y="915"/>
<text x="978" y="931">
HIDE</text>
</g>
<g class="string">
<rect height="22" rx="10" ry="10" width="28" x="1014" y="915"/>
<text x="1028" y="931">
)</text>
</g>
<path d=" M 254 926 h 10"/>
<path d=" M 316 926 h 10"/>
<path d=" M 942 926 h 10"/>
<path d=" M 1004 926 h 10"/>
</g>
</g>
<path d=" M 1076 869 h 5 a 5 5 0 0 1 5 -5 a 5 5 0 0 1 5 5 a 5 5 0 0 1 -5 5 a 5 5 0 0 1 -5 -5"/>
<path d=" M 25 869 h 10"/>
<path d=" M 192 869 h 10"/>
<path d=" M 1066 869 h 10"/>
</g>
<g class="sequence">
<path d=" M 10 960 a 5 5 0 0 1 5 -5 a 5 5 0 0 1 5 5 a 5 5 0 0 1 -5 5 a 5 5 0 0 1 -5 -5 m 10 0 h 5"/>
<text class="comment" id="RequirementStatement" x="113" y="965">
RequirementStatement</text>
<g class="sequence">
<a class="link" xlink:href="#KW_REQUIREMENT">
<g class="symbol">
<rect height="22" width="132" x="202" y="949"/>
<text x="268" y="965">
KW_REQUIREMENT</text>
</g>
</a>
<g class="character">
<rect height="22" rx="10" ry="10" width="52" x="344" y="949"/>
<text x="370" y="965">
HIDE</text>
</g>
<g class="string">
<rect height="22" rx="10" ry="10" width="28" x="406" y="949"/>
<text x="420" y="965">
{</text>
</g>
<g class="character">
<rect height="22" rx="10" ry="10" width="52" x="444" y="949"/>
<text x="470" y="965">
HIDE</text>
</g>
<g class="string">
<rect height="22" rx="10" ry="10" width="28" x="506" y="949"/>
<text x="520" y="965">
}</text>
</g>
<path d=" M 334 960 h 10"/>
<path d=" M 396 960 h 10"/>
<path d=" M 434 960 h 10"/>
<path d=" M 496 960 h 10"/>
</g>
<path d=" M 544 960 h 5 a 5 5 0 0 1 5 -5 a 5 5 0 0 1 5 5 a 5 5 0 0 1 -5 5 a 5 5 0 0 1 -5 -5"/>
<path d=" M 25 960 h 10"/>
<path d=" M 192 960 h 10"/>
<path d=" M 534 960 h 10"/>
</g>
<g class="sequence">
<path d=" M 10 994 a 5 5 0 0 1 5 -5 a 5 5 0 0 1 5 5 a 5 5 0 0 1 -5 5 a 5 5 0 0 1 -5 -5 m 10 0 h 5"/>
<text class="comment" id="Expression" x="75" y="999">
Expression</text>
<a class="link" xlink:href="#Atomic">
<g class="symbol">
<rect height="22" width="68" x="125" y="983"/>
<text x="159" y="999">
Atomic</text>
</g>
</a>
<path d=" M 203 994 h 5 a 5 5 0 0 1 5 -5 a 5 5 0 0 1 5 5 a 5 5 0 0 1 -5 5 a 5 5 0 0 1 -5 -5"/>
<path d=" M 25 994 h 10"/>
<path d=" M 115 994 h 10"/>
<path d=" M 193 994 h 10"/>
</g>
<g class="sequence">
<path d=" M 10 1028 a 5 5 0 0 1 5 -5 a 5 5 0 0 1 5 5 a 5 5 0 0 1 -5 5 a 5 5 0 0 1 -5 -5 m 10 0 h 5"/>
<text class="comment" id="Atomic" x="61" y="1033">
Atomic</text>
<g class="choice">
<path d=" M 97 1028 h 24 m 100 0 h 40"/>
<a class="link" xlink:href="#Identifier">
<g class="symbol">
<rect height="22" width="100" x="121" y="1017"/>
<text x="171" y="1033">
Identifier</text>
</g>
</a>
<path d=" M 97 1028 a 12 12 0 0 1 12 12 v 9 m 140 0 v -9 a 12 12 0 0 1 12 -12"/>
<path d=" M 109 1049 v 33 m 140 0 v -33"/>
<path d=" M 109 1082 v 33 m 140 0 v -33"/>
<path d=" M 109 1115 v 33 m 140 0 v -33"/>
<path d=" M 109 1148 v 33 m 140 0 v -33"/>
<path d=" M 109 1181 v 33 m 140 0 v -33"/>
<path d=" M 109 1049 v 0 a 12 12 0 0 0 12 12 m 76 0 h 40 a 12 12 0 0 0 12 -12 v 0"/>
<a class="link" xlink:href="#Integer">
<g class="symbol">
<rect height="22" width="76" x="121" y="1050"/>
<text x="159" y="1066">
Integer</text>
</g>
</a>
<path d=" M 109 1082 v 0 a 12 12 0 0 0 12 12 m 92 0 h 24 a 12 12 0 0 0 12 -12 v 0"/>
<a class="link" xlink:href="#StringRaw">
<g class="symbol">
<rect height="22" width="92" x="121" y="1083"/>
<text x="167" y="1099">
StringRaw</text>
</g>
</a>
<path d=" M 109 1115 v 0 a 12 12 0 0 0 12 12 m 116 0 h 0 a 12 12 0 0 0 12 -12 v 0"/>
<a class="link" xlink:href="#StringNormal">
<g class="symbol">
<rect height="22" width="116" x="121" y="1116"/>
<text x="179" y="1132">
StringNormal</text>
</g>
</a>
<path d=" M 109 1148 v 0 a 12 12 0 0 0 12 12 m 76 0 h 40 a 12 12 0 0 0 12 -12 v 0"/>
<a class="link" xlink:href="#Boolean">
<g class="symbol">
<rect height="22" width="76" x="121" y="1149"/>
<text x="159" y="1165">
Boolean</text>
</g>
</a>
<path d=" M 109 1181 v 0 a 12 12 0 0 0 12 12 m 100 0 h 16 a 12 12 0 0 0 12 -12 v 0"/>
<a class="link" xlink:href="#RangeExact">
<g class="symbol">
<rect height="22" width="100" x="121" y="1182"/>
<text x="171" y="1198">
RangeExact</text>
</g>
</a>
<path d=" M 109 1214 v 0 a 12 12 0 0 0 12 12 m 60 0 h 56 m -25 0 l -5 -5 m 0 10 l 5 -5 m 25 0 a 12 12 0 0 0 12 -12 v 0"/>
<a class="link" xlink:href="#Range">
<g class="symbol">
<rect height="22" width="60" x="121" y="1215"/>
<text x="151" y="1231">
Range</text>
</g>
</a>
</g>
<path d=" M 271 1028 h 5 a 5 5 0 0 1 5 -5 a 5 5 0 0 1 5 5 a 5 5 0 0 1 -5 5 a 5 5 0 0 1 -5 -5"/>
<path d=" M 25 1028 h 10"/>
<path d=" M 87 1028 h 10"/>
<path d=" M 261 1028 h 10"/>
</g>
<g class="sequence">
<path d=" M 10 1260 a 5 5 0 0 1 5 -5 a 5 5 0 0 1 5 5 a 5 5 0 0 1 -5 5 a 5 5 0 0 1 -5 -5 m 10 0 h 5"/>
<text class="comment" id="Prefix" x="61" y="1265">
Prefix</text>
<g class="choice">
<path d=" M 97 1260 h 0 m 92 0 h 0"/>
<g class="string">
<rect height="22" rx="10" ry="10" width="92" x="97" y="1249"/>
<text x="143" y="1265">
不是|非|!</text>
</g>
</g>
<path d=" M 199 1260 h 5 a 5 5 0 0 1 5 -5 a 5 5 0 0 1 5 5 a 5 5 0 0 1 -5 5 a 5 5 0 0 1 -5 -5"/>
<path d=" M 25 1260 h 10"/>
<path d=" M 87 1260 h 10"/>
<path d=" M 189 1260 h 10"/>
</g>
<g class="sequence">
<path d=" M 10 1294 a 5 5 0 0 1 5 -5 a 5 5 0 0 1 5 5 a 5 5 0 0 1 -5 5 a 5 5 0 0 1 -5 -5 m 10 0 h 5"/>
<text class="comment" id="Infix" x="57" y="1299">
Infix</text>
<g class="choice">
<path d=" M 90 1294 h 24 m 68 0 h 64 m -29 0 l -5 -5 m 0 10 l 5 -5 m 29 0"/>
<g class="string">
<rect height="22" rx="10" ry="10" width="68" x="114" y="1283"/>
<text x="148" y="1299">
大于|&gt;</text>
</g>
<path d=" M 90 1294 a 12 12 0 0 1 12 12 v 9 m 132 0 v -9 a 12 12 0 0 1 12 -12"/>
<path d=" M 102 1315 v 33 m 132 0 v -33"/>
<path d=" M 102 1348 v 33 m 132 0 v -33"/>
<path d=" M 102 1381 v 33 m 132 0 v -33"/>
<path d=" M 102 1414 v 33 m 132 0 v -33"/>
<path d=" M 102 1447 v 33 m 132 0 v -33"/>
<path d=" M 102 1480 v 33 m 132 0 v -33"/>
<path d=" M 102 1315 v 0 a 12 12 0 0 0 12 12 m 108 0 h 0 a 12 12 0 0 0 12 -12 v 0"/>
<g class="string">
<rect height="22" rx="10" ry="10" width="108" x="114" y="1316"/>
<text x="168" y="1332">
大于等于|&gt;=</text>
</g>
<path d=" M 102 1348 v 0 a 12 12 0 0 0 12 12 m 68 0 h 40 a 12 12 0 0 0 12 -12 v 0"/>
<g class="string">
<rect height="22" rx="10" ry="10" width="68" x="114" y="1349"/>
<text x="148" y="1365">
小于|&lt;</text>
</g>
<path d=" M 102 1381 v 0 a 12 12 0 0 0 12 12 m 108 0 h 0 a 12 12 0 0 0 12 -12 v 0"/>
<g class="string">
<rect height="22" rx="10" ry="10" width="108" x="114" y="1382"/>
<text x="168" y="1398">
小于等于|&lt;=</text>
</g>
<path d=" M 102 1414 v 0 a 12 12 0 0 0 12 12 m 100 0 h 8 a 12 12 0 0 0 12 -12 v 0"/>
<g class="string">
<rect height="22" rx="10" ry="10" width="100" x="114" y="1415"/>
<text x="164" y="1431">
为|等于|==</text>
</g>
<path d=" M 102 1447 v 0 a 12 12 0 0 0 12 12 m 92 0 h 16 a 12 12 0 0 0 12 -12 v 0"/>
<g class="string">
<rect height="22" rx="10" ry="10" width="92" x="114" y="1448"/>
<text x="160" y="1464">
不等于|!=</text>
</g>
<path d=" M 102 1480 v 0 a 12 12 0 0 0 12 12 m 60 0 h 48 a 12 12 0 0 0 12 -12 v 0"/>
<g class="string">
<rect height="22" rx="10" ry="10" width="60" x="114" y="1481"/>
<text x="144" y="1497">
&amp;&amp;|且</text>
</g>
<path d=" M 102 1513 v 0 a 12 12 0 0 0 12 12 m 76 0 h 32 a 12 12 0 0 0 12 -12 v 0"/>
<g class="string">
<rect height="22" rx="10" ry="10" width="76" x="114" y="1514"/>
<text x="152" y="1530">
\|\||或</text>
</g>
</g>
<path d=" M 256 1294 h 5 a 5 5 0 0 1 5 -5 a 5 5 0 0 1 5 5 a 5 5 0 0 1 -5 5 a 5 5 0 0 1 -5 -5"/>
<path d=" M 25 1294 h 10"/>
<path d=" M 80 1294 h 10"/>
<path d=" M 246 1294 h 10"/>
</g>
<g class="sequence">
<path d=" M 10 1559 a 5 5 0 0 1 5 -5 a 5 5 0 0 1 5 5 a 5 5 0 0 1 -5 5 a 5 5 0 0 1 -5 -5 m 10 0 h 5"/>
<text class="comment" id="String" x="61" y="1564">
String</text>
<g class="choice">
<path d=" M 97 1559 h 0 m 92 0 h 0"/>
<a class="link" xlink:href="#StringRaw">
<g class="symbol">
<rect height="22" width="92" x="97" y="1548"/>
<text x="143" y="1564">
StringRaw</text>
</g>
</a>
</g>
<path d=" M 199 1559 h 5 a 5 5 0 0 1 5 -5 a 5 5 0 0 1 5 5 a 5 5 0 0 1 -5 5 a 5 5 0 0 1 -5 -5"/>
<path d=" M 25 1559 h 10"/>
<path d=" M 87 1559 h 10"/>
<path d=" M 189 1559 h 10"/>
</g>
<g class="sequence">
<path d=" M 10 1593 a 5 5 0 0 1 5 -5 a 5 5 0 0 1 5 5 a 5 5 0 0 1 -5 5 a 5 5 0 0 1 -5 -5 m 10 0 h 5"/>
<text class="comment" id="StringRaw" x="71" y="1598">
StringRaw</text>
<g class="sequence">
<g class="string">
<rect height="22" rx="10" ry="10" width="28" x="118" y="1582"/>
<text x="132" y="1598">
&#x27;</text>
</g>
<a class="link" xlink:href="#StringRawText">
<g class="symbol">
<rect height="22" width="124" x="156" y="1582"/>
<text x="218" y="1598">
StringRawText</text>
</g>
</a>
<g class="string">
<rect height="22" rx="10" ry="10" width="28" x="290" y="1582"/>
<text x="304" y="1598">
&#x27;</text>
</g>
<path d=" M 146 1593 h 10"/>
<path d=" M 280 1593 h 10"/>
</g>
<path d=" M 328 1593 h 5 a 5 5 0 0 1 5 -5 a 5 5 0 0 1 5 5 a 5 5 0 0 1 -5 5 a 5 5 0 0 1 -5 -5"/>
<path d=" M 25 1593 h 10"/>
<path d=" M 108 1593 h 10"/>
<path d=" M 318 1593 h 10"/>
</g>
<g class="sequence">
<path d=" M 10 1627 a 5 5 0 0 1 5 -5 a 5 5 0 0 1 5 5 a 5 5 0 0 1 -5 5 a 5 5 0 0 1 -5 -5 m 10 0 h 5"/>
<text class="comment" id="StringRawText" x="85" y="1632">
StringRawText</text>
<g class="string">
<rect height="22" rx="10" ry="10" width="60" x="146" y="1616"/>
<text x="176" y="1632">
[^&#x27;]*</text>
</g>
<path d=" M 216 1627 h 5 a 5 5 0 0 1 5 -5 a 5 5 0 0 1 5 5 a 5 5 0 0 1 -5 5 a 5 5 0 0 1 -5 -5"/>
<path d=" M 25 1627 h 10"/>
<path d=" M 136 1627 h 10"/>
<path d=" M 206 1627 h 10"/>
</g>
<g class="sequence">
<path d=" M 10 1661 a 5 5 0 0 1 5 -5 a 5 5 0 0 1 5 5 a 5 5 0 0 1 -5 5 a 5 5 0 0 1 -5 -5 m 10 0 h 5"/>
<text class="comment" id="StringNormal" x="82" y="1666">
StringNormal</text>
<g class="sequence">
<g class="string">
<rect height="22" rx="10" ry="10" width="28" x="139" y="1650"/>
<text x="153" y="1666">
&quot;</text>
</g>
<g class="repeat">
<path d=" M 177 1661 h 12 m 100 0 h 12 m -12 0 a 12 12 0 0 1 12 12 v 7 a 12 12 0 0 1 -12 12 m -52 0 h -48 a 12 12 0 0 1 -12 -12 v -7 a 12 12 0 0 1 12 -12"/>
<text class="comment" x="263" y="1697">
[0, ∞]</text>
<a class="link" xlink:href="#StringItem">
<g class="symbol">
<rect height="22" width="100" x="189" y="1650"/>
<text x="239" y="1666">
StringItem</text>
</g>
</a>
</g>
<g class="string">
<rect height="22" rx="10" ry="10" width="28" x="311" y="1650"/>
<text x="325" y="1666">
&quot;</text>
</g>
<path d=" M 167 1661 h 10"/>
<path d=" M 301 1661 h 10"/>
</g>
<path d=" M 349 1661 h 5 a 5 5 0 0 1 5 -5 a 5 5 0 0 1 5 5 a 5 5 0 0 1 -5 5 a 5 5 0 0 1 -5 -5"/>
<path d=" M 25 1661 h 10"/>
<path d=" M 129 1661 h 10"/>
<path d=" M 339 1661 h 10"/>
</g>
<g class="sequence">
<path d=" M 10 1725 a 5 5 0 0 1 5 -5 a 5 5 0 0 1 5 5 a 5 5 0 0 1 -5 5 a 5 5 0 0 1 -5 -5 m 10 0 h 5"/>
<text class="comment" id="StringItem" x="75" y="1730">
StringItem</text>
<g class="choice">
<path d=" M 125 1725 h 24 m 132 0 h 40"/>
<a class="link" xlink:href="#EscapedUnicode">
<g class="symbol">
<rect height="22" width="132" x="149" y="1714"/>
<text x="215" y="1730">
EscapedUnicode</text>
</g>
</a>
<path d=" M 125 1725 a 12 12 0 0 1 12 12 v 9 m 172 0 v -9 a 12 12 0 0 1 12 -12"/>
<path d=" M 137 1746 v 33 m 172 0 v -33"/>
<path d=" M 137 1746 v 0 a 12 12 0 0 0 12 12 m 148 0 h 0 a 12 12 0 0 0 12 -12 v 0"/>
<a class="link" xlink:href="#EscapedCharacter">
<g class="symbol">
<rect height="22" width="148" x="149" y="1747"/>
<text x="223" y="1763">
EscapedCharacter</text>
</g>
</a>
<path d=" M 137 1779 v 0 a 12 12 0 0 0 12 12 m 76 0 h 72 m -33 0 l -5 -5 m 0 10 l 5 -5 m 33 0 a 12 12 0 0 0 12 -12 v 0"/>
<a class="link" xlink:href="#TextAny">
<g class="symbol">
<rect height="22" width="76" x="149" y="1780"/>
<text x="187" y="1796">
TextAny</text>
</g>
</a>
</g>
<path d=" M 331 1725 h 5 a 5 5 0 0 1 5 -5 a 5 5 0 0 1 5 5 a 5 5 0 0 1 -5 5 a 5 5 0 0 1 -5 -5"/>
<path d=" M 25 1725 h 10"/>
<path d=" M 115 1725 h 10"/>
<path d=" M 321 1725 h 10"/>
</g>
<g class="sequence">
<path d=" M 10 1825 a 5 5 0 0 1 5 -5 a 5 5 0 0 1 5 5 a 5 5 0 0 1 -5 5 a 5 5 0 0 1 -5 -5 m 10 0 h 5"/>
<text class="comment" id="EscapedUnicode" x="89" y="1830">
EscapedUnicode</text>
<g class="sequence">
<g class="string">
<rect height="22" rx="10" ry="10" width="44" x="153" y="1814"/>
<text x="175" y="1830">
\u{</text>
</g>
<a class="link" xlink:href="#HEX">
<g class="symbol">
<rect height="22" width="44" x="207" y="1814"/>
<text x="229" y="1830">
HEX</text>
</g>
</a>
<g class="string">
<rect height="22" rx="10" ry="10" width="28" x="261" y="1814"/>
<text x="275" y="1830">
}</text>
</g>
<path d=" M 197 1825 h 10"/>
<path d=" M 251 1825 h 10"/>
</g>
<path d=" M 299 1825 h 5 a 5 5 0 0 1 5 -5 a 5 5 0 0 1 5 5 a 5 5 0 0 1 -5 5 a 5 5 0 0 1 -5 -5"/>
<path d=" M 25 1825 h 10"/>
<path d=" M 143 1825 h 10"/>
<path d=" M 289 1825 h 10"/>
</g>
<g class="sequence">
<path d=" M 10 1859 a 5 5 0 0 1 5 -5 a 5 5 0 0 1 5 5 a 5 5 0 0 1 -5 5 a 5 5 0 0 1 -5 -5 m 10 0 h 5"/>
<text class="comment" id="EscapedCharacter" x="96" y="1864">
EscapedCharacter</text>
<g class="string">
<rect height="22" rx="10" ry="10" width="44" x="167" y="1848"/>
<text x="189" y="1864">
\\.</text>
</g>
<path d=" M 221 1859 h 5 a 5 5 0 0 1 5 -5 a 5 5 0 0 1 5 5 a 5 5 0 0 1 -5 5 a 5 5 0 0 1 -5 -5"/>
<path d=" M 25 1859 h 10"/>
<path d=" M 157 1859 h 10"/>
<path d=" M 211 1859 h 10"/>
</g>
<g class="sequence">
<path d=" M 10 1893 a 5 5 0 0 1 5 -5 a 5 5 0 0 1 5 5 a 5 5 0 0 1 -5 5 a 5 5 0 0 1 -5 -5 m 10 0 h 5"/>
<text class="comment" id="HEX" x="50" y="1898">
HEX</text>
<g class="repeat">
<path d=" M 76 1893 h 12 m 170 0 h 12 m -12 0 a 12 12 0 0 1 12 12 v 7 a 12 12 0 0 1 -12 12 m -52 0 h -118 m 62 0 l 5 -5 m 0 10 l -5 -5 m -62 0 a 12 12 0 0 1 -12 -12 v -7 a 12 12 0 0 1 12 -12"/>
<text class="comment" x="232" y="1929">
[1, 6]</text>
<g class="sequence">
<g class="character">
<rect height="22" rx="10" ry="10" width="52" x="88" y="1882"/>
<text x="114" y="1898">
HIDE</text>
</g>
<g class="string">
<rect height="22" rx="10" ry="10" width="108" x="150" y="1882"/>
<text x="204" y="1898">
[0-9a-fA-F]</text>
</g>
<path d=" M 140 1893 h 10"/>
</g>
</g>
<path d=" M 280 1893 h 5 a 5 5 0 0 1 5 -5 a 5 5 0 0 1 5 5 a 5 5 0 0 1 -5 5 a 5 5 0 0 1 -5 -5"/>
<path d=" M 25 1893 h 10"/>
<path d=" M 66 1893 h 10"/>
<path d=" M 270 1893 h 10"/>
</g>
<g class="sequence">
<path d=" M 10 1957 a 5 5 0 0 1 5 -5 a 5 5 0 0 1 5 5 a 5 5 0 0 1 -5 5 a 5 5 0 0 1 -5 -5 m 10 0 h 5"/>
<text class="comment" id="TextAny" x="64" y="1962">
TextAny</text>
<g class="string">
<rect height="22" rx="10" ry="10" width="76" x="104" y="1946"/>
<text x="142" y="1962">
[^&quot;\\]+</text>
</g>
<path d=" M 190 1957 h 5 a 5 5 0 0 1 5 -5 a 5 5 0 0 1 5 5 a 5 5 0 0 1 -5 5 a 5 5 0 0 1 -5 -5"/>
<path d=" M 25 1957 h 10"/>
<path d=" M 94 1957 h 10"/>
<path d=" M 180 1957 h 10"/>
</g>
<g class="sequence">
<path d=" M 10 1991 a 5 5 0 0 1 5 -5 a 5 5 0 0 1 5 5 a 5 5 0 0 1 -5 5 a 5 5 0 0 1 -5 -5 m 10 0 h 5"/>
<text class="comment" id="Identifier" x="75" y="1996">
Identifier</text>
<g class="string">
<rect height="22" rx="10" ry="10" width="292" x="125" y="1980"/>
<text x="271" y="1996">
[_\p{XID_start}]\p{XID_continue}*</text>
</g>
<path d=" M 427 1991 h 5 a 5 5 0 0 1 5 -5 a 5 5 0 0 1 5 5 a 5 5 0 0 1 -5 5 a 5 5 0 0 1 -5 -5"/>
<path d=" M 25 1991 h 10"/>
<path d=" M 115 1991 h 10"/>
<path d=" M 417 1991 h 10"/>
</g>
<g class="sequence">
<path d=" M 10 2025 a 5 5 0 0 1 5 -5 a 5 5 0 0 1 5 5 a 5 5 0 0 1 -5 5 a 5 5 0 0 1 -5 -5 m 10 0 h 5"/>
<text class="comment" id="Integer" x="64" y="2030">
Integer</text>
<g class="string">
<rect height="22" rx="10" ry="10" width="124" x="104" y="2014"/>
<text x="166" y="2030">
0|[1-9][0-9]*</text>
</g>
<path d=" M 238 2025 h 5 a 5 5 0 0 1 5 -5 a 5 5 0 0 1 5 5 a 5 5 0 0 1 -5 5 a 5 5 0 0 1 -5 -5"/>
<path d=" M 25 2025 h 10"/>
<path d=" M 94 2025 h 10"/>
<path d=" M 228 2025 h 10"/>
</g>
<g class="sequence">
<path d=" M 10 2059 a 5 5 0 0 1 5 -5 a 5 5 0 0 1 5 5 a 5 5 0 0 1 -5 5 a 5 5 0 0 1 -5 -5 m 10 0 h 5"/>
<text class="comment" id="RangeExact" x="75" y="2064">
RangeExact</text>
<g class="sequence">
<g class="string">
<rect height="22" rx="10" ry="10" width="28" x="125" y="2048"/>
<text x="139" y="2064">
{</text>
</g>
<g class="character">
<rect height="22" rx="10" ry="10" width="52" x="163" y="2048"/>
<text x="189" y="2064">
HIDE</text>
</g>
<a class="link" xlink:href="#Integer">
<g class="symbol">
<rect height="22" width="76" x="225" y="2048"/>
<text x="263" y="2064">
Integer</text>
</g>
</a>
<g class="character">
<rect height="22" rx="10" ry="10" width="52" x="311" y="2048"/>
<text x="337" y="2064">
HIDE</text>
</g>
<g class="string">
<rect height="22" rx="10" ry="10" width="28" x="373" y="2048"/>
<text x="387" y="2064">
}</text>
</g>
<path d=" M 153 2059 h 10"/>
<path d=" M 215 2059 h 10"/>
<path d=" M 301 2059 h 10"/>
<path d=" M 363 2059 h 10"/>
</g>
<path d=" M 411 2059 h 5 a 5 5 0 0 1 5 -5 a 5 5 0 0 1 5 5 a 5 5 0 0 1 -5 5 a 5 5 0 0 1 -5 -5"/>
<path d=" M 25 2059 h 10"/>
<path d=" M 115 2059 h 10"/>
<path d=" M 401 2059 h 10"/>
</g>
<g class="sequence">
<path d=" M 10 2106 a 5 5 0 0 1 5 -5 a 5 5 0 0 1 5 5 a 5 5 0 0 1 -5 5 a 5 5 0 0 1 -5 -5 m 10 0 h 5"/>
<text class="comment" id="Range" x="57" y="2111">
Range</text>
<g class="sequence">
<g class="string">
<rect height="22" rx="10" ry="10" width="28" x="90" y="2095"/>
<text x="104" y="2111">
{</text>
</g>
<g class="character">
<rect height="22" rx="10" ry="10" width="52" x="128" y="2095"/>
<text x="154" y="2111">
HIDE</text>
</g>
<g class="optional">
<path d=" M 190 2106 h 24 m -24 0 a 12 12 0 0 0 12 -12 v 0 a 12 12 0 0 1 12 -12 h 76 m -35 0 l -5 -5 m 0 10 l 5 -5 m 35 0 a 12 12 0 0 1 12 12 v 0 a 12 12 0 0 0 12 12 h -24"/>
<a class="link" xlink:href="#Integer">
<g class="symbol">
<rect height="22" width="76" x="214" y="2095"/>
<text x="252" y="2111">
Integer</text>
</g>
</a>
</g>
<g class="character">
<rect height="22" rx="10" ry="10" width="52" x="324" y="2095"/>
<text x="350" y="2111">
HIDE</text>
</g>
<g class="string">
<rect height="22" rx="10" ry="10" width="28" x="386" y="2095"/>
<text x="400" y="2111">
,</text>
</g>
<g class="character">
<rect height="22" rx="10" ry="10" width="52" x="424" y="2095"/>
<text x="450" y="2111">
HIDE</text>
</g>
<g class="optional">
<path d=" M 486 2106 h 24 m -24 0 a 12 12 0 0 0 12 -12 v 0 a 12 12 0 0 1 12 -12 h 76 m -35 0 l -5 -5 m 0 10 l 5 -5 m 35 0 a 12 12 0 0 1 12 12 v 0 a 12 12 0 0 0 12 12 h -24"/>
<a class="link" xlink:href="#Integer">
<g class="symbol">
<rect height="22" width="76" x="510" y="2095"/>
<text x="548" y="2111">
Integer</text>
</g>
</a>
</g>
<g class="character">
<rect height="22" rx="10" ry="10" width="52" x="620" y="2095"/>
<text x="646" y="2111">
HIDE</text>
</g>
<g class="string">
<rect height="22" rx="10" ry="10" width="28" x="682" y="2095"/>
<text x="696" y="2111">
}</text>
</g>
<path d=" M 118 2106 h 10"/>
<path d=" M 180 2106 h 10"/>
<path d=" M 314 2106 h 10"/>
<path d=" M 376 2106 h 10"/>
<path d=" M 414 2106 h 10"/>
<path d=" M 476 2106 h 10"/>
<path d=" M 610 2106 h 10"/>
<path d=" M 672 2106 h 10"/>
</g>
<path d=" M 720 2106 h 5 a 5 5 0 0 1 5 -5 a 5 5 0 0 1 5 5 a 5 5 0 0 1 -5 5 a 5 5 0 0 1 -5 -5"/>
<path d=" M 25 2106 h 10"/>
<path d=" M 80 2106 h 10"/>
<path d=" M 710 2106 h 10"/>
</g>
<g class="sequence">
<path d=" M 10 2140 a 5 5 0 0 1 5 -5 a 5 5 0 0 1 5 5 a 5 5 0 0 1 -5 5 a 5 5 0 0 1 -5 -5 m 10 0 h 5"/>
<text class="comment" id="Boolean" x="64" y="2145">
Boolean</text>
<g class="choice">
<path d=" M 104 2140 h 24 m 76 0 h 32"/>
<g class="string">
<rect height="22" rx="10" ry="10" width="76" x="128" y="2129"/>
<text x="166" y="2145">
真|true</text>
</g>
<path d=" M 104 2140 a 12 12 0 0 1 12 12 v 9 m 108 0 v -9 a 12 12 0 0 1 12 -12"/>
<path d=" M 116 2161 v 0 a 12 12 0 0 0 12 12 m 84 0 h 0 a 12 12 0 0 0 12 -12 v 0"/>
<g class="string">
<rect height="22" rx="10" ry="10" width="84" x="128" y="2162"/>
<text x="170" y="2178">
假|false</text>
</g>
</g>
<path d=" M 246 2140 h 5 a 5 5 0 0 1 5 -5 a 5 5 0 0 1 5 5 a 5 5 0 0 1 -5 5 a 5 5 0 0 1 -5 -5"/>
<path d=" M 25 2140 h 10"/>
<path d=" M 94 2140 h 10"/>
<path d=" M 236 2140 h 10"/>
</g>
</g>
</svg>