<svg class="railroad" viewBox="0 0 1322 2070" xmlns="http://www.w3.org/2000/svg" xmlns:xlink="http://www.w3.org/1999/xlink">
<style type="text/css">svg.railroad{background-color:hsl(30,20%,95%);background-size:15px 15px;background-image:linear-gradient(to right,rgba(30,30,30,.05) 1px,transparent 1px),linear-gradient(to bottom,rgba(30,30,30,.05) 1px,transparent 1px);}svg.railroad path{stroke-width:3px;stroke:black;fill:transparent;}svg.railroad .debug{stroke-width:1px;stroke:red;}svg.railroad text{font-size:14px;font-family:monospace;text-anchor:middle;}svg.railroad .nonterminal text{font-weight:bold;}svg.railroad text.comment{font-family:serif;font-style:italic;font-size:12px;}svg.railroad rect{stroke-width:3px;stroke:black;}svg.railroad g.labeledbox>rect{stroke-width:1px;stroke:grey;stroke-dasharray:5px;fill:rgba(90,90,150,.1);}svg.railroad .symbol>rect{fill:rgba(90,90,150,.1);}svg.railroad .regex>rect{fill:honeydew;}svg.railroad .string>rect{fill:cornsilk;}svg.railroad .character>rect{fill:lightcoral;}</style>
<g class="verticalgrid">
<g class="sequence">
<path d=" M 10 21 a 5 5 0 0 1 5 -5 a 5 5 0 0 1 5 5 a 5 5 0 0 1 -5 5 a 5 5 0 0 1 -5 -5 m 10 0 h 5"/>
<text class="comment" id="Root" x="54" y="26">
Root</text>
<g class="sequence">
<g class="repeat">
<path d=" M 83 21 h 12 m 154 0 h 12 m -12 0 a 12 12 0 0 1 12 12 v 7 a 12 12 0 0 1 -12 12 m -52 0 h -102 m 54 0 l 5 -5 m 0 10 l -5 -5 m -54 0 a 12 12 0 0 1 -12 -12 v -7 a 12 12 0 0 1 12 -12"/>
<text class="comment" x="223" y="57">
[0, ∞]</text>
<g class="sequence">
<g class="character">
<rect height="22" rx="10" ry="10" width="52" x="95" y="10"/>
<text x="121" y="26">
HIDE</text>
</g>
<a class="link" xlink:href="#Statement">
<g class="symbol">
<rect height="22" width="92" x="157" y="10"/>
<text x="203" y="26">
Statement</text>
</g>
</a>
<path d=" M 147 21 h 10"/>
</g>
</g>
<g class="character">
<rect height="22" rx="10" ry="10" width="52" x="271" y="10"/>
<text x="297" y="26">
HIDE</text>
</g>
<g class="character">
<rect height="22" rx="10" ry="10" width="116" x="333" y="10"/>
<text x="391" y="26">
END_OF_INPUT</text>
</g>
<path d=" M 261 21 h 10"/>
<path d=" M 323 21 h 10"/>
</g>
<path d=" M 459 21 h 5 a 5 5 0 0 1 5 -5 a 5 5 0 0 1 5 5 a 5 5 0 0 1 -5 5 a 5 5 0 0 1 -5 -5"/>
<path d=" M 25 21 h 10"/>
<path d=" M 73 21 h 10"/>
<path d=" M 449 21 h 10"/>
</g>
<g class="sequence">
<path d=" M 10 85 a 5 5 0 0 1 5 -5 a 5 5 0 0 1 5 5 a 5 5 0 0 1 -5 5 a 5 5 0 0 1 -5 -5 m 10 0 h 5"/>
<text class="comment" id="Statement" x="71" y="90">
Statement</text>
<g class="choice">
<path d=" M 118 85 h 24 m 156 0 h 24"/>
<a class="link" xlink:href="#PropertyStatement">
<g class="symbol">
<rect height="22" width="156" x="142" y="74"/>
<text x="220" y="90">
PropertyStatement</text>
</g>
</a>
<path d=" M 118 85 a 12 12 0 0 1 12 12 v 9 m 180 0 v -9 a 12 12 0 0 1 12 -12"/>
<path d=" M 130 106 v 33 m 180 0 v -33"/>
<path d=" M 130 139 v 33 m 180 0 v -33"/>
<path d=" M 130 106 v 0 a 12 12 0 0 0 12 12 m 100 0 h 56 m -25 0 l -5 -5 m 0 10 l 5 -5 m 25 0 a 12 12 0 0 0 12 -12 v 0"/>
<a class="link" xlink:href="#TraitGroup">
<g class="symbol">
<rect height="22" width="100" x="142" y="107"/>
<text x="192" y="123">
TraitGroup</text>
</g>
</a>
<path d=" M 130 139 v 0 a 12 12 0 0 0 12 12 m 132 0 h 24 a 12 12 0 0 0 12 -12 v 0"/>
<a class="link" xlink:href="#TraitStatement">
<g class="symbol">
<rect height="22" width="132" x="142" y="140"/>
<text x="208" y="156">
TraitStatement</text>
</g>
</a>
<path d=" M 130 172 v 0 a 12 12 0 0 0 12 12 m 44 0 h 112 m -53 0 l -5 -5 m 0 10 l 5 -5 m 53 0 a 12 12 0 0 0 12 -12 v 0"/>
<a class="link" xlink:href="#EOS">
<g class="symbol">
<rect height="22" width="44" x="142" y="173"/>
<text x="164" y="189">
EOS</text>
</g>
</a>
</g>
<path d=" M 332 85 h 5 a 5 5 0 0 1 5 -5 a 5 5 0 0 1 5 5 a 5 5 0 0 1 -5 5 a 5 5 0 0 1 -5 -5"/>
<path d=" M 25 85 h 10"/>
<path d=" M 108 85 h 10"/>
<path d=" M 322 85 h 10"/>
</g>
<g class="sequence">
<path d=" M 10 218 a 5 5 0 0 1 5 -5 a 5 5 0 0 1 5 5 a 5 5 0 0 1 -5 5 a 5 5 0 0 1 -5 -5 m 10 0 h 5"/>
<text class="comment" id="EOS" x="50" y="223">
EOS</text>
<g class="string">
<rect height="22" rx="10" ry="10" width="28" x="76" y="207"/>
<text x="90" y="223">
;</text>
</g>
<path d=" M 114 218 h 5 a 5 5 0 0 1 5 -5 a 5 5 0 0 1 5 5 a 5 5 0 0 1 -5 5 a 5 5 0 0 1 -5 -5"/>
<path d=" M 25 218 h 10"/>
<path d=" M 66 218 h 10"/>
<path d=" M 104 218 h 10"/>
</g>
<g class="sequence">
<path d=" M 10 252 a 5 5 0 0 1 5 -5 a 5 5 0 0 1 5 5 a 5 5 0 0 1 -5 5 a 5 5 0 0 1 -5 -5 m 10 0 h 5"/>
<text class="comment" id="PropertyStatement" x="99" y="257">
PropertyStatement</text>
<g class="sequence">
<a class="link" xlink:href="#KW_PROPERTY">
<g class="symbol">
<rect height="22" width="108" x="174" y="241"/>
<text x="228" y="257">
KW_PROPERTY</text>
</g>
</a>
<g class="character">
<rect height="22" rx="10" ry="10" width="52" x="292" y="241"/>
<text x="318" y="257">
HIDE</text>
</g>
<a class="link" xlink:href="#Identifier">
<g class="symbol">
<rect height="22" width="100" x="354" y="241"/>
<text x="404" y="257">
Identifier</text>
</g>
</a>
<g class="character">
<rect height="22" rx="10" ry="10" width="52" x="464" y="241"/>
<text x="490" y="257">
HIDE</text>
</g>
<g class="string">
<rect height="22" rx="10" ry="10" width="28" x="526" y="241"/>
<text x="540" y="257">
{</text>
</g>
<g class="character">
<rect height="22" rx="10" ry="10" width="52" x="564" y="241"/>
<text x="590" y="257">
HIDE</text>
</g>
<g class="repeat">
<path d=" M 626 252 h 12 m 178 0 h 12 m -12 0 a 12 12 0 0 1 12 12 v 7 a 12 12 0 0 1 -12 12 m -52 0 h -126 m 66 0 l 5 -5 m 0 10 l -5 -5 m -66 0 a 12 12 0 0 1 -12 -12 v -7 a 12 12 0 0 1 12 -12"/>
<text class="comment" x="790" y="288">
[0, ∞]</text>
<g class="sequence">
<g class="character">
<rect height="22" rx="10" ry="10" width="52" x="638" y="241"/>
<text x="664" y="257">
HIDE</text>
</g>
<a class="link" xlink:href="#PropertyItem">
<g class="symbol">
<rect height="22" width="116" x="700" y="241"/>
<text x="758" y="257">
PropertyItem</text>
</g>
</a>
<path d=" M 690 252 h 10"/>
</g>
</g>
<g class="character">
<rect height="22" rx="10" ry="10" width="52" x="838" y="241"/>
<text x="864" y="257">
HIDE</text>
</g>
<g class="string">
<rect height="22" rx="10" ry="10" width="28" x="900" y="241"/>
<text x="914" y="257">
}</text>
</g>
<path d=" M 282 252 h 10"/>
<path d=" M 344 252 h 10"/>
<path d=" M 454 252 h 10"/>
<path d=" M 516 252 h 10"/>
<path d=" M 554 252 h 10"/>
<path d=" M 616 252 h 10"/>
<path d=" M 828 252 h 10"/>
<path d=" M 890 252 h 10"/>
</g>
<path d=" M 938 252 h 5 a 5 5 0 0 1 5 -5 a 5 5 0 0 1 5 5 a 5 5 0 0 1 -5 5 a 5 5 0 0 1 -5 -5"/>
<path d=" M 25 252 h 10"/>
<path d=" M 164 252 h 10"/>
<path d=" M 928 252 h 10"/>
</g>
<g class="sequence">
<path d=" M 10 316 a 5 5 0 0 1 5 -5 a 5 5 0 0 1 5 5 a 5 5 0 0 1 -5 5 a 5 5 0 0 1 -5 -5 m 10 0 h 5"/>
<text class="comment" id="PropertyItem" x="82" y="321">
PropertyItem</text>
<g class="choice">
<path d=" M 139 316 h 24 m 108 0 h 104 m -49 0 l -5 -5 m 0 10 l 5 -5 m 49 0"/>
<a class="link" xlink:href="#IdStatement">
<g class="symbol">
<rect height="22" width="108" x="163" y="305"/>
<text x="217" y="321">
IdStatement</text>
</g>
</a>
<path d=" M 139 316 a 12 12 0 0 1 12 12 v 9 m 212 0 v -9 a 12 12 0 0 1 12 -12"/>
<path d=" M 151 337 v 33 m 212 0 v -33"/>
<path d=" M 151 370 v 33 m 212 0 v -33"/>
<path d=" M 151 403 v 33 m 212 0 v -33"/>
<path d=" M 151 436 v 33 m 212 0 v -33"/>
<path d=" M 151 337 v 0 a 12 12 0 0 0 12 12 m 188 0 h 0 a 12 12 0 0 0 12 -12 v 0"/>
<a class="link" xlink:href="#DescriptionStatement">
<g class="symbol">
<rect height="22" width="188" x="163" y="338"/>
<text x="257" y="354">
DescriptionStatement</text>
</g>
</a>
<path d=" M 151 370 v 0 a 12 12 0 0 0 12 12 m 188 0 h 0 a 12 12 0 0 0 12 -12 v 0"/>
<a class="link" xlink:href="#RequirementStatement">
<g class="symbol">
<rect height="22" width="188" x="163" y="371"/>
<text x="257" y="387">
RequirementStatement</text>
</g>
</a>
<path d=" M 151 403 v 0 a 12 12 0 0 0 12 12 m 140 0 h 48 a 12 12 0 0 0 12 -12 v 0"/>
<a class="link" xlink:href="#OptionStatement">
<g class="symbol">
<rect height="22" width="140" x="163" y="404"/>
<text x="233" y="420">
OptionStatement</text>
</g>
</a>
<path d=" M 151 436 v 0 a 12 12 0 0 0 12 12 m 164 0 h 24 a 12 12 0 0 0 12 -12 v 0"/>
<a class="link" xlink:href="#EnumerateStatement">
<g class="symbol">
<rect height="22" width="164" x="163" y="437"/>
<text x="245" y="453">
EnumerateStatement</text>
</g>
</a>
<path d=" M 151 469 v 0 a 12 12 0 0 0 12 12 m 44 0 h 144 m -69 0 l -5 -5 m 0 10 l 5 -5 m 69 0 a 12 12 0 0 0 12 -12 v 0"/>
<a class="link" xlink:href="#EOS">
<g class="symbol">
<rect height="22" width="44" x="163" y="470"/>
<text x="185" y="486">
EOS</text>
</g>
</a>
</g>
<path d=" M 385 316 h 5 a 5 5 0 0 1 5 -5 a 5 5 0 0 1 5 5 a 5 5 0 0 1 -5 5 a 5 5 0 0 1 -5 -5"/>
<path d=" M 25 316 h 10"/>
<path d=" M 129 316 h 10"/>
<path d=" M 375 316 h 10"/>
</g>
<g class="sequence">
<path d=" M 10 540 a 5 5 0 0 1 5 -5 a 5 5 0 0 1 5 5 a 5 5 0 0 1 -5 5 a 5 5 0 0 1 -5 -5 m 10 0 h 5"/>
<text class="comment" id="EnumerateStatement" x="103" y="545">
EnumerateStatement</text>
<g class="sequence">
<a class="link" xlink:href="#KW_ENUMERATE">
<g class="symbol">
<rect height="22" width="116" x="181" y="529"/>
<text x="239" y="545">
KW_ENUMERATE</text>
</g>
</a>
<g class="character">
<rect height="22" rx="10" ry="10" width="52" x="307" y="529"/>
<text x="333" y="545">
HIDE</text>
</g>
<g class="string">
<rect height="22" rx="10" ry="10" width="28" x="369" y="529"/>
<text x="383" y="545">
[</text>
</g>
<g class="character">
<rect height="22" rx="10" ry="10" width="52" x="407" y="529"/>
<text x="433" y="545">
HIDE</text>
</g>
<g class="optional">
<path d=" M 469 540 h 24 m -24 0 a 12 12 0 0 0 12 -12 v -12 a 12 12 0 0 1 12 -12 h 670 m -332 0 l -5 -5 m 0 10 l 5 -5 m 332 0 a 12 12 0 0 1 12 12 v 12 a 12 12 0 0 0 12 12 h -24"/>
<g class="sequence">
<a class="link" xlink:href="#Identifier">
<g class="symbol">
<rect height="22" width="100" x="493" y="529"/>
<text x="543" y="545">
Identifier</text>
</g>
</a>
<g class="character">
<rect height="22" rx="10" ry="10" width="52" x="603" y="529"/>
<text x="629" y="545">
HIDE</text>
</g>
<g class="repeat">
<path d=" M 665 540 h 12 m 294 0 h 12 m -12 0 a 12 12 0 0 1 12 12 v 7 a 12 12 0 0 1 -12 12 m -52 0 h -242 m 124 0 l 5 -5 m 0 10 l -5 -5 m -124 0 a 12 12 0 0 1 -12 -12 v -7 a 12 12 0 0 1 12 -12"/>
<text class="comment" x="945" y="576">
[0, ∞]</text>
<g class="sequence">
<g class="character">
<rect height="22" rx="10" ry="10" width="52" x="677" y="529"/>
<text x="703" y="545">
HIDE</text>
</g>
<g class="sequence">
<g class="sequence">
<a class="link" xlink:href="#COMMA">
<g class="symbol">
<rect height="22" width="60" x="739" y="529"/>
<text x="769" y="545">
COMMA</text>
</g>
</a>
<g class="character">
<rect height="22" rx="10" ry="10" width="52" x="809" y="529"/>
<text x="835" y="545">
HIDE</text>
</g>
<path d=" M 799 540 h 10"/>
</g>
<a class="link" xlink:href="#Identifier">
<g class="symbol">
<rect height="22" width="100" x="871" y="529"/>
<text x="921" y="545">
Identifier</text>
</g>
</a>
<path d=" M 861 540 h 10"/>
</g>
<path d=" M 729 540 h 10"/>
</g>
</g>
<g class="character">
<rect height="22" rx="10" ry="10" width="52" x="993" y="529"/>
<text x="1019" y="545">
HIDE</text>
</g>
<g class="optional">
<path d=" M 1055 540 h 24 m -24 0 a 12 12 0 0 0 12 -12 v 0 a 12 12 0 0 1 12 -12 h 60 m -27 0 l -5 -5 m 0 10 l 5 -5 m 27 0 a 12 12 0 0 1 12 12 v 0 a 12 12 0 0 0 12 12 h -24"/>
<a class="link" xlink:href="#COMMA">
<g class="symbol">
<rect height="22" width="60" x="1079" y="529"/>
<text x="1109" y="545">
COMMA</text>
</g>
</a>
</g>
<path d=" M 593 540 h 10"/>
<path d=" M 655 540 h 10"/>
<path d=" M 983 540 h 10"/>
<path d=" M 1045 540 h 10"/>
</g>
</g>
<g class="character">
<rect height="22" rx="10" ry="10" width="52" x="1197" y="529"/>
<text x="1223" y="545">
HIDE</text>
</g>
<g class="string">
<rect height="22" rx="10" ry="10" width="28" x="1259" y="529"/>
<text x="1273" y="545">
]</text>
</g>
<path d=" M 297 540 h 10"/>
<path d=" M 359 540 h 10"/>
<path d=" M 397 540 h 10"/>
<path d=" M 459 540 h 10"/>
<path d=" M 1187 540 h 10"/>
<path d=" M 1249 540 h 10"/>
</g>
<path d=" M 1297 540 h 5 a 5 5 0 0 1 5 -5 a 5 5 0 0 1 5 5 a 5 5 0 0 1 -5 5 a 5 5 0 0 1 -5 -5"/>
<path d=" M 25 540 h 10"/>
<path d=" M 171 540 h 10"/>
<path d=" M 1287 540 h 10"/>
</g>
<g class="sequence">
<path d=" M 10 629 a 5 5 0 0 1 5 -5 a 5 5 0 0 1 5 5 a 5 5 0 0 1 -5 5 a 5 5 0 0 1 -5 -5 m 10 0 h 5"/>
<text class="comment" id="OptionStatement" x="92" y="634">
OptionStatement</text>
<g class="sequence">
<a class="link" xlink:href="#KW_OPTIONS">
<g class="symbol">
<rect height="22" width="100" x="160" y="618"/>
<text x="210" y="634">
KW_OPTIONS</text>
</g>
</a>
<g class="character">
<rect height="22" rx="10" ry="10" width="52" x="270" y="618"/>
<text x="296" y="634">
HIDE</text>
</g>
<g class="string">
<rect height="22" rx="10" ry="10" width="28" x="332" y="618"/>
<text x="346" y="634">
[</text>
</g>
<g class="character">
<rect height="22" rx="10" ry="10" width="52" x="370" y="618"/>
<text x="396" y="634">
HIDE</text>
</g>
<g class="optional">
<path d=" M 432 629 h 24 m -24 0 a 12 12 0 0 0 12 -12 v -12 a 12 12 0 0 1 12 -12 h 670 m -332 0 l -5 -5 m 0 10 l 5 -5 m 332 0 a 12 12 0 0 1 12 12 v 12 a 12 12 0 0 0 12 12 h -24"/>
<g class="sequence">
<a class="link" xlink:href="#Identifier">
<g class="symbol">
<rect height="22" width="100" x="456" y="618"/>
<text x="506" y="634">
Identifier</text>
</g>
</a>
<g class="character">
<rect height="22" rx="10" ry="10" width="52" x="566" y="618"/>
<text x="592" y="634">
HIDE</text>
</g>
<g class="repeat">
<path d=" M 628 629 h 12 m 294 0 h 12 m -12 0 a 12 12 0 0 1 12 12 v 7 a 12 12 0 0 1 -12 12 m -52 0 h -242 m 124 0 l 5 -5 m 0 10 l -5 -5 m -124 0 a 12 12 0 0 1 -12 -12 v -7 a 12 12 0 0 1 12 -12"/>
<text class="comment" x="908" y="665">
[0, ∞]</text>
<g class="sequence">
<g class="character">
<rect height="22" rx="10" ry="10" width="52" x="640" y="618"/>
<text x="666" y="634">
HIDE</text>
</g>
<g class="sequence">
<g class="sequence">
<a class="link" xlink:href="#COMMA">
<g class="symbol">
<rect height="22" width="60" x="702" y="618"/>
<text x="732" y="634">
COMMA</text>
</g>
</a>
<g class="character">
<rect height="22" rx="10" ry="10" width="52" x="772" y="618"/>
<text x="798" y="634">
HIDE</text>
</g>
<path d=" M 762 629 h 10"/>
</g>
<a class="link" xlink:href="#Identifier">
<g class="symbol">
<rect height="22" width="100" x="834" y="618"/>
<text x="884" y="634">
Identifier</text>
</g>
</a>
<path d=" M 824 629 h 10"/>
</g>
<path d=" M 692 629 h 10"/>
</g>
</g>
<g class="character">
<rect height="22" rx="10" ry="10" width="52" x="956" y="618"/>
<text x="982" y="634">
HIDE</text>
</g>
<g class="optional">
<path d=" M 1018 629 h 24 m -24 0 a 12 12 0 0 0 12 -12 v 0 a 12 12 0 0 1 12 -12 h 60 m -27 0 l -5 -5 m 0 10 l 5 -5 m 27 0 a 12 12 0 0 1 12 12 v 0 a 12 12 0 0 0 12 12 h -24"/>
<a class="link" xlink:href="#COMMA">
<g class="symbol">
<rect height="22" width="60" x="1042" y="618"/>
<text x="1072" y="634">
COMMA</text>
</g>
</a>
</g>
<path d=" M 556 629 h 10"/>
<path d=" M 618 629 h 10"/>
<path d=" M 946 629 h 10"/>
<path d=" M 1008 629 h 10"/>
</g>
</g>
<g class="character">
<rect height="22" rx="10" ry="10" width="52" x="1160" y="618"/>
<text x="1186" y="634">
HIDE</text>
</g>
<g class="string">
<rect height="22" rx="10" ry="10" width="28" x="1222" y="618"/>
<text x="1236" y="634">
]</text>
</g>
<path d=" M 260 629 h 10"/>
<path d=" M 322 629 h 10"/>
<path d=" M 360 629 h 10"/>
<path d=" M 422 629 h 10"/>
<path d=" M 1150 629 h 10"/>
<path d=" M 1212 629 h 10"/>
</g>
<path d=" M 1260 629 h 5 a 5 5 0 0 1 5 -5 a 5 5 0 0 1 5 5 a 5 5 0 0 1 -5 5 a 5 5 0 0 1 -5 -5"/>
<path d=" M 25 629 h 10"/>
<path d=" M 150 629 h 10"/>
<path d=" M 1250 629 h 10"/>
</g>
<g class="sequence">
<path d=" M 10 693 a 5 5 0 0 1 5 -5 a 5 5 0 0 1 5 5 a 5 5 0 0 1 -5 5 a 5 5 0 0 1 -5 -5 m 10 0 h 5"/>
<text class="comment" id="TraitGroup" x="75" y="698">
TraitGroup</text>
<g class="sequence">
<a class="link" xlink:href="#KW_TRAIT_GROUP">
<g class="symbol">
<rect height="22" width="132" x="125" y="682"/>
<text x="191" y="698">
KW_TRAIT_GROUP</text>
</g>
</a>
<g class="character">
<rect height="22" rx="10" ry="10" width="52" x="267" y="682"/>
<text x="293" y="698">
HIDE</text>
</g>
<a class="link" xlink:href="#Identifier">
<g class="symbol">
<rect height="22" width="100" x="329" y="682"/>
<text x="379" y="698">
Identifier</text>
</g>
</a>
<g class="character">
<rect height="22" rx="10" ry="10" width="52" x="439" y="682"/>
<text x="465" y="698">
HIDE</text>
</g>
<g class="string">
<rect height="22" rx="10" ry="10" width="28" x="501" y="682"/>
<text x="515" y="698">
{</text>
</g>
<g class="character">
<rect height="22" rx="10" ry="10" width="52" x="539" y="682"/>
<text x="565" y="698">
HIDE</text>
</g>
<g class="repeat">
<path d=" M 601 693 h 12 m 194 0 h 12 m -12 0 a 12 12 0 0 1 12 12 v 7 a 12 12 0 0 1 -12 12 m -52 0 h -142 m 74 0 l 5 -5 m 0 10 l -5 -5 m -74 0 a 12 12 0 0 1 -12 -12 v -7 a 12 12 0 0 1 12 -12"/>
<text class="comment" x="781" y="729">
[0, ∞]</text>
<g class="sequence">
<g class="character">
<rect height="22" rx="10" ry="10" width="52" x="613" y="682"/>
<text x="639" y="698">
HIDE</text>
</g>
<a class="link" xlink:href="#TraitStatement">
<g class="symbol">
<rect height="22" width="132" x="675" y="682"/>
<text x="741" y="698">
TraitStatement</text>
</g>
</a>
<path d=" M 665 693 h 10"/>
</g>
</g>
<g class="character">
<rect height="22" rx="10" ry="10" width="52" x="829" y="682"/>
<text x="855" y="698">
HIDE</text>
</g>
<g class="string">
<rect height="22" rx="10" ry="10" width="28" x="891" y="682"/>
<text x="905" y="698">
}</text>
</g>
<path d=" M 257 693 h 10"/>
<path d=" M 319 693 h 10"/>
<path d=" M 429 693 h 10"/>
<path d=" M 491 693 h 10"/>
<path d=" M 529 693 h 10"/>
<path d=" M 591 693 h 10"/>
<path d=" M 819 693 h 10"/>
<path d=" M 881 693 h 10"/>
</g>
<path d=" M 929 693 h 5 a 5 5 0 0 1 5 -5 a 5 5 0 0 1 5 5 a 5 5 0 0 1 -5 5 a 5 5 0 0 1 -5 -5"/>
<path d=" M 25 693 h 10"/>
<path d=" M 115 693 h 10"/>
<path d=" M 919 693 h 10"/>
</g>
<g class="sequence">
<path d=" M 10 757 a 5 5 0 0 1 5 -5 a 5 5 0 0 1 5 5 a 5 5 0 0 1 -5 5 a 5 5 0 0 1 -5 -5 m 10 0 h 5"/>
<text class="comment" id="TraitStatement" x="89" y="762">
TraitStatement</text>
<g class="sequence">
<a class="link" xlink:href="#KW_TRAIT">
<g class="symbol">
<rect height="22" width="84" x="153" y="746"/>
<text x="195" y="762">
KW_TRAIT</text>
</g>
</a>
<g class="character">
<rect height="22" rx="10" ry="10" width="52" x="247" y="746"/>
<text x="273" y="762">
HIDE</text>
</g>
<a class="link" xlink:href="#Identifier">
<g class="symbol">
<rect height="22" width="100" x="309" y="746"/>
<text x="359" y="762">
Identifier</text>
</g>
</a>
<g class="character">
<rect height="22" rx="10" ry="10" width="52" x="419" y="746"/>
<text x="445" y="762">
HIDE</text>
</g>
<g class="string">
<rect height="22" rx="10" ry="10" width="28" x="481" y="746"/>
<text x="495" y="762">
{</text>
</g>
<g class="character">
<rect height="22" rx="10" ry="10" width="52" x="519" y="746"/>
<text x="545" y="762">
HIDE</text>
</g>
<g class="repeat">
<path d=" M 581 757 h 12 m 154 0 h 12 m -12 0 a 12 12 0 0 1 12 12 v 7 a 12 12 0 0 1 -12 12 m -52 0 h -102 m 54 0 l 5 -5 m 0 10 l -5 -5 m -54 0 a 12 12 0 0 1 -12 -12 v -7 a 12 12 0 0 1 12 -12"/>
<text class="comment" x="721" y="793">
[0, ∞]</text>
<g class="sequence">
<g class="character">
<rect height="22" rx="10" ry="10" width="52" x="593" y="746"/>
<text x="619" y="762">
HIDE</text>
</g>
<a class="link" xlink:href="#TraitItem">
<g class="symbol">
<rect height="22" width="92" x="655" y="746"/>
<text x="701" y="762">
TraitItem</text>
</g>
</a>
<path d=" M 645 757 h 10"/>
</g>
</g>
<g class="character">
<rect height="22" rx="10" ry="10" width="52" x="769" y="746"/>
<text x="795" y="762">
HIDE</text>
</g>
<g class="string">
<rect height="22" rx="10" ry="10" width="28" x="831" y="746"/>
<text x="845" y="762">
}</text>
</g>
<path d=" M 237 757 h 10"/>
<path d=" M 299 757 h 10"/>
<path d=" M 409 757 h 10"/>
<path d=" M 471 757 h 10"/>
<path d=" M 509 757 h 10"/>
<path d=" M 571 757 h 10"/>
<path d=" M 759 757 h 10"/>
<path d=" M 821 757 h 10"/>
</g>
<path d=" M 869 757 h 5 a 5 5 0 0 1 5 -5 a 5 5 0 0 1 5 5 a 5 5 0 0 1 -5 5 a 5 5 0 0 1 -5 -5"/>
<path d=" M 25 757 h 10"/>
<path d=" M 143 757 h 10"/>
<path d=" M 859 757 h 10"/>
</g>
<g class="sequence">
<path d=" M 10 821 a 5 5 0 0 1 5 -5 a 5 5 0 0 1 5 5 a 5 5 0 0 1 -5 5 a 5 5 0 0 1 -5 -5 m 10 0 h 5"/>
<text class="comment" id="TraitItem" x="71" y="826">
TraitItem</text>
<g class="choice">
<path d=" M 118 821 h 24 m 108 0 h 104 m -49 0 l -5 -5 m 0 10 l 5 -5 m 49 0"/>
<a class="link" xlink:href="#IdStatement">
<g class="symbol">
<rect height="22" width="108" x="142" y="810"/>
<text x="196" y="826">
IdStatement</text>
</g>
</a>
<path d=" M 118 821 a 12 12 0 0 1 12 12 v 9 m 212 0 v -9 a 12 12 0 0 1 12 -12"/>
<path d=" M 130 842 v 33 m 212 0 v -33"/>
<path d=" M 130 875 v 33 m 212 0 v -33"/>
<path d=" M 130 842 v 0 a 12 12 0 0 0 12 12 m 188 0 h 0 a 12 12 0 0 0 12 -12 v 0"/>
<a class="link" xlink:href="#DescriptionStatement">
<g class="symbol">
<rect height="22" width="188" x="142" y="843"/>
<text x="236" y="859">
DescriptionStatement</text>
</g>
</a>
<path d=" M 130 875 v 0 a 12 12 0 0 0 12 12 m 188 0 h 0 a 12 12 0 0 0 12 -12 v 0"/>
<a class="link" xlink:href="#RequirementStatement">
<g class="symbol">
<rect height="22" width="188" x="142" y="876"/>
<text x="236" y="892">
RequirementStatement</text>
</g>
</a>
<path d=" M 130 908 v 0 a 12 12 0 0 0 12 12 m 44 0 h 144 m -69 0 l -5 -5 m 0 10 l 5 -5 m 69 0 a 12 12 0 0 0 12 -12 v 0"/>
<a class="link" xlink:href="#EOS">
<g class="symbol">
<rect height="22" width="44" x="142" y="909"/>
<text x="164" y="925">
EOS</text>
</g>
</a>
</g>
<path d=" M 364 821 h 5 a 5 5 0 0 1 5 -5 a 5 5 0 0 1 5 5 a 5 5 0 0 1 -5 5 a 5 5 0 0 1 -5 -5"/>
<path d=" M 25 821 h 10"/>
<path d=" M 108 821 h 10"/>
<path d=" M 354 821 h 10"/>
</g>
<g class="sequence">
<path d=" M 10 954 a 5 5 0 0 1 5 -5 a 5 5 0 0 1 5 5 a 5 5 0 0 1 -5 5 a 5 5 0 0 1 -5 -5 m 10 0 h 5"/>
<text class="comment" id="TraitProperty" x="85" y="959">
TraitProperty</text>
<g class="sequence">
<a class="link" xlink:href="#Identifier">
<g class="symbol">
<rect height="22" width="100" x="146" y="943"/>
<text x="196" y="959">
Identifier</text>
</g>
</a>
<g class="character">
<rect height="22" rx="10" ry="10" width="52" x="256" y="943"/>
<text x="282" y="959">
HIDE</text>
</g>
<g class="string">
<rect height="22" rx="10" ry="10" width="28" x="318" y="943"/>
<text x="332" y="959">
:</text>
</g>
<g class="character">
<rect height="22" rx="10" ry="10" width="52" x="356" y="943"/>
<text x="382" y="959">
HIDE</text>
</g>
<a class="link" xlink:href="#Atomic">
<g class="symbol">
<rect height="22" width="68" x="418" y="943"/>
<text x="452" y="959">
Atomic</text>
</g>
</a>
<path d=" M 246 954 h 10"/>
<path d=" M 308 954 h 10"/>
<path d=" M 346 954 h 10"/>
<path d=" M 408 954 h 10"/>
</g>
<path d=" M 496 954 h 5 a 5 5 0 0 1 5 -5 a 5 5 0 0 1 5 5 a 5 5 0 0 1 -5 5 a 5 5 0 0 1 -5 -5"/>
<path d=" M 25 954 h 10"/>
<path d=" M 136 954 h 10"/>
<path d=" M 486 954 h 10"/>
</g>
<g class="sequence">
<path d=" M 10 988 a 5 5 0 0 1 5 -5 a 5 5 0 0 1 5 5 a 5 5 0 0 1 -5 5 a 5 5 0 0 1 -5 -5 m 10 0 h 5"/>
<text class="comment" id="EventStatement" x="89" y="993">
EventStatement</text>
<g class="sequence">
<a class="link" xlink:href="#KW_EVENT">
<g class="symbol">
<rect height="22" width="84" x="153" y="977"/>
<text x="195" y="993">
KW_EVENT</text>
</g>
</a>
<g class="character">
<rect height="22" rx="10" ry="10" width="52" x="247" y="977"/>
<text x="273" y="993">
HIDE</text>
</g>
<a class="link" xlink:href="#Identifier">
<g class="symbol">
<rect height="22" width="100" x="309" y="977"/>
<text x="359" y="993">
Identifier</text>
</g>
</a>
<g class="character">
<rect height="22" rx="10" ry="10" width="52" x="419" y="977"/>
<text x="445" y="993">
HIDE</text>
</g>
<a class="link" xlink:href="#EventBlock">
<g class="symbol">
<rect height="22" width="100" x="481" y="977"/>
<text x="531" y="993">
EventBlock</text>
</g>
</a>
<path d=" M 237 988 h 10"/>
<path d=" M 299 988 h 10"/>
<path d=" M 409 988 h 10"/>
<path d=" M 471 988 h 10"/>
</g>
<path d=" M 591 988 h 5 a 5 5 0 0 1 5 -5 a 5 5 0 0 1 5 5 a 5 5 0 0 1 -5 5 a 5 5 0 0 1 -5 -5"/>
<path d=" M 25 988 h 10"/>
<path d=" M 143 988 h 10"/>
<path d=" M 581 988 h 10"/>
</g>
<g class="sequence">
<path d=" M 10 1022 a 5 5 0 0 1 5 -5 a 5 5 0 0 1 5 5 a 5 5 0 0 1 -5 5 a 5 5 0 0 1 -5 -5 m 10 0 h 5"/>
<text class="comment" id="EventBlock" x="75" y="1027">
EventBlock</text>
<g class="sequence">
<g class="string">
<rect height="22" rx="10" ry="10" width="28" x="125" y="1011"/>
<text x="139" y="1027">
{</text>
</g>
<g class="character">
<rect height="22" rx="10" ry="10" width="52" x="163" y="1011"/>
<text x="189" y="1027">
HIDE</text>
</g>
<g class="repeat">
<path d=" M 225 1022 h 12 m 186 0 h 12 m -12 0 a 12 12 0 0 1 12 12 v 7 a 12 12 0 0 1 -12 12 m -52 0 h -134 m 70 0 l 5 -5 m 0 10 l -5 -5 m -70 0 a 12 12 0 0 1 -12 -12 v -7 a 12 12 0 0 1 12 -12"/>
<text class="comment" x="397" y="1058">
[0, ∞]</text>
<g class="sequence">
<g class="character">
<rect height="22" rx="10" ry="10" width="52" x="237" y="1011"/>
<text x="263" y="1027">
HIDE</text>
</g>
<a class="link" xlink:href="#EventProperty">
<g class="symbol">
<rect height="22" width="124" x="299" y="1011"/>
<text x="361" y="1027">
EventProperty</text>
</g>
</a>
<path d=" M 289 1022 h 10"/>
</g>
</g>
<g class="character">
<rect height="22" rx="10" ry="10" width="52" x="445" y="1011"/>
<text x="471" y="1027">
HIDE</text>
</g>
<g class="string">
<rect height="22" rx="10" ry="10" width="28" x="507" y="1011"/>
<text x="521" y="1027">
}</text>
</g>
<path d=" M 153 1022 h 10"/>
<path d=" M 215 1022 h 10"/>
<path d=" M 435 1022 h 10"/>
<path d=" M 497 1022 h 10"/>
</g>
<path d=" M 545 1022 h 5 a 5 5 0 0 1 5 -5 a 5 5 0 0 1 5 5 a 5 5 0 0 1 -5 5 a 5 5 0 0 1 -5 -5"/>
<path d=" M 25 1022 h 10"/>
<path d=" M 115 1022 h 10"/>
<path d=" M 535 1022 h 10"/>
</g>
<g class="sequence">
<path d=" M 10 1099 a 5 5 0 0 1 5 -5 a 5 5 0 0 1 5 5 a 5 5 0 0 1 -5 5 a 5 5 0 0 1 -5 -5 m 10 0 h 5"/>
<text class="comment" id="EventProperty" x="85" y="1104">
EventProperty</text>
<g class="sequence">
<a class="link" xlink:href="#Identifier">
<g class="symbol">
<rect height="22" width="100" x="146" y="1088"/>
<text x="196" y="1104">
Identifier</text>
</g>
</a>
<g class="character">
<rect height="22" rx="10" ry="10" width="52" x="256" y="1088"/>
<text x="282" y="1104">
HIDE</text>
</g>
<g class="choice">
<path d=" M 318 1099 h 24 m 28 0 h 24"/>
<g class="string">
<rect height="22" rx="10" ry="10" width="28" x="342" y="1088"/>
<text x="356" y="1104">
:</text>
</g>
<path d=" M 318 1099 a 12 12 0 0 1 12 12 v 9 m 52 0 v -9 a 12 12 0 0 1 12 -12"/>
<path d=" M 330 1120 v 0 a 12 12 0 0 0 12 12 m 28 0 h 0 a 12 12 0 0 0 12 -12 v 0"/>
<g class="string">
<rect height="22" rx="10" ry="10" width="28" x="342" y="1121"/>
<text x="356" y="1137">
[</text>
</g>
</g>
<g class="character">
<rect height="22" rx="10" ry="10" width="52" x="404" y="1088"/>
<text x="430" y="1104">
HIDE</text>
</g>
<a class="link" xlink:href="#Expression">
<g class="symbol">
<rect height="22" width="100" x="466" y="1088"/>
<text x="516" y="1104">
Expression</text>
</g>
</a>
<g class="character">
<rect height="22" rx="10" ry="10" width="52" x="576" y="1088"/>
<text x="602" y="1104">
HIDE</text>
</g>
<g class="optional">
<path d=" M 638 1099 h 24 m -24 0 a 12 12 0 0 0 12 -12 v 0 a 12 12 0 0 1 12 -12 h 348 m -171 0 l -5 -5 m 0 10 l 5 -5 m 171 0 a 12 12 0 0 1 12 12 v 0 a 12 12 0 0 0 12 12 h -24"/>
<g class="choice">
<path d=" M 662 1099 h 24 m 28 0 h 296 m -145 0 l -5 -5 m 0 10 l 5 -5 m 145 0"/>
<g class="string">
<rect height="22" rx="10" ry="10" width="28" x="686" y="1088"/>
<text x="700" y="1104">
]</text>
</g>
<path d=" M 662 1099 a 12 12 0 0 1 12 12 v 9 m 324 0 v -9 a 12 12 0 0 1 12 -12"/>
<path d=" M 674 1120 v 33 m 324 0 v -33"/>
<path d=" M 674 1120 v 0 a 12 12 0 0 0 12 12 m 300 0 h 0 a 12 12 0 0 0 12 -12 v 0"/>
<g class="sequence">
<g class="string">
<rect height="22" rx="10" ry="10" width="28" x="686" y="1121"/>
<text x="700" y="1137">
{</text>
</g>
<g class="character">
<rect height="22" rx="10" ry="10" width="52" x="724" y="1121"/>
<text x="750" y="1137">
HIDE</text>
</g>
<a class="link" xlink:href="#EventBlock">
<g class="symbol">
<rect height="22" width="100" x="786" y="1121"/>
<text x="836" y="1137">
EventBlock</text>
</g>
</a>
<g class="character">
<rect height="22" rx="10" ry="10" width="52" x="896" y="1121"/>
<text x="922" y="1137">
HIDE</text>
</g>
<g class="string">
<rect height="22" rx="10" ry="10" width="28" x="958" y="1121"/>
<text x="972" y="1137">
}</text>
</g>
<path d=" M 714 1132 h 10"/>
<path d=" M 776 1132 h 10"/>
<path d=" M 886 1132 h 10"/>
<path d=" M 948 1132 h 10"/>
</g>
<path d=" M 674 1153 v 0 a 12 12 0 0 0 12 12 m 100 0 h 200 m -97 0 l -5 -5 m 0 10 l 5 -5 m 97 0 a 12 12 0 0 0 12 -12 v 0"/>
<a class="link" xlink:href="#EventBlock">
<g class="symbol">
<rect height="22" width="100" x="686" y="1154"/>
<text x="736" y="1170">
EventBlock</text>
</g>
</a>
</g>
</g>
<path d=" M 246 1099 h 10"/>
<path d=" M 308 1099 h 10"/>
<path d=" M 394 1099 h 10"/>
<path d=" M 456 1099 h 10"/>
<path d=" M 566 1099 h 10"/>
<path d=" M 628 1099 h 10"/>
</g>
<path d=" M 1044 1099 h 5 a 5 5 0 0 1 5 -5 a 5 5 0 0 1 5 5 a 5 5 0 0 1 -5 5 a 5 5 0 0 1 -5 -5"/>
<path d=" M 25 1099 h 10"/>
<path d=" M 136 1099 h 10"/>
<path d=" M 1034 1099 h 10"/>
</g>
<g class="sequence">
<path d=" M 10 1199 a 5 5 0 0 1 5 -5 a 5 5 0 0 1 5 5 a 5 5 0 0 1 -5 5 a 5 5 0 0 1 -5 -5 m 10 0 h 5"/>
<text class="comment" id="IdStatement" x="78" y="1204">
IdStatement</text>
<g class="sequence">
<a class="link" xlink:href="#KW_ID">
<g class="symbol">
<rect height="22" width="60" x="132" y="1188"/>
<text x="162" y="1204">
KW_ID</text>
</g>
</a>
<g class="character">
<rect height="22" rx="10" ry="10" width="52" x="202" y="1188"/>
<text x="228" y="1204">
HIDE</text>
</g>
<a class="link" xlink:href="#Integer">
<g class="symbol">
<rect height="22" width="76" x="264" y="1188"/>
<text x="302" y="1204">
Integer</text>
</g>
</a>
<path d=" M 192 1199 h 10"/>
<path d=" M 254 1199 h 10"/>
</g>
<path d=" M 350 1199 h 5 a 5 5 0 0 1 5 -5 a 5 5 0 0 1 5 5 a 5 5 0 0 1 -5 5 a 5 5 0 0 1 -5 -5"/>
<path d=" M 25 1199 h 10"/>
<path d=" M 122 1199 h 10"/>
<path d=" M 340 1199 h 10"/>
</g>
<g class="sequence">
<path d=" M 10 1246 a 5 5 0 0 1 5 -5 a 5 5 0 0 1 5 5 a 5 5 0 0 1 -5 5 a 5 5 0 0 1 -5 -5 m 10 0 h 5"/>
<text class="comment" id="DescriptionStatement" x="113" y="1251">
DescriptionStatement</text>
<g class="choice">
<path d=" M 202 1246 h 24 m 320 0 h 558 m -276 0 l -5 -5 m 0 10 l 5 -5 m 276 0"/>
<g class="sequence">
<a class="link" xlink:href="#KW_DESCRIPTION">
<g class="symbol">
<rect height="22" width="132" x="226" y="1235"/>
<text x="292" y="1251">
KW_DESCRIPTION</text>
</g>
</a>
<g class="character">
<rect height="22" rx="10" ry="10" width="52" x="368" y="1235"/>
<text x="394" y="1251">
HIDE</text>
</g>
<g class="optional">
<path d=" M 430 1246 h 24 m -24 0 a 12 12 0 0 0 12 -12 v 0 a 12 12 0 0 1 12 -12 h 68 m -31 0 l -5 -5 m 0 10 l 5 -5 m 31 0 a 12 12 0 0 1 12 12 v 0 a 12 12 0 0 0 12 12 h -24"/>
<a class="link" xlink:href="#String">
<g class="symbol">
<rect height="22" width="68" x="454" y="1235"/>
<text x="488" y="1251">
String</text>
</g>
</a>
</g>
<path d=" M 358 1246 h 10"/>
<path d=" M 420 1246 h 10"/>
</g>
<path d=" M 202 1246 a 12 12 0 0 1 12 12 v 9 m 878 0 v -9 a 12 12 0 0 1 12 -12"/>
<path d=" M 214 1267 v 24 a 12 12 0 0 0 12 12 m 854 0 h 0 a 12 12 0 0 0 12 -12 v -24"/>
<g class="sequence">
<g class="string">
<rect height="22" rx="10" ry="10" width="28" x="226" y="1292"/>
<text x="240" y="1308">
[</text>
</g>
<g class="character">
<rect height="22" rx="10" ry="10" width="52" x="264" y="1292"/>
<text x="290" y="1308">
HIDE</text>
</g>
<g class="optional">
<path d=" M 326 1303 h 24 m -24 0 a 12 12 0 0 0 12 -12 v -12 a 12 12 0 0 1 12 -12 h 606 m -300 0 l -5 -5 m 0 10 l 5 -5 m 300 0 a 12 12 0 0 1 12 12 v 12 a 12 12 0 0 0 12 12 h -24"/>
<g class="sequence">
<a class="link" xlink:href="#String">
<g class="symbol">
<rect height="22" width="68" x="350" y="1292"/>
<text x="384" y="1308">
String</text>
</g>
</a>
<g class="character">
<rect height="22" rx="10" ry="10" width="52" x="428" y="1292"/>
<text x="454" y="1308">
HIDE</text>
</g>
<g class="repeat">
<path d=" M 490 1303 h 12 m 262 0 h 12 m -12 0 a 12 12 0 0 1 12 12 v 7 a 12 12 0 0 1 -12 12 m -52 0 h -210 m 108 0 l 5 -5 m 0 10 l -5 -5 m -108 0 a 12 12 0 0 1 -12 -12 v -7 a 12 12 0 0 1 12 -12"/>
<text class="comment" x="738" y="1339">
[0, ∞]</text>
<g class="sequence">
<g class="character">
<rect height="22" rx="10" ry="10" width="52" x="502" y="1292"/>
<text x="528" y="1308">
HIDE</text>
</g>
<g class="sequence">
<a class="link" xlink:href="#COMMA">
<g class="symbol">
<rect height="22" width="60" x="564" y="1292"/>
<text x="594" y="1308">
COMMA</text>
</g>
</a>
<g class="character">
<rect height="22" rx="10" ry="10" width="52" x="634" y="1292"/>
<text x="660" y="1308">
HIDE</text>
</g>
<a class="link" xlink:href="#String">
<g class="symbol">
<rect height="22" width="68" x="696" y="1292"/>
<text x="730" y="1308">
String</text>
</g>
</a>
<path d=" M 624 1303 h 10"/>
<path d=" M 686 1303 h 10"/>
</g>
<path d=" M 554 1303 h 10"/>
</g>
</g>
<g class="character">
<rect height="22" rx="10" ry="10" width="52" x="786" y="1292"/>
<text x="812" y="1308">
HIDE</text>
</g>
<g class="optional">
<path d=" M 848 1303 h 24 m -24 0 a 12 12 0 0 0 12 -12 v 0 a 12 12 0 0 1 12 -12 h 60 m -27 0 l -5 -5 m 0 10 l 5 -5 m 27 0 a 12 12 0 0 1 12 12 v 0 a 12 12 0 0 0 12 12 h -24"/>
<a class="link" xlink:href="#COMMA">
<g class="symbol">
<rect height="22" width="60" x="872" y="1292"/>
<text x="902" y="1308">
COMMA</text>
</g>
</a>
</g>
<path d=" M 418 1303 h 10"/>
<path d=" M 480 1303 h 10"/>
<path d=" M 776 1303 h 10"/>
<path d=" M 838 1303 h 10"/>
</g>
</g>
<g class="character">
<rect height="22" rx="10" ry="10" width="52" x="990" y="1292"/>
<text x="1016" y="1308">
HIDE</text>
</g>
<g class="string">
<rect height="22" rx="10" ry="10" width="28" x="1052" y="1292"/>
<text x="1066" y="1308">
]</text>
</g>
<path d=" M 254 1303 h 10"/>
<path d=" M 316 1303 h 10"/>
<path d=" M 980 1303 h 10"/>
<path d=" M 1042 1303 h 10"/>
</g>
</g>
<path d=" M 1114 1246 h 5 a 5 5 0 0 1 5 -5 a 5 5 0 0 1 5 5 a 5 5 0 0 1 -5 5 a 5 5 0 0 1 -5 -5"/>
<path d=" M 25 1246 h 10"/>
<path d=" M 192 1246 h 10"/>
<path d=" M 1104 1246 h 10"/>
</g>
<g class="sequence">
<path d=" M 10 1367 a 5 5 0 0 1 5 -5 a 5 5 0 0 1 5 5 a 5 5 0 0 1 -5 5 a 5 5 0 0 1 -5 -5 m 10 0 h 5"/>
<text class="comment" id="RequirementStatement" x="113" y="1372">
RequirementStatement</text>
<g class="sequence">
<a class="link" xlink:href="#KW_REQUIREMENT">
<g class="symbol">
<rect height="22" width="132" x="202" y="1356"/>
<text x="268" y="1372">
KW_REQUIREMENT</text>
</g>
</a>
<g class="character">
<rect height="22" rx="10" ry="10" width="52" x="344" y="1356"/>
<text x="370" y="1372">
HIDE</text>
</g>
<g class="string">
<rect height="22" rx="10" ry="10" width="28" x="406" y="1356"/>
<text x="420" y="1372">
{</text>
</g>
<g class="character">
<rect height="22" rx="10" ry="10" width="52" x="444" y="1356"/>
<text x="470" y="1372">
HIDE</text>
</g>
<g class="string">
<rect height="22" rx="10" ry="10" width="28" x="506" y="1356"/>
<text x="520" y="1372">
}</text>
</g>
<path d=" M 334 1367 h 10"/>
<path d=" M 396 1367 h 10"/>
<path d=" M 434 1367 h 10"/>
<path d=" M 496 1367 h 10"/>
</g>
<path d=" M 544 1367 h 5 a 5 5 0 0 1 5 -5 a 5 5 0 0 1 5 5 a 5 5 0 0 1 -5 5 a 5 5 0 0 1 -5 -5"/>
<path d=" M 25 1367 h 10"/>
<path d=" M 192 1367 h 10"/>
<path d=" M 534 1367 h 10"/>
</g>
<g class="sequence">
<path d=" M 10 1401 a 5 5 0 0 1 5 -5 a 5 5 0 0 1 5 5 a 5 5 0 0 1 -5 5 a 5 5 0 0 1 -5 -5 m 10 0 h 5"/>
<text class="comment" id="Expression" x="75" y="1406">
Expression</text>
<a class="link" xlink:href="#Atomic">
<g class="symbol">
<rect height="22" width="68" x="125" y="1390"/>
<text x="159" y="1406">
Atomic</text>
</g>
</a>
<path d=" M 203 1401 h 5 a 5 5 0 0 1 5 -5 a 5 5 0 0 1 5 5 a 5 5 0 0 1 -5 5 a 5 5 0 0 1 -5 -5"/>
<path d=" M 25 1401 h 10"/>
<path d=" M 115 1401 h 10"/>
<path d=" M 193 1401 h 10"/>
</g>
<g class="sequence">
<path d=" M 10 1435 a 5 5 0 0 1 5 -5 a 5 5 0 0 1 5 5 a 5 5 0 0 1 -5 5 a 5 5 0 0 1 -5 -5 m 10 0 h 5"/>
<text class="comment" id="String" x="61" y="1440">
String</text>
<g class="choice">
<path d=" M 97 1435 h 0 m 92 0 h 0"/>
<a class="link" xlink:href="#StringRaw">
<g class="symbol">
<rect height="22" width="92" x="97" y="1424"/>
<text x="143" y="1440">
StringRaw</text>
</g>
</a>
</g>
<path d=" M 199 1435 h 5 a 5 5 0 0 1 5 -5 a 5 5 0 0 1 5 5 a 5 5 0 0 1 -5 5 a 5 5 0 0 1 -5 -5"/>
<path d=" M 25 1435 h 10"/>
<path d=" M 87 1435 h 10"/>
<path d=" M 189 1435 h 10"/>
</g>
<g class="sequence">
<path d=" M 10 1469 a 5 5 0 0 1 5 -5 a 5 5 0 0 1 5 5 a 5 5 0 0 1 -5 5 a 5 5 0 0 1 -5 -5 m 10 0 h 5"/>
<text class="comment" id="StringRaw" x="71" y="1474">
StringRaw</text>
<g class="sequence">
<g class="string">
<rect height="22" rx="10" ry="10" width="28" x="118" y="1458"/>
<text x="132" y="1474">
&#x27;</text>
</g>
<a class="link" xlink:href="#StringRawText">
<g class="symbol">
<rect height="22" width="124" x="156" y="1458"/>
<text x="218" y="1474">
StringRawText</text>
</g>
</a>
<g class="string">
<rect height="22" rx="10" ry="10" width="28" x="290" y="1458"/>
<text x="304" y="1474">
&#x27;</text>
</g>
<path d=" M 146 1469 h 10"/>
<path d=" M 280 1469 h 10"/>
</g>
<path d=" M 328 1469 h 5 a 5 5 0 0 1 5 -5 a 5 5 0 0 1 5 5 a 5 5 0 0 1 -5 5 a 5 5 0 0 1 -5 -5"/>
<path d=" M 25 1469 h 10"/>
<path d=" M 108 1469 h 10"/>
<path d=" M 318 1469 h 10"/>
</g>
<g class="sequence">
<path d=" M 10 1503 a 5 5 0 0 1 5 -5 a 5 5 0 0 1 5 5 a 5 5 0 0 1 -5 5 a 5 5 0 0 1 -5 -5 m 10 0 h 5"/>
<text class="comment" id="StringRawText" x="85" y="1508">
StringRawText</text>
<g class="string">
<rect height="22" rx="10" ry="10" width="60" x="146" y="1492"/>
<text x="176" y="1508">
[^&#x27;]*</text>
</g>
<path d=" M 216 1503 h 5 a 5 5 0 0 1 5 -5 a 5 5 0 0 1 5 5 a 5 5 0 0 1 -5 5 a 5 5 0 0 1 -5 -5"/>
<path d=" M 25 1503 h 10"/>
<path d=" M 136 1503 h 10"/>
<path d=" M 206 1503 h 10"/>
</g>
<g class="sequence">
<path d=" M 10 1537 a 5 5 0 0 1 5 -5 a 5 5 0 0 1 5 5 a 5 5 0 0 1 -5 5 a 5 5 0 0 1 -5 -5 m 10 0 h 5"/>
<text class="comment" id="StringNormal" x="82" y="1542">
StringNormal</text>
<g class="sequence">
<g class="string">
<rect height="22" rx="10" ry="10" width="28" x="139" y="1526"/>
<text x="153" y="1542">
&quot;</text>
</g>
<g class="repeat">
<path d=" M 177 1537 h 12 m 100 0 h 12 m -12 0 a 12 12 0 0 1 12 12 v 7 a 12 12 0 0 1 -12 12 m -52 0 h -48 a 12 12 0 0 1 -12 -12 v -7 a 12 12 0 0 1 12 -12"/>
<text class="comment" x="263" y="1573">
[0, ∞]</text>
<a class="link" xlink:href="#StringItem">
<g class="symbol">
<rect height="22" width="100" x="189" y="1526"/>
<text x="239" y="1542">
StringItem</text>
</g>
</a>
</g>
<g class="string">
<rect height="22" rx="10" ry="10" width="28" x="311" y="1526"/>
<text x="325" y="1542">
&quot;</text>
</g>
<path d=" M 167 1537 h 10"/>
<path d=" M 301 1537 h 10"/>
</g>
<path d=" M 349 1537 h 5 a 5 5 0 0 1 5 -5 a 5 5 0 0 1 5 5 a 5 5 0 0 1 -5 5 a 5 5 0 0 1 -5 -5"/>
<path d=" M 25 1537 h 10"/>
<path d=" M 129 1537 h 10"/>
<path d=" M 339 1537 h 10"/>
</g>
<g class="sequence">
<path d=" M 10 1601 a 5 5 0 0 1 5 -5 a 5 5 0 0 1 5 5 a 5 5 0 0 1 -5 5 a 5 5 0 0 1 -5 -5 m 10 0 h 5"/>
<text class="comment" id="StringItem" x="75" y="1606">
StringItem</text>
<g class="choice">
<path d=" M 125 1601 h 24 m 132 0 h 40"/>
<a class="link" xlink:href="#EscapedUnicode">
<g class="symbol">
<rect height="22" width="132" x="149" y="1590"/>
<text x="215" y="1606">
EscapedUnicode</text>
</g>
</a>
<path d=" M 125 1601 a 12 12 0 0 1 12 12 v 9 m 172 0 v -9 a 12 12 0 0 1 12 -12"/>
<path d=" M 137 1622 v 33 m 172 0 v -33"/>
<path d=" M 137 1622 v 0 a 12 12 0 0 0 12 12 m 148 0 h 0 a 12 12 0 0 0 12 -12 v 0"/>
<a class="link" xlink:href="#EscapedCharacter">
<g class="symbol">
<rect height="22" width="148" x="149" y="1623"/>
<text x="223" y="1639">
EscapedCharacter</text>
</g>
</a>
<path d=" M 137 1655 v 0 a 12 12 0 0 0 12 12 m 76 0 h 72 m -33 0 l -5 -5 m 0 10 l 5 -5 m 33 0 a 12 12 0 0 0 12 -12 v 0"/>
<a class="link" xlink:href="#TextAny">
<g class="symbol">
<rect height="22" width="76" x="149" y="1656"/>
<text x="187" y="1672">
TextAny</text>
</g>
</a>
</g>
<path d=" M 331 1601 h 5 a 5 5 0 0 1 5 -5 a 5 5 0 0 1 5 5 a 5 5 0 0 1 -5 5 a 5 5 0 0 1 -5 -5"/>
<path d=" M 25 1601 h 10"/>
<path d=" M 115 1601 h 10"/>
<path d=" M 321 1601 h 10"/>
</g>
<g class="sequence">
<path d=" M 10 1701 a 5 5 0 0 1 5 -5 a 5 5 0 0 1 5 5 a 5 5 0 0 1 -5 5 a 5 5 0 0 1 -5 -5 m 10 0 h 5"/>
<text class="comment" id="EscapedUnicode" x="89" y="1706">
EscapedUnicode</text>
<g class="sequence">
<g class="string">
<rect height="22" rx="10" ry="10" width="44" x="153" y="1690"/>
<text x="175" y="1706">
\u{</text>
</g>
<a class="link" xlink:href="#HEX">
<g class="symbol">
<rect height="22" width="44" x="207" y="1690"/>
<text x="229" y="1706">
HEX</text>
</g>
</a>
<g class="string">
<rect height="22" rx="10" ry="10" width="28" x="261" y="1690"/>
<text x="275" y="1706">
}</text>
</g>
<path d=" M 197 1701 h 10"/>
<path d=" M 251 1701 h 10"/>
</g>
<path d=" M 299 1701 h 5 a 5 5 0 0 1 5 -5 a 5 5 0 0 1 5 5 a 5 5 0 0 1 -5 5 a 5 5 0 0 1 -5 -5"/>
<path d=" M 25 1701 h 10"/>
<path d=" M 143 1701 h 10"/>
<path d=" M 289 1701 h 10"/>
</g>
<g class="sequence">
<path d=" M 10 1735 a 5 5 0 0 1 5 -5 a 5 5 0 0 1 5 5 a 5 5 0 0 1 -5 5 a 5 5 0 0 1 -5 -5 m 10 0 h 5"/>
<text class="comment" id="EscapedCharacter" x="96" y="1740">
EscapedCharacter</text>
<g class="string">
<rect height="22" rx="10" ry="10" width="44" x="167" y="1724"/>
<text x="189" y="1740">
\\.</text>
</g>
<path d=" M 221 1735 h 5 a 5 5 0 0 1 5 -5 a 5 5 0 0 1 5 5 a 5 5 0 0 1 -5 5 a 5 5 0 0 1 -5 -5"/>
<path d=" M 25 1735 h 10"/>
<path d=" M 157 1735 h 10"/>
<path d=" M 211 1735 h 10"/>
</g>
<g class="sequence">
<path d=" M 10 1769 a 5 5 0 0 1 5 -5 a 5 5 0 0 1 5 5 a 5 5 0 0 1 -5 5 a 5 5 0 0 1 -5 -5 m 10 0 h 5"/>
<text class="comment" id="HEX" x="50" y="1774">
HEX</text>
<g class="repeat">
<path d=" M 76 1769 h 12 m 170 0 h 12 m -12 0 a 12 12 0 0 1 12 12 v 7 a 12 12 0 0 1 -12 12 m -52 0 h -118 m 62 0 l 5 -5 m 0 10 l -5 -5 m -62 0 a 12 12 0 0 1 -12 -12 v -7 a 12 12 0 0 1 12 -12"/>
<text class="comment" x="232" y="1805">
[1, 6]</text>
<g class="sequence">
<g class="character">
<rect height="22" rx="10" ry="10" width="52" x="88" y="1758"/>
<text x="114" y="1774">
HIDE</text>
</g>
<g class="string">
<rect height="22" rx="10" ry="10" width="108" x="150" y="1758"/>
<text x="204" y="1774">
[0-9a-fA-F]</text>
</g>
<path d=" M 140 1769 h 10"/>
</g>
</g>
<path d=" M 280 1769 h 5 a 5 5 0 0 1 5 -5 a 5 5 0 0 1 5 5 a 5 5 0 0 1 -5 5 a 5 5 0 0 1 -5 -5"/>
<path d=" M 25 1769 h 10"/>
<path d=" M 66 1769 h 10"/>
<path d=" M 270 1769 h 10"/>
</g>
<g class="sequence">
<path d=" M 10 1833 a 5 5 0 0 1 5 -5 a 5 5 0 0 1 5 5 a 5 5 0 0 1 -5 5 a 5 5 0 0 1 -5 -5 m 10 0 h 5"/>
<text class="comment" id="TextAny" x="64" y="1838">
TextAny</text>
<g class="string">
<rect height="22" rx="10" ry="10" width="76" x="104" y="1822"/>
<text x="142" y="1838">
[^&quot;\\]+</text>
</g>
<path d=" M 190 1833 h 5 a 5 5 0 0 1 5 -5 a 5 5 0 0 1 5 5 a 5 5 0 0 1 -5 5 a 5 5 0 0 1 -5 -5"/>
<path d=" M 25 1833 h 10"/>
<path d=" M 94 1833 h 10"/>
<path d=" M 180 1833 h 10"/>
</g>
<g class="sequence">
<path d=" M 10 1867 a 5 5 0 0 1 5 -5 a 5 5 0 0 1 5 5 a 5 5 0 0 1 -5 5 a 5 5 0 0 1 -5 -5 m 10 0 h 5"/>
<text class="comment" id="Identifier" x="75" y="1872">
Identifier</text>
<g class="string">
<rect height="22" rx="10" ry="10" width="292" x="125" y="1856"/>
<text x="271" y="1872">
[_\p{XID_start}]\p{XID_continue}*</text>
</g>
<path d=" M 427 1867 h 5 a 5 5 0 0 1 5 -5 a 5 5 0 0 1 5 5 a 5 5 0 0 1 -5 5 a 5 5 0 0 1 -5 -5"/>
<path d=" M 25 1867 h 10"/>
<path d=" M 115 1867 h 10"/>
<path d=" M 417 1867 h 10"/>
</g>
<g class="sequence">
<path d=" M 10 1901 a 5 5 0 0 1 5 -5 a 5 5 0 0 1 5 5 a 5 5 0 0 1 -5 5 a 5 5 0 0 1 -5 -5 m 10 0 h 5"/>
<text class="comment" id="Integer" x="64" y="1906">
Integer</text>
<g class="string">
<rect height="22" rx="10" ry="10" width="124" x="104" y="1890"/>
<text x="166" y="1906">
0|[1-9][0-9]*</text>
</g>
<path d=" M 238 1901 h 5 a 5 5 0 0 1 5 -5 a 5 5 0 0 1 5 5 a 5 5 0 0 1 -5 5 a 5 5 0 0 1 -5 -5"/>
<path d=" M 25 1901 h 10"/>
<path d=" M 94 1901 h 10"/>
<path d=" M 228 1901 h 10"/>
</g>
<g class="sequence">
<path d=" M 10 1935 a 5 5 0 0 1 5 -5 a 5 5 0 0 1 5 5 a 5 5 0 0 1 -5 5 a 5 5 0 0 1 -5 -5 m 10 0 h 5"/>
<text class="comment" id="RangeExact" x="75" y="1940">
RangeExact</text>
<g class="sequence">
<g class="string">
<rect height="22" rx="10" ry="10" width="28" x="125" y="1924"/>
<text x="139" y="1940">
{</text>
</g>
<g class="character">
<rect height="22" rx="10" ry="10" width="52" x="163" y="1924"/>
<text x="189" y="1940">
HIDE</text>
</g>
<a class="link" xlink:href="#Integer">
<g class="symbol">
<rect height="22" width="76" x="225" y="1924"/>
<text x="263" y="1940">
Integer</text>
</g>
</a>
<g class="character">
<rect height="22" rx="10" ry="10" width="52" x="311" y="1924"/>
<text x="337" y="1940">
HIDE</text>
</g>
<g class="string">
<rect height="22" rx="10" ry="10" width="28" x="373" y="1924"/>
<text x="387" y="1940">
}</text>
</g>
<path d=" M 153 1935 h 10"/>
<path d=" M 215 1935 h 10"/>
<path d=" M 301 1935 h 10"/>
<path d=" M 363 1935 h 10"/>
</g>
<path d=" M 411 1935 h 5 a 5 5 0 0 1 5 -5 a 5 5 0 0 1 5 5 a 5 5 0 0 1 -5 5 a 5 5 0 0 1 -5 -5"/>
<path d=" M 25 1935 h 10"/>
<path d=" M 115 1935 h 10"/>
<path d=" M 401 1935 h 10"/>
</g>
<g class="sequence">
<path d=" M 10 1982 a 5 5 0 0 1 5 -5 a 5 5 0 0 1 5 5 a 5 5 0 0 1 -5 5 a 5 5 0 0 1 -5 -5 m 10 0 h 5"/>
<text class="comment" id="Range" x="57" y="1987">
Range</text>
<g class="sequence">
<g class="string">
<rect height="22" rx="10" ry="10" width="28" x="90" y="1971"/>
<text x="104" y="1987">
{</text>
</g>
<g class="character">
<rect height="22" rx="10" ry="10" width="52" x="128" y="1971"/>
<text x="154" y="1987">
HIDE</text>
</g>
<g class="optional">
<path d=" M 190 1982 h 24 m -24 0 a 12 12 0 0 0 12 -12 v 0 a 12 12 0 0 1 12 -12 h 76 m -35 0 l -5 -5 m 0 10 l 5 -5 m 35 0 a 12 12 0 0 1 12 12 v 0 a 12 12 0 0 0 12 12 h -24"/>
<a class="link" xlink:href="#Integer">
<g class="symbol">
<rect height="22" width="76" x="214" y="1971"/>
<text x="252" y="1987">
Integer</text>
</g>
</a>
</g>
<g class="character">
<rect height="22" rx="10" ry="10" width="52" x="324" y="1971"/>
<text x="350" y="1987">
HIDE</text>
</g>
<g class="string">
<rect height="22" rx="10" ry="10" width="28" x="386" y="1971"/>
<text x="400" y="1987">
,</text>
</g>
<g class="character">
<rect height="22" rx="10" ry="10" width="52" x="424" y="1971"/>
<text x="450" y="1987">
HIDE</text>
</g>
<g class="optional">
<path d=" M 486 1982 h 24 m -24 0 a 12 12 0 0 0 12 -12 v 0 a 12 12 0 0 1 12 -12 h 76 m -35 0 l -5 -5 m 0 10 l 5 -5 m 35 0 a 12 12 0 0 1 12 12 v 0 a 12 12 0 0 0 12 12 h -24"/>
<a class="link" xlink:href="#Integer">
<g class="symbol">
<rect height="22" width="76" x="510" y="1971"/>
<text x="548" y="1987">
Integer</text>
</g>
</a>
</g>
<g class="character">
<rect height="22" rx="10" ry="10" width="52" x="620" y="1971"/>
<text x="646" y="1987">
HIDE</text>
</g>
<g class="string">
<rect height="22" rx="10" ry="10" width="28" x="682" y="1971"/>
<text x="696" y="1987">
}</text>
</g>
<path d=" M 118 1982 h 10"/>
<path d=" M 180 1982 h 10"/>
<path d=" M 314 1982 h 10"/>
<path d=" M 376 1982 h 10"/>
<path d=" M 414 1982 h 10"/>
<path d=" M 476 1982 h 10"/>
<path d=" M 610 1982 h 10"/>
<path d=" M 672 1982 h 10"/>
</g>
<path d=" M 720 1982 h 5 a 5 5 0 0 1 5 -5 a 5 5 0 0 1 5 5 a 5 5 0 0 1 -5 5 a 5 5 0 0 1 -5 -5"/>
<path d=" M 25 1982 h 10"/>
<path d=" M 80 1982 h 10"/>
<path d=" M 710 1982 h 10"/>
</g>
<g class="sequence">
<path d=" M 10 2016 a 5 5 0 0 1 5 -5 a 5 5 0 0 1 5 5 a 5 5 0 0 1 -5 5 a 5 5 0 0 1 -5 -5 m 10 0 h 5"/>
<text class="comment" id="Boolean" x="64" y="2021">
Boolean</text>
<g class="choice">
<path d=" M 104 2016 h 24 m 76 0 h 32"/>
<g class="string">
<rect height="22" rx="10" ry="10" width="76" x="128" y="2005"/>
<text x="166" y="2021">
真|true</text>
</g>
<path d=" M 104 2016 a 12 12 0 0 1 12 12 v 9 m 108 0 v -9 a 12 12 0 0 1 12 -12"/>
<path d=" M 116 2037 v 0 a 12 12 0 0 0 12 12 m 84 0 h 0 a 12 12 0 0 0 12 -12 v 0"/>
<g class="string">
<rect height="22" rx="10" ry="10" width="84" x="128" y="2038"/>
<text x="170" y="2054">
假|false</text>
</g>
</g>
<path d=" M 246 2016 h 5 a 5 5 0 0 1 5 -5 a 5 5 0 0 1 5 5 a 5 5 0 0 1 -5 5 a 5 5 0 0 1 -5 -5"/>
<path d=" M 25 2016 h 10"/>
<path d=" M 94 2016 h 10"/>
<path d=" M 236 2016 h 10"/>
</g>
</g>
</svg>