<svg class="railroad" viewBox="0 0 1101 1984" xmlns="http://www.w3.org/2000/svg" xmlns:xlink="http://www.w3.org/1999/xlink">
<style type="text/css">svg.railroad{background-color:hsl(30,20%,95%);background-size:15px 15px;background-image:linear-gradient(to right,rgba(30,30,30,.05) 1px,transparent 1px),linear-gradient(to bottom,rgba(30,30,30,.05) 1px,transparent 1px);}svg.railroad path{stroke-width:3px;stroke:black;fill:transparent;}svg.railroad .debug{stroke-width:1px;stroke:red;}svg.railroad text{font-size:14px;font-family:monospace;text-anchor:middle;}svg.railroad .nonterminal text{font-weight:bold;}svg.railroad text.comment{font-family:serif;font-style:italic;font-size:12px;}svg.railroad rect{stroke-width:3px;stroke:black;}svg.railroad g.labeledbox>rect{stroke-width:1px;stroke:grey;stroke-dasharray:5px;fill:rgba(90,90,150,.1);}svg.railroad .symbol>rect{fill:rgba(90,90,150,.1);}svg.railroad .regex>rect{fill:honeydew;}svg.railroad .string>rect{fill:cornsilk;}svg.railroad .character>rect{fill:lightcoral;}</style>
<g class="verticalgrid">
<g class="sequence">
<path d=" M 10 21 a 5 5 0 0 1 5 -5 a 5 5 0 0 1 5 5 a 5 5 0 0 1 -5 5 a 5 5 0 0 1 -5 -5 m 10 0 h 5"/>
<text class="comment" id="Root" x="54" y="26">
Root</text>
<g class="sequence">
<g class="repeat">
<path d=" M 83 21 h 12 m 154 0 h 12 m -12 0 a 12 12 0 0 1 12 12 v 7 a 12 12 0 0 1 -12 12 m -52 0 h -102 m 54 0 l 5 -5 m 0 10 l -5 -5 m -54 0 a 12 12 0 0 1 -12 -12 v -7 a 12 12 0 0 1 12 -12"/>
<text class="comment" x="223" y="57">
[0, ∞]</text>
<g class="sequence">
<g class="character">
<rect height="22" rx="10" ry="10" width="52" x="95" y="10"/>
<text x="121" y="26">
HIDE</text>
</g>
<a class="link" xlink:href="#Statement">
<g class="symbol">
<rect height="22" width="92" x="157" y="10"/>
<text x="203" y="26">
Statement</text>
</g>
</a>
<path d=" M 147 21 h 10"/>
</g>
</g>
<g class="character">
<rect height="22" rx="10" ry="10" width="52" x="271" y="10"/>
<text x="297" y="26">
HIDE</text>
</g>
<g class="character">
<rect height="22" rx="10" ry="10" width="116" x="333" y="10"/>
<text x="391" y="26">
END_OF_INPUT</text>
</g>
<path d=" M 261 21 h 10"/>
<path d=" M 323 21 h 10"/>
</g>
<path d=" M 459 21 h 5 a 5 5 0 0 1 5 -5 a 5 5 0 0 1 5 5 a 5 5 0 0 1 -5 5 a 5 5 0 0 1 -5 -5"/>
<path d=" M 25 21 h 10"/>
<path d=" M 73 21 h 10"/>
<path d=" M 449 21 h 10"/>
</g>
<g class="sequence">
<path d=" M 10 85 a 5 5 0 0 1 5 -5 a 5 5 0 0 1 5 5 a 5 5 0 0 1 -5 5 a 5 5 0 0 1 -5 -5 m 10 0 h 5"/>
<text class="comment" id="Statement" x="71" y="90">
Statement</text>
<g class="choice">
<path d=" M 118 85 h 24 m 156 0 h 24"/>
<a class="link" xlink:href="#PropertyStatement">
<g class="symbol">
<rect height="22" width="156" x="142" y="74"/>
<text x="220" y="90">
PropertyStatement</text>
</g>
</a>
<path d=" M 118 85 a 12 12 0 0 1 12 12 v 9 m 180 0 v -9 a 12 12 0 0 1 12 -12"/>
<path d=" M 130 106 v 0 a 12 12 0 0 0 12 12 m 132 0 h 24 a 12 12 0 0 0 12 -12 v 0"/>
<a class="link" xlink:href="#TraitStatement">
<g class="symbol">
<rect height="22" width="132" x="142" y="107"/>
<text x="208" y="123">
TraitStatement</text>
</g>
</a>
</g>
<path d=" M 332 85 h 5 a 5 5 0 0 1 5 -5 a 5 5 0 0 1 5 5 a 5 5 0 0 1 -5 5 a 5 5 0 0 1 -5 -5"/>
<path d=" M 25 85 h 10"/>
<path d=" M 108 85 h 10"/>
<path d=" M 322 85 h 10"/>
</g>
<g class="sequence">
<path d=" M 10 152 a 5 5 0 0 1 5 -5 a 5 5 0 0 1 5 5 a 5 5 0 0 1 -5 5 a 5 5 0 0 1 -5 -5 m 10 0 h 5"/>
<text class="comment" id="PropertyStatement" x="99" y="157">
PropertyStatement</text>
<g class="sequence">
<a class="link" xlink:href="#KW_PROPERTY">
<g class="symbol">
<rect height="22" width="108" x="174" y="141"/>
<text x="228" y="157">
KW_PROPERTY</text>
</g>
</a>
<g class="character">
<rect height="22" rx="10" ry="10" width="52" x="292" y="141"/>
<text x="318" y="157">
HIDE</text>
</g>
<a class="link" xlink:href="#Identifier">
<g class="symbol">
<rect height="22" width="100" x="354" y="141"/>
<text x="404" y="157">
Identifier</text>
</g>
</a>
<g class="character">
<rect height="22" rx="10" ry="10" width="52" x="464" y="141"/>
<text x="490" y="157">
HIDE</text>
</g>
<g class="string">
<rect height="22" rx="10" ry="10" width="28" x="526" y="141"/>
<text x="540" y="157">
{</text>
</g>
<g class="character">
<rect height="22" rx="10" ry="10" width="52" x="564" y="141"/>
<text x="590" y="157">
HIDE</text>
</g>
<g class="repeat">
<path d=" M 626 152 h 12 m 178 0 h 12 m -12 0 a 12 12 0 0 1 12 12 v 7 a 12 12 0 0 1 -12 12 m -52 0 h -126 m 66 0 l 5 -5 m 0 10 l -5 -5 m -66 0 a 12 12 0 0 1 -12 -12 v -7 a 12 12 0 0 1 12 -12"/>
<text class="comment" x="790" y="188">
[0, ∞]</text>
<g class="sequence">
<g class="character">
<rect height="22" rx="10" ry="10" width="52" x="638" y="141"/>
<text x="664" y="157">
HIDE</text>
</g>
<a class="link" xlink:href="#PropertyItem">
<g class="symbol">
<rect height="22" width="116" x="700" y="141"/>
<text x="758" y="157">
PropertyItem</text>
</g>
</a>
<path d=" M 690 152 h 10"/>
</g>
</g>
<g class="character">
<rect height="22" rx="10" ry="10" width="52" x="838" y="141"/>
<text x="864" y="157">
HIDE</text>
</g>
<g class="string">
<rect height="22" rx="10" ry="10" width="28" x="900" y="141"/>
<text x="914" y="157">
}</text>
</g>
<path d=" M 282 152 h 10"/>
<path d=" M 344 152 h 10"/>
<path d=" M 454 152 h 10"/>
<path d=" M 516 152 h 10"/>
<path d=" M 554 152 h 10"/>
<path d=" M 616 152 h 10"/>
<path d=" M 828 152 h 10"/>
<path d=" M 890 152 h 10"/>
</g>
<path d=" M 938 152 h 5 a 5 5 0 0 1 5 -5 a 5 5 0 0 1 5 5 a 5 5 0 0 1 -5 5 a 5 5 0 0 1 -5 -5"/>
<path d=" M 25 152 h 10"/>
<path d=" M 164 152 h 10"/>
<path d=" M 928 152 h 10"/>
</g>
<g class="sequence">
<path d=" M 10 216 a 5 5 0 0 1 5 -5 a 5 5 0 0 1 5 5 a 5 5 0 0 1 -5 5 a 5 5 0 0 1 -5 -5 m 10 0 h 5"/>
<text class="comment" id="PropertyItem" x="82" y="221">
PropertyItem</text>
<g class="choice">
<path d=" M 139 216 h 24 m 108 0 h 104 m -49 0 l -5 -5 m 0 10 l 5 -5 m 49 0"/>
<a class="link" xlink:href="#IdStatement">
<g class="symbol">
<rect height="22" width="108" x="163" y="205"/>
<text x="217" y="221">
IdStatement</text>
</g>
</a>
<path d=" M 139 216 a 12 12 0 0 1 12 12 v 9 m 212 0 v -9 a 12 12 0 0 1 12 -12"/>
<path d=" M 151 237 v 0 a 12 12 0 0 0 12 12 m 188 0 h 0 a 12 12 0 0 0 12 -12 v 0"/>
<a class="link" xlink:href="#DescriptionStatement">
<g class="symbol">
<rect height="22" width="188" x="163" y="238"/>
<text x="257" y="254">
DescriptionStatement</text>
</g>
</a>
</g>
<path d=" M 385 216 h 5 a 5 5 0 0 1 5 -5 a 5 5 0 0 1 5 5 a 5 5 0 0 1 -5 5 a 5 5 0 0 1 -5 -5"/>
<path d=" M 25 216 h 10"/>
<path d=" M 129 216 h 10"/>
<path d=" M 375 216 h 10"/>
</g>
<g class="sequence">
<path d=" M 10 283 a 5 5 0 0 1 5 -5 a 5 5 0 0 1 5 5 a 5 5 0 0 1 -5 5 a 5 5 0 0 1 -5 -5 m 10 0 h 5"/>
<text class="comment" id="TraitStatement" x="89" y="288">
TraitStatement</text>
<g class="sequence">
<a class="link" xlink:href="#KW_TRAIT">
<g class="symbol">
<rect height="22" width="84" x="153" y="272"/>
<text x="195" y="288">
KW_TRAIT</text>
</g>
</a>
<g class="character">
<rect height="22" rx="10" ry="10" width="52" x="247" y="272"/>
<text x="273" y="288">
HIDE</text>
</g>
<a class="link" xlink:href="#Identifier">
<g class="symbol">
<rect height="22" width="100" x="309" y="272"/>
<text x="359" y="288">
Identifier</text>
</g>
</a>
<g class="character">
<rect height="22" rx="10" ry="10" width="52" x="419" y="272"/>
<text x="445" y="288">
HIDE</text>
</g>
<g class="string">
<rect height="22" rx="10" ry="10" width="28" x="481" y="272"/>
<text x="495" y="288">
{</text>
</g>
<g class="character">
<rect height="22" rx="10" ry="10" width="52" x="519" y="272"/>
<text x="545" y="288">
HIDE</text>
</g>
<g class="repeat">
<path d=" M 581 283 h 12 m 154 0 h 12 m -12 0 a 12 12 0 0 1 12 12 v 7 a 12 12 0 0 1 -12 12 m -52 0 h -102 m 54 0 l 5 -5 m 0 10 l -5 -5 m -54 0 a 12 12 0 0 1 -12 -12 v -7 a 12 12 0 0 1 12 -12"/>
<text class="comment" x="721" y="319">
[0, ∞]</text>
<g class="sequence">
<g class="character">
<rect height="22" rx="10" ry="10" width="52" x="593" y="272"/>
<text x="619" y="288">
HIDE</text>
</g>
<a class="link" xlink:href="#TraitItem">
<g class="symbol">
<rect height="22" width="92" x="655" y="272"/>
<text x="701" y="288">
TraitItem</text>
</g>
</a>
<path d=" M 645 283 h 10"/>
</g>
</g>
<g class="character">
<rect height="22" rx="10" ry="10" width="52" x="769" y="272"/>
<text x="795" y="288">
HIDE</text>
</g>
<g class="string">
<rect height="22" rx="10" ry="10" width="28" x="831" y="272"/>
<text x="845" y="288">
}</text>
</g>
<path d=" M 237 283 h 10"/>
<path d=" M 299 283 h 10"/>
<path d=" M 409 283 h 10"/>
<path d=" M 471 283 h 10"/>
<path d=" M 509 283 h 10"/>
<path d=" M 571 283 h 10"/>
<path d=" M 759 283 h 10"/>
<path d=" M 821 283 h 10"/>
</g>
<path d=" M 869 283 h 5 a 5 5 0 0 1 5 -5 a 5 5 0 0 1 5 5 a 5 5 0 0 1 -5 5 a 5 5 0 0 1 -5 -5"/>
<path d=" M 25 283 h 10"/>
<path d=" M 143 283 h 10"/>
<path d=" M 859 283 h 10"/>
</g>
<g class="sequence">
<path d=" M 10 347 a 5 5 0 0 1 5 -5 a 5 5 0 0 1 5 5 a 5 5 0 0 1 -5 5 a 5 5 0 0 1 -5 -5 m 10 0 h 5"/>
<text class="comment" id="TraitItem" x="71" y="352">
TraitItem</text>
<g class="choice">
<path d=" M 118 347 h 24 m 108 0 h 104 m -49 0 l -5 -5 m 0 10 l 5 -5 m 49 0"/>
<a class="link" xlink:href="#IdStatement">
<g class="symbol">
<rect height="22" width="108" x="142" y="336"/>
<text x="196" y="352">
IdStatement</text>
</g>
</a>
<path d=" M 118 347 a 12 12 0 0 1 12 12 v 9 m 212 0 v -9 a 12 12 0 0 1 12 -12"/>
<path d=" M 130 368 v 0 a 12 12 0 0 0 12 12 m 188 0 h 0 a 12 12 0 0 0 12 -12 v 0"/>
<a class="link" xlink:href="#DescriptionStatement">
<g class="symbol">
<rect height="22" width="188" x="142" y="369"/>
<text x="236" y="385">
DescriptionStatement</text>
</g>
</a>
</g>
<path d=" M 364 347 h 5 a 5 5 0 0 1 5 -5 a 5 5 0 0 1 5 5 a 5 5 0 0 1 -5 5 a 5 5 0 0 1 -5 -5"/>
<path d=" M 25 347 h 10"/>
<path d=" M 108 347 h 10"/>
<path d=" M 354 347 h 10"/>
</g>
<g class="sequence">
<path d=" M 10 414 a 5 5 0 0 1 5 -5 a 5 5 0 0 1 5 5 a 5 5 0 0 1 -5 5 a 5 5 0 0 1 -5 -5 m 10 0 h 5"/>
<text class="comment" id="TraitProperty" x="85" y="419">
TraitProperty</text>
<g class="sequence">
<a class="link" xlink:href="#Identifier">
<g class="symbol">
<rect height="22" width="100" x="146" y="403"/>
<text x="196" y="419">
Identifier</text>
</g>
</a>
<g class="character">
<rect height="22" rx="10" ry="10" width="52" x="256" y="403"/>
<text x="282" y="419">
HIDE</text>
</g>
<g class="string">
<rect height="22" rx="10" ry="10" width="28" x="318" y="403"/>
<text x="332" y="419">
:</text>
</g>
<g class="character">
<rect height="22" rx="10" ry="10" width="52" x="356" y="403"/>
<text x="382" y="419">
HIDE</text>
</g>
<a class="link" xlink:href="#Atomic">
<g class="symbol">
<rect height="22" width="68" x="418" y="403"/>
<text x="452" y="419">
Atomic</text>
</g>
</a>
<path d=" M 246 414 h 10"/>
<path d=" M 308 414 h 10"/>
<path d=" M 346 414 h 10"/>
<path d=" M 408 414 h 10"/>
</g>
<path d=" M 496 414 h 5 a 5 5 0 0 1 5 -5 a 5 5 0 0 1 5 5 a 5 5 0 0 1 -5 5 a 5 5 0 0 1 -5 -5"/>
<path d=" M 25 414 h 10"/>
<path d=" M 136 414 h 10"/>
<path d=" M 486 414 h 10"/>
</g>
<g class="sequence">
<path d=" M 10 448 a 5 5 0 0 1 5 -5 a 5 5 0 0 1 5 5 a 5 5 0 0 1 -5 5 a 5 5 0 0 1 -5 -5 m 10 0 h 5"/>
<text class="comment" id="EventStatement" x="89" y="453">
EventStatement</text>
<g class="sequence">
<a class="link" xlink:href="#KW_EVENT">
<g class="symbol">
<rect height="22" width="84" x="153" y="437"/>
<text x="195" y="453">
KW_EVENT</text>
</g>
</a>
<g class="character">
<rect height="22" rx="10" ry="10" width="52" x="247" y="437"/>
<text x="273" y="453">
HIDE</text>
</g>
<a class="link" xlink:href="#Identifier">
<g class="symbol">
<rect height="22" width="100" x="309" y="437"/>
<text x="359" y="453">
Identifier</text>
</g>
</a>
<g class="character">
<rect height="22" rx="10" ry="10" width="52" x="419" y="437"/>
<text x="445" y="453">
HIDE</text>
</g>
<a class="link" xlink:href="#EventBlock">
<g class="symbol">
<rect height="22" width="100" x="481" y="437"/>
<text x="531" y="453">
EventBlock</text>
</g>
</a>
<path d=" M 237 448 h 10"/>
<path d=" M 299 448 h 10"/>
<path d=" M 409 448 h 10"/>
<path d=" M 471 448 h 10"/>
</g>
<path d=" M 591 448 h 5 a 5 5 0 0 1 5 -5 a 5 5 0 0 1 5 5 a 5 5 0 0 1 -5 5 a 5 5 0 0 1 -5 -5"/>
<path d=" M 25 448 h 10"/>
<path d=" M 143 448 h 10"/>
<path d=" M 581 448 h 10"/>
</g>
<g class="sequence">
<path d=" M 10 482 a 5 5 0 0 1 5 -5 a 5 5 0 0 1 5 5 a 5 5 0 0 1 -5 5 a 5 5 0 0 1 -5 -5 m 10 0 h 5"/>
<text class="comment" id="EventBlock" x="75" y="487">
EventBlock</text>
<g class="sequence">
<g class="string">
<rect height="22" rx="10" ry="10" width="28" x="125" y="471"/>
<text x="139" y="487">
{</text>
</g>
<g class="character">
<rect height="22" rx="10" ry="10" width="52" x="163" y="471"/>
<text x="189" y="487">
HIDE</text>
</g>
<g class="repeat">
<path d=" M 225 482 h 12 m 186 0 h 12 m -12 0 a 12 12 0 0 1 12 12 v 7 a 12 12 0 0 1 -12 12 m -52 0 h -134 m 70 0 l 5 -5 m 0 10 l -5 -5 m -70 0 a 12 12 0 0 1 -12 -12 v -7 a 12 12 0 0 1 12 -12"/>
<text class="comment" x="397" y="518">
[0, ∞]</text>
<g class="sequence">
<g class="character">
<rect height="22" rx="10" ry="10" width="52" x="237" y="471"/>
<text x="263" y="487">
HIDE</text>
</g>
<a class="link" xlink:href="#EventProperty">
<g class="symbol">
<rect height="22" width="124" x="299" y="471"/>
<text x="361" y="487">
EventProperty</text>
</g>
</a>
<path d=" M 289 482 h 10"/>
</g>
</g>
<g class="character">
<rect height="22" rx="10" ry="10" width="52" x="445" y="471"/>
<text x="471" y="487">
HIDE</text>
</g>
<g class="string">
<rect height="22" rx="10" ry="10" width="28" x="507" y="471"/>
<text x="521" y="487">
}</text>
</g>
<path d=" M 153 482 h 10"/>
<path d=" M 215 482 h 10"/>
<path d=" M 435 482 h 10"/>
<path d=" M 497 482 h 10"/>
</g>
<path d=" M 545 482 h 5 a 5 5 0 0 1 5 -5 a 5 5 0 0 1 5 5 a 5 5 0 0 1 -5 5 a 5 5 0 0 1 -5 -5"/>
<path d=" M 25 482 h 10"/>
<path d=" M 115 482 h 10"/>
<path d=" M 535 482 h 10"/>
</g>
<g class="sequence">
<path d=" M 10 559 a 5 5 0 0 1 5 -5 a 5 5 0 0 1 5 5 a 5 5 0 0 1 -5 5 a 5 5 0 0 1 -5 -5 m 10 0 h 5"/>
<text class="comment" id="EventProperty" x="85" y="564">
EventProperty</text>
<g class="sequence">
<a class="link" xlink:href="#Identifier">
<g class="symbol">
<rect height="22" width="100" x="146" y="548"/>
<text x="196" y="564">
Identifier</text>
</g>
</a>
<g class="character">
<rect height="22" rx="10" ry="10" width="52" x="256" y="548"/>
<text x="282" y="564">
HIDE</text>
</g>
<g class="choice">
<path d=" M 318 559 h 24 m 28 0 h 24"/>
<g class="string">
<rect height="22" rx="10" ry="10" width="28" x="342" y="548"/>
<text x="356" y="564">
:</text>
</g>
<path d=" M 318 559 a 12 12 0 0 1 12 12 v 9 m 52 0 v -9 a 12 12 0 0 1 12 -12"/>
<path d=" M 330 580 v 0 a 12 12 0 0 0 12 12 m 28 0 h 0 a 12 12 0 0 0 12 -12 v 0"/>
<g class="string">
<rect height="22" rx="10" ry="10" width="28" x="342" y="581"/>
<text x="356" y="597">
[</text>
</g>
</g>
<g class="character">
<rect height="22" rx="10" ry="10" width="52" x="404" y="548"/>
<text x="430" y="564">
HIDE</text>
</g>
<a class="link" xlink:href="#Expression">
<g class="symbol">
<rect height="22" width="100" x="466" y="548"/>
<text x="516" y="564">
Expression</text>
</g>
</a>
<g class="character">
<rect height="22" rx="10" ry="10" width="52" x="576" y="548"/>
<text x="602" y="564">
HIDE</text>
</g>
<g class="optional">
<path d=" M 638 559 h 24 m -24 0 a 12 12 0 0 0 12 -12 v 0 a 12 12 0 0 1 12 -12 h 348 m -171 0 l -5 -5 m 0 10 l 5 -5 m 171 0 a 12 12 0 0 1 12 12 v 0 a 12 12 0 0 0 12 12 h -24"/>
<g class="choice">
<path d=" M 662 559 h 24 m 28 0 h 296 m -145 0 l -5 -5 m 0 10 l 5 -5 m 145 0"/>
<g class="string">
<rect height="22" rx="10" ry="10" width="28" x="686" y="548"/>
<text x="700" y="564">
]</text>
</g>
<path d=" M 662 559 a 12 12 0 0 1 12 12 v 9 m 324 0 v -9 a 12 12 0 0 1 12 -12"/>
<path d=" M 674 580 v 33 m 324 0 v -33"/>
<path d=" M 674 580 v 0 a 12 12 0 0 0 12 12 m 300 0 h 0 a 12 12 0 0 0 12 -12 v 0"/>
<g class="sequence">
<g class="string">
<rect height="22" rx="10" ry="10" width="28" x="686" y="581"/>
<text x="700" y="597">
{</text>
</g>
<g class="character">
<rect height="22" rx="10" ry="10" width="52" x="724" y="581"/>
<text x="750" y="597">
HIDE</text>
</g>
<a class="link" xlink:href="#EventBlock">
<g class="symbol">
<rect height="22" width="100" x="786" y="581"/>
<text x="836" y="597">
EventBlock</text>
</g>
</a>
<g class="character">
<rect height="22" rx="10" ry="10" width="52" x="896" y="581"/>
<text x="922" y="597">
HIDE</text>
</g>
<g class="string">
<rect height="22" rx="10" ry="10" width="28" x="958" y="581"/>
<text x="972" y="597">
}</text>
</g>
<path d=" M 714 592 h 10"/>
<path d=" M 776 592 h 10"/>
<path d=" M 886 592 h 10"/>
<path d=" M 948 592 h 10"/>
</g>
<path d=" M 674 613 v 0 a 12 12 0 0 0 12 12 m 100 0 h 200 m -97 0 l -5 -5 m 0 10 l 5 -5 m 97 0 a 12 12 0 0 0 12 -12 v 0"/>
<a class="link" xlink:href="#EventBlock">
<g class="symbol">
<rect height="22" width="100" x="686" y="614"/>
<text x="736" y="630">
EventBlock</text>
</g>
</a>
</g>
</g>
<path d=" M 246 559 h 10"/>
<path d=" M 308 559 h 10"/>
<path d=" M 394 559 h 10"/>
<path d=" M 456 559 h 10"/>
<path d=" M 566 559 h 10"/>
<path d=" M 628 559 h 10"/>
</g>
<path d=" M 1044 559 h 5 a 5 5 0 0 1 5 -5 a 5 5 0 0 1 5 5 a 5 5 0 0 1 -5 5 a 5 5 0 0 1 -5 -5"/>
<path d=" M 25 559 h 10"/>
<path d=" M 136 559 h 10"/>
<path d=" M 1034 559 h 10"/>
</g>
<g class="sequence">
<path d=" M 10 659 a 5 5 0 0 1 5 -5 a 5 5 0 0 1 5 5 a 5 5 0 0 1 -5 5 a 5 5 0 0 1 -5 -5 m 10 0 h 5"/>
<text class="comment" id="IdStatement" x="78" y="664">
IdStatement</text>
<g class="sequence">
<a class="link" xlink:href="#KW_ID">
<g class="symbol">
<rect height="22" width="60" x="132" y="648"/>
<text x="162" y="664">
KW_ID</text>
</g>
</a>
<g class="character">
<rect height="22" rx="10" ry="10" width="52" x="202" y="648"/>
<text x="228" y="664">
HIDE</text>
</g>
<a class="link" xlink:href="#Integer">
<g class="symbol">
<rect height="22" width="76" x="264" y="648"/>
<text x="302" y="664">
Integer</text>
</g>
</a>
<path d=" M 192 659 h 10"/>
<path d=" M 254 659 h 10"/>
</g>
<path d=" M 350 659 h 5 a 5 5 0 0 1 5 -5 a 5 5 0 0 1 5 5 a 5 5 0 0 1 -5 5 a 5 5 0 0 1 -5 -5"/>
<path d=" M 25 659 h 10"/>
<path d=" M 122 659 h 10"/>
<path d=" M 340 659 h 10"/>
</g>
<g class="sequence">
<path d=" M 10 693 a 5 5 0 0 1 5 -5 a 5 5 0 0 1 5 5 a 5 5 0 0 1 -5 5 a 5 5 0 0 1 -5 -5 m 10 0 h 5"/>
<text class="comment" id="DescriptionStatement" x="113" y="698">
DescriptionStatement</text>
<g class="choice">
<path d=" M 202 693 h 24 m 272 0 h 568 m -281 0 l -5 -5 m 0 10 l 5 -5 m 281 0"/>
<g class="sequence">
<a class="link" xlink:href="#KW_DESCRIPTION">
<g class="symbol">
<rect height="22" width="132" x="226" y="682"/>
<text x="292" y="698">
KW_DESCRIPTION</text>
</g>
</a>
<g class="character">
<rect height="22" rx="10" ry="10" width="52" x="368" y="682"/>
<text x="394" y="698">
HIDE</text>
</g>
<a class="link" xlink:href="#String">
<g class="symbol">
<rect height="22" width="68" x="430" y="682"/>
<text x="464" y="698">
String</text>
</g>
</a>
<path d=" M 358 693 h 10"/>
<path d=" M 420 693 h 10"/>
</g>
<path d=" M 202 693 a 12 12 0 0 1 12 12 v 9 m 840 0 v -9 a 12 12 0 0 1 12 -12"/>
<path d=" M 214 714 v 24 a 12 12 0 0 0 12 12 m 816 0 h 0 a 12 12 0 0 0 12 -12 v -24"/>
<g class="sequence">
<g class="string">
<rect height="22" rx="10" ry="10" width="28" x="226" y="739"/>
<text x="240" y="755">
[</text>
</g>
<g class="character">
<rect height="22" rx="10" ry="10" width="52" x="264" y="739"/>
<text x="290" y="755">
HIDE</text>
</g>
<g class="optional">
<path d=" M 326 750 h 24 m -24 0 a 12 12 0 0 0 12 -12 v -12 a 12 12 0 0 1 12 -12 h 568 m -281 0 l -5 -5 m 0 10 l 5 -5 m 281 0 a 12 12 0 0 1 12 12 v 12 a 12 12 0 0 0 12 12 h -24"/>
<g class="sequence">
<a class="link" xlink:href="#String">
<g class="symbol">
<rect height="22" width="68" x="350" y="739"/>
<text x="384" y="755">
String</text>
</g>
</a>
<g class="character">
<rect height="22" rx="10" ry="10" width="52" x="428" y="739"/>
<text x="454" y="755">
HIDE</text>
</g>
<g class="optional">
<path d=" M 490 750 h 24 m -24 0 a 12 12 0 0 0 12 -12 v 0 a 12 12 0 0 1 12 -12 h 200 m -97 0 l -5 -5 m 0 10 l 5 -5 m 97 0 a 12 12 0 0 1 12 12 v 0 a 12 12 0 0 0 12 12 h -24"/>
<g class="sequence">
<a class="link" xlink:href="#COMMA">
<g class="symbol">
<rect height="22" width="60" x="514" y="739"/>
<text x="544" y="755">
COMMA</text>
</g>
</a>
<g class="character">
<rect height="22" rx="10" ry="10" width="52" x="584" y="739"/>
<text x="610" y="755">
HIDE</text>
</g>
<a class="link" xlink:href="#String">
<g class="symbol">
<rect height="22" width="68" x="646" y="739"/>
<text x="680" y="755">
String</text>
</g>
</a>
<path d=" M 574 750 h 10"/>
<path d=" M 636 750 h 10"/>
</g>
</g>
<g class="character">
<rect height="22" rx="10" ry="10" width="52" x="748" y="739"/>
<text x="774" y="755">
HIDE</text>
</g>
<g class="optional">
<path d=" M 810 750 h 24 m -24 0 a 12 12 0 0 0 12 -12 v 0 a 12 12 0 0 1 12 -12 h 60 m -27 0 l -5 -5 m 0 10 l 5 -5 m 27 0 a 12 12 0 0 1 12 12 v 0 a 12 12 0 0 0 12 12 h -24"/>
<a class="link" xlink:href="#COMMA">
<g class="symbol">
<rect height="22" width="60" x="834" y="739"/>
<text x="864" y="755">
COMMA</text>
</g>
</a>
</g>
<path d=" M 418 750 h 10"/>
<path d=" M 480 750 h 10"/>
<path d=" M 738 750 h 10"/>
<path d=" M 800 750 h 10"/>
</g>
</g>
<g class="character">
<rect height="22" rx="10" ry="10" width="52" x="952" y="739"/>
<text x="978" y="755">
HIDE</text>
</g>
<g class="string">
<rect height="22" rx="10" ry="10" width="28" x="1014" y="739"/>
<text x="1028" y="755">
]</text>
</g>
<path d=" M 254 750 h 10"/>
<path d=" M 316 750 h 10"/>
<path d=" M 942 750 h 10"/>
<path d=" M 1004 750 h 10"/>
</g>
</g>
<path d=" M 1076 693 h 5 a 5 5 0 0 1 5 -5 a 5 5 0 0 1 5 5 a 5 5 0 0 1 -5 5 a 5 5 0 0 1 -5 -5"/>
<path d=" M 25 693 h 10"/>
<path d=" M 192 693 h 10"/>
<path d=" M 1066 693 h 10"/>
</g>
<g class="sequence">
<path d=" M 10 784 a 5 5 0 0 1 5 -5 a 5 5 0 0 1 5 5 a 5 5 0 0 1 -5 5 a 5 5 0 0 1 -5 -5 m 10 0 h 5"/>
<text class="comment" id="Expression" x="75" y="789">
Expression</text>
<a class="link" xlink:href="#Atomic">
<g class="symbol">
<rect height="22" width="68" x="125" y="773"/>
<text x="159" y="789">
Atomic</text>
</g>
</a>
<path d=" M 203 784 h 5 a 5 5 0 0 1 5 -5 a 5 5 0 0 1 5 5 a 5 5 0 0 1 -5 5 a 5 5 0 0 1 -5 -5"/>
<path d=" M 25 784 h 10"/>
<path d=" M 115 784 h 10"/>
<path d=" M 193 784 h 10"/>
</g>
<g class="sequence">
<path d=" M 10 818 a 5 5 0 0 1 5 -5 a 5 5 0 0 1 5 5 a 5 5 0 0 1 -5 5 a 5 5 0 0 1 -5 -5 m 10 0 h 5"/>
<text class="comment" id="Atomic" x="61" y="823">
Atomic</text>
<g class="choice">
<path d=" M 97 818 h 24 m 100 0 h 40"/>
<a class="link" xlink:href="#Identifier">
<g class="symbol">
<rect height="22" width="100" x="121" y="807"/>
<text x="171" y="823">
Identifier</text>
</g>
</a>
<path d=" M 97 818 a 12 12 0 0 1 12 12 v 9 m 140 0 v -9 a 12 12 0 0 1 12 -12"/>
<path d=" M 109 839 v 33 m 140 0 v -33"/>
<path d=" M 109 872 v 33 m 140 0 v -33"/>
<path d=" M 109 905 v 33 m 140 0 v -33"/>
<path d=" M 109 938 v 33 m 140 0 v -33"/>
<path d=" M 109 971 v 33 m 140 0 v -33"/>
<path d=" M 109 839 v 0 a 12 12 0 0 0 12 12 m 76 0 h 40 a 12 12 0 0 0 12 -12 v 0"/>
<a class="link" xlink:href="#Integer">
<g class="symbol">
<rect height="22" width="76" x="121" y="840"/>
<text x="159" y="856">
Integer</text>
</g>
</a>
<path d=" M 109 872 v 0 a 12 12 0 0 0 12 12 m 92 0 h 24 a 12 12 0 0 0 12 -12 v 0"/>
<a class="link" xlink:href="#StringRaw">
<g class="symbol">
<rect height="22" width="92" x="121" y="873"/>
<text x="167" y="889">
StringRaw</text>
</g>
</a>
<path d=" M 109 905 v 0 a 12 12 0 0 0 12 12 m 116 0 h 0 a 12 12 0 0 0 12 -12 v 0"/>
<a class="link" xlink:href="#StringNormal">
<g class="symbol">
<rect height="22" width="116" x="121" y="906"/>
<text x="179" y="922">
StringNormal</text>
</g>
</a>
<path d=" M 109 938 v 0 a 12 12 0 0 0 12 12 m 76 0 h 40 a 12 12 0 0 0 12 -12 v 0"/>
<a class="link" xlink:href="#Boolean">
<g class="symbol">
<rect height="22" width="76" x="121" y="939"/>
<text x="159" y="955">
Boolean</text>
</g>
</a>
<path d=" M 109 971 v 0 a 12 12 0 0 0 12 12 m 100 0 h 16 a 12 12 0 0 0 12 -12 v 0"/>
<a class="link" xlink:href="#RangeExact">
<g class="symbol">
<rect height="22" width="100" x="121" y="972"/>
<text x="171" y="988">
RangeExact</text>
</g>
</a>
<path d=" M 109 1004 v 0 a 12 12 0 0 0 12 12 m 60 0 h 56 m -25 0 l -5 -5 m 0 10 l 5 -5 m 25 0 a 12 12 0 0 0 12 -12 v 0"/>
<a class="link" xlink:href="#Range">
<g class="symbol">
<rect height="22" width="60" x="121" y="1005"/>
<text x="151" y="1021">
Range</text>
</g>
</a>
</g>
<path d=" M 271 818 h 5 a 5 5 0 0 1 5 -5 a 5 5 0 0 1 5 5 a 5 5 0 0 1 -5 5 a 5 5 0 0 1 -5 -5"/>
<path d=" M 25 818 h 10"/>
<path d=" M 87 818 h 10"/>
<path d=" M 261 818 h 10"/>
</g>
<g class="sequence">
<path d=" M 10 1050 a 5 5 0 0 1 5 -5 a 5 5 0 0 1 5 5 a 5 5 0 0 1 -5 5 a 5 5 0 0 1 -5 -5 m 10 0 h 5"/>
<text class="comment" id="Prefix" x="61" y="1055">
Prefix</text>
<g class="choice">
<path d=" M 97 1050 h 0 m 92 0 h 0"/>
<g class="string">
<rect height="22" rx="10" ry="10" width="92" x="97" y="1039"/>
<text x="143" y="1055">
不是|非|!</text>
</g>
</g>
<path d=" M 199 1050 h 5 a 5 5 0 0 1 5 -5 a 5 5 0 0 1 5 5 a 5 5 0 0 1 -5 5 a 5 5 0 0 1 -5 -5"/>
<path d=" M 25 1050 h 10"/>
<path d=" M 87 1050 h 10"/>
<path d=" M 189 1050 h 10"/>
</g>
<g class="sequence">
<path d=" M 10 1084 a 5 5 0 0 1 5 -5 a 5 5 0 0 1 5 5 a 5 5 0 0 1 -5 5 a 5 5 0 0 1 -5 -5 m 10 0 h 5"/>
<text class="comment" id="Infix" x="57" y="1089">
Infix</text>
<g class="choice">
<path d=" M 90 1084 h 24 m 68 0 h 64 m -29 0 l -5 -5 m 0 10 l 5 -5 m 29 0"/>
<g class="string">
<rect height="22" rx="10" ry="10" width="68" x="114" y="1073"/>
<text x="148" y="1089">
大于|&gt;</text>
</g>
<path d=" M 90 1084 a 12 12 0 0 1 12 12 v 9 m 132 0 v -9 a 12 12 0 0 1 12 -12"/>
<path d=" M 102 1105 v 33 m 132 0 v -33"/>
<path d=" M 102 1138 v 33 m 132 0 v -33"/>
<path d=" M 102 1171 v 33 m 132 0 v -33"/>
<path d=" M 102 1204 v 33 m 132 0 v -33"/>
<path d=" M 102 1237 v 33 m 132 0 v -33"/>
<path d=" M 102 1270 v 33 m 132 0 v -33"/>
<path d=" M 102 1105 v 0 a 12 12 0 0 0 12 12 m 108 0 h 0 a 12 12 0 0 0 12 -12 v 0"/>
<g class="string">
<rect height="22" rx="10" ry="10" width="108" x="114" y="1106"/>
<text x="168" y="1122">
大于等于|&gt;=</text>
</g>
<path d=" M 102 1138 v 0 a 12 12 0 0 0 12 12 m 68 0 h 40 a 12 12 0 0 0 12 -12 v 0"/>
<g class="string">
<rect height="22" rx="10" ry="10" width="68" x="114" y="1139"/>
<text x="148" y="1155">
小于|&lt;</text>
</g>
<path d=" M 102 1171 v 0 a 12 12 0 0 0 12 12 m 108 0 h 0 a 12 12 0 0 0 12 -12 v 0"/>
<g class="string">
<rect height="22" rx="10" ry="10" width="108" x="114" y="1172"/>
<text x="168" y="1188">
小于等于|&lt;=</text>
</g>
<path d=" M 102 1204 v 0 a 12 12 0 0 0 12 12 m 100 0 h 8 a 12 12 0 0 0 12 -12 v 0"/>
<g class="string">
<rect height="22" rx="10" ry="10" width="100" x="114" y="1205"/>
<text x="164" y="1221">
为|等于|==</text>
</g>
<path d=" M 102 1237 v 0 a 12 12 0 0 0 12 12 m 92 0 h 16 a 12 12 0 0 0 12 -12 v 0"/>
<g class="string">
<rect height="22" rx="10" ry="10" width="92" x="114" y="1238"/>
<text x="160" y="1254">
不等于|!=</text>
</g>
<path d=" M 102 1270 v 0 a 12 12 0 0 0 12 12 m 60 0 h 48 a 12 12 0 0 0 12 -12 v 0"/>
<g class="string">
<rect height="22" rx="10" ry="10" width="60" x="114" y="1271"/>
<text x="144" y="1287">
&amp;&amp;|且</text>
</g>
<path d=" M 102 1303 v 0 a 12 12 0 0 0 12 12 m 76 0 h 32 a 12 12 0 0 0 12 -12 v 0"/>
<g class="string">
<rect height="22" rx="10" ry="10" width="76" x="114" y="1304"/>
<text x="152" y="1320">
\|\||或</text>
</g>
</g>
<path d=" M 256 1084 h 5 a 5 5 0 0 1 5 -5 a 5 5 0 0 1 5 5 a 5 5 0 0 1 -5 5 a 5 5 0 0 1 -5 -5"/>
<path d=" M 25 1084 h 10"/>
<path d=" M 80 1084 h 10"/>
<path d=" M 246 1084 h 10"/>
</g>
<g class="sequence">
<path d=" M 10 1349 a 5 5 0 0 1 5 -5 a 5 5 0 0 1 5 5 a 5 5 0 0 1 -5 5 a 5 5 0 0 1 -5 -5 m 10 0 h 5"/>
<text class="comment" id="String" x="61" y="1354">
String</text>
<g class="choice">
<path d=" M 97 1349 h 0 m 92 0 h 0"/>
<a class="link" xlink:href="#StringRaw">
<g class="symbol">
<rect height="22" width="92" x="97" y="1338"/>
<text x="143" y="1354">
StringRaw</text>
</g>
</a>
</g>
<path d=" M 199 1349 h 5 a 5 5 0 0 1 5 -5 a 5 5 0 0 1 5 5 a 5 5 0 0 1 -5 5 a 5 5 0 0 1 -5 -5"/>
<path d=" M 25 1349 h 10"/>
<path d=" M 87 1349 h 10"/>
<path d=" M 189 1349 h 10"/>
</g>
<g class="sequence">
<path d=" M 10 1383 a 5 5 0 0 1 5 -5 a 5 5 0 0 1 5 5 a 5 5 0 0 1 -5 5 a 5 5 0 0 1 -5 -5 m 10 0 h 5"/>
<text class="comment" id="StringRaw" x="71" y="1388">
StringRaw</text>
<g class="sequence">
<g class="string">
<rect height="22" rx="10" ry="10" width="28" x="118" y="1372"/>
<text x="132" y="1388">
&#x27;</text>
</g>
<a class="link" xlink:href="#StringRawText">
<g class="symbol">
<rect height="22" width="124" x="156" y="1372"/>
<text x="218" y="1388">
StringRawText</text>
</g>
</a>
<g class="string">
<rect height="22" rx="10" ry="10" width="28" x="290" y="1372"/>
<text x="304" y="1388">
&#x27;</text>
</g>
<path d=" M 146 1383 h 10"/>
<path d=" M 280 1383 h 10"/>
</g>
<path d=" M 328 1383 h 5 a 5 5 0 0 1 5 -5 a 5 5 0 0 1 5 5 a 5 5 0 0 1 -5 5 a 5 5 0 0 1 -5 -5"/>
<path d=" M 25 1383 h 10"/>
<path d=" M 108 1383 h 10"/>
<path d=" M 318 1383 h 10"/>
</g>
<g class="sequence">
<path d=" M 10 1417 a 5 5 0 0 1 5 -5 a 5 5 0 0 1 5 5 a 5 5 0 0 1 -5 5 a 5 5 0 0 1 -5 -5 m 10 0 h 5"/>
<text class="comment" id="StringRawText" x="85" y="1422">
StringRawText</text>
<g class="string">
<rect height="22" rx="10" ry="10" width="60" x="146" y="1406"/>
<text x="176" y="1422">
[^&#x27;]*</text>
</g>
<path d=" M 216 1417 h 5 a 5 5 0 0 1 5 -5 a 5 5 0 0 1 5 5 a 5 5 0 0 1 -5 5 a 5 5 0 0 1 -5 -5"/>
<path d=" M 25 1417 h 10"/>
<path d=" M 136 1417 h 10"/>
<path d=" M 206 1417 h 10"/>
</g>
<g class="sequence">
<path d=" M 10 1451 a 5 5 0 0 1 5 -5 a 5 5 0 0 1 5 5 a 5 5 0 0 1 -5 5 a 5 5 0 0 1 -5 -5 m 10 0 h 5"/>
<text class="comment" id="StringNormal" x="82" y="1456">
StringNormal</text>
<g class="sequence">
<g class="string">
<rect height="22" rx="10" ry="10" width="28" x="139" y="1440"/>
<text x="153" y="1456">
&quot;</text>
</g>
<g class="repeat">
<path d=" M 177 1451 h 12 m 100 0 h 12 m -12 0 a 12 12 0 0 1 12 12 v 7 a 12 12 0 0 1 -12 12 m -52 0 h -48 a 12 12 0 0 1 -12 -12 v -7 a 12 12 0 0 1 12 -12"/>
<text class="comment" x="263" y="1487">
[0, ∞]</text>
<a class="link" xlink:href="#StringItem">
<g class="symbol">
<rect height="22" width="100" x="189" y="1440"/>
<text x="239" y="1456">
StringItem</text>
</g>
</a>
</g>
<g class="string">
<rect height="22" rx="10" ry="10" width="28" x="311" y="1440"/>
<text x="325" y="1456">
&quot;</text>
</g>
<path d=" M 167 1451 h 10"/>
<path d=" M 301 1451 h 10"/>
</g>
<path d=" M 349 1451 h 5 a 5 5 0 0 1 5 -5 a 5 5 0 0 1 5 5 a 5 5 0 0 1 -5 5 a 5 5 0 0 1 -5 -5"/>
<path d=" M 25 1451 h 10"/>
<path d=" M 129 1451 h 10"/>
<path d=" M 339 1451 h 10"/>
</g>
<g class="sequence">
<path d=" M 10 1515 a 5 5 0 0 1 5 -5 a 5 5 0 0 1 5 5 a 5 5 0 0 1 -5 5 a 5 5 0 0 1 -5 -5 m 10 0 h 5"/>
<text class="comment" id="StringItem" x="75" y="1520">
StringItem</text>
<g class="choice">
<path d=" M 125 1515 h 24 m 132 0 h 40"/>
<a class="link" xlink:href="#EscapedUnicode">
<g class="symbol">
<rect height="22" width="132" x="149" y="1504"/>
<text x="215" y="1520">
EscapedUnicode</text>
</g>
</a>
<path d=" M 125 1515 a 12 12 0 0 1 12 12 v 9 m 172 0 v -9 a 12 12 0 0 1 12 -12"/>
<path d=" M 137 1536 v 33 m 172 0 v -33"/>
<path d=" M 137 1536 v 0 a 12 12 0 0 0 12 12 m 148 0 h 0 a 12 12 0 0 0 12 -12 v 0"/>
<a class="link" xlink:href="#EscapedCharacter">
<g class="symbol">
<rect height="22" width="148" x="149" y="1537"/>
<text x="223" y="1553">
EscapedCharacter</text>
</g>
</a>
<path d=" M 137 1569 v 0 a 12 12 0 0 0 12 12 m 76 0 h 72 m -33 0 l -5 -5 m 0 10 l 5 -5 m 33 0 a 12 12 0 0 0 12 -12 v 0"/>
<a class="link" xlink:href="#TextAny">
<g class="symbol">
<rect height="22" width="76" x="149" y="1570"/>
<text x="187" y="1586">
TextAny</text>
</g>
</a>
</g>
<path d=" M 331 1515 h 5 a 5 5 0 0 1 5 -5 a 5 5 0 0 1 5 5 a 5 5 0 0 1 -5 5 a 5 5 0 0 1 -5 -5"/>
<path d=" M 25 1515 h 10"/>
<path d=" M 115 1515 h 10"/>
<path d=" M 321 1515 h 10"/>
</g>
<g class="sequence">
<path d=" M 10 1615 a 5 5 0 0 1 5 -5 a 5 5 0 0 1 5 5 a 5 5 0 0 1 -5 5 a 5 5 0 0 1 -5 -5 m 10 0 h 5"/>
<text class="comment" id="EscapedUnicode" x="89" y="1620">
EscapedUnicode</text>
<g class="sequence">
<g class="string">
<rect height="22" rx="10" ry="10" width="44" x="153" y="1604"/>
<text x="175" y="1620">
\u{</text>
</g>
<a class="link" xlink:href="#HEX">
<g class="symbol">
<rect height="22" width="44" x="207" y="1604"/>
<text x="229" y="1620">
HEX</text>
</g>
</a>
<g class="string">
<rect height="22" rx="10" ry="10" width="28" x="261" y="1604"/>
<text x="275" y="1620">
}</text>
</g>
<path d=" M 197 1615 h 10"/>
<path d=" M 251 1615 h 10"/>
</g>
<path d=" M 299 1615 h 5 a 5 5 0 0 1 5 -5 a 5 5 0 0 1 5 5 a 5 5 0 0 1 -5 5 a 5 5 0 0 1 -5 -5"/>
<path d=" M 25 1615 h 10"/>
<path d=" M 143 1615 h 10"/>
<path d=" M 289 1615 h 10"/>
</g>
<g class="sequence">
<path d=" M 10 1649 a 5 5 0 0 1 5 -5 a 5 5 0 0 1 5 5 a 5 5 0 0 1 -5 5 a 5 5 0 0 1 -5 -5 m 10 0 h 5"/>
<text class="comment" id="EscapedCharacter" x="96" y="1654">
EscapedCharacter</text>
<g class="string">
<rect height="22" rx="10" ry="10" width="44" x="167" y="1638"/>
<text x="189" y="1654">
\\.</text>
</g>
<path d=" M 221 1649 h 5 a 5 5 0 0 1 5 -5 a 5 5 0 0 1 5 5 a 5 5 0 0 1 -5 5 a 5 5 0 0 1 -5 -5"/>
<path d=" M 25 1649 h 10"/>
<path d=" M 157 1649 h 10"/>
<path d=" M 211 1649 h 10"/>
</g>
<g class="sequence">
<path d=" M 10 1683 a 5 5 0 0 1 5 -5 a 5 5 0 0 1 5 5 a 5 5 0 0 1 -5 5 a 5 5 0 0 1 -5 -5 m 10 0 h 5"/>
<text class="comment" id="HEX" x="50" y="1688">
HEX</text>
<g class="repeat">
<path d=" M 76 1683 h 12 m 170 0 h 12 m -12 0 a 12 12 0 0 1 12 12 v 7 a 12 12 0 0 1 -12 12 m -52 0 h -118 m 62 0 l 5 -5 m 0 10 l -5 -5 m -62 0 a 12 12 0 0 1 -12 -12 v -7 a 12 12 0 0 1 12 -12"/>
<text class="comment" x="232" y="1719">
[1, 6]</text>
<g class="sequence">
<g class="character">
<rect height="22" rx="10" ry="10" width="52" x="88" y="1672"/>
<text x="114" y="1688">
HIDE</text>
</g>
<g class="string">
<rect height="22" rx="10" ry="10" width="108" x="150" y="1672"/>
<text x="204" y="1688">
[0-9a-fA-F]</text>
</g>
<path d=" M 140 1683 h 10"/>
</g>
</g>
<path d=" M 280 1683 h 5 a 5 5 0 0 1 5 -5 a 5 5 0 0 1 5 5 a 5 5 0 0 1 -5 5 a 5 5 0 0 1 -5 -5"/>
<path d=" M 25 1683 h 10"/>
<path d=" M 66 1683 h 10"/>
<path d=" M 270 1683 h 10"/>
</g>
<g class="sequence">
<path d=" M 10 1747 a 5 5 0 0 1 5 -5 a 5 5 0 0 1 5 5 a 5 5 0 0 1 -5 5 a 5 5 0 0 1 -5 -5 m 10 0 h 5"/>
<text class="comment" id="TextAny" x="64" y="1752">
TextAny</text>
<g class="string">
<rect height="22" rx="10" ry="10" width="76" x="104" y="1736"/>
<text x="142" y="1752">
[^&quot;\\]+</text>
</g>
<path d=" M 190 1747 h 5 a 5 5 0 0 1 5 -5 a 5 5 0 0 1 5 5 a 5 5 0 0 1 -5 5 a 5 5 0 0 1 -5 -5"/>
<path d=" M 25 1747 h 10"/>
<path d=" M 94 1747 h 10"/>
<path d=" M 180 1747 h 10"/>
</g>
<g class="sequence">
<path d=" M 10 1781 a 5 5 0 0 1 5 -5 a 5 5 0 0 1 5 5 a 5 5 0 0 1 -5 5 a 5 5 0 0 1 -5 -5 m 10 0 h 5"/>
<text class="comment" id="Identifier" x="75" y="1786">
Identifier</text>
<g class="string">
<rect height="22" rx="10" ry="10" width="292" x="125" y="1770"/>
<text x="271" y="1786">
[_\p{XID_start}]\p{XID_continue}*</text>
</g>
<path d=" M 427 1781 h 5 a 5 5 0 0 1 5 -5 a 5 5 0 0 1 5 5 a 5 5 0 0 1 -5 5 a 5 5 0 0 1 -5 -5"/>
<path d=" M 25 1781 h 10"/>
<path d=" M 115 1781 h 10"/>
<path d=" M 417 1781 h 10"/>
</g>
<g class="sequence">
<path d=" M 10 1815 a 5 5 0 0 1 5 -5 a 5 5 0 0 1 5 5 a 5 5 0 0 1 -5 5 a 5 5 0 0 1 -5 -5 m 10 0 h 5"/>
<text class="comment" id="Integer" x="64" y="1820">
Integer</text>
<g class="string">
<rect height="22" rx="10" ry="10" width="124" x="104" y="1804"/>
<text x="166" y="1820">
0|[1-9][0-9]*</text>
</g>
<path d=" M 238 1815 h 5 a 5 5 0 0 1 5 -5 a 5 5 0 0 1 5 5 a 5 5 0 0 1 -5 5 a 5 5 0 0 1 -5 -5"/>
<path d=" M 25 1815 h 10"/>
<path d=" M 94 1815 h 10"/>
<path d=" M 228 1815 h 10"/>
</g>
<g class="sequence">
<path d=" M 10 1849 a 5 5 0 0 1 5 -5 a 5 5 0 0 1 5 5 a 5 5 0 0 1 -5 5 a 5 5 0 0 1 -5 -5 m 10 0 h 5"/>
<text class="comment" id="RangeExact" x="75" y="1854">
RangeExact</text>
<g class="sequence">
<g class="string">
<rect height="22" rx="10" ry="10" width="28" x="125" y="1838"/>
<text x="139" y="1854">
{</text>
</g>
<g class="character">
<rect height="22" rx="10" ry="10" width="52" x="163" y="1838"/>
<text x="189" y="1854">
HIDE</text>
</g>
<a class="link" xlink:href="#Integer">
<g class="symbol">
<rect height="22" width="76" x="225" y="1838"/>
<text x="263" y="1854">
Integer</text>
</g>
</a>
<g class="character">
<rect height="22" rx="10" ry="10" width="52" x="311" y="1838"/>
<text x="337" y="1854">
HIDE</text>
</g>
<g class="string">
<rect height="22" rx="10" ry="10" width="28" x="373" y="1838"/>
<text x="387" y="1854">
}</text>
</g>
<path d=" M 153 1849 h 10"/>
<path d=" M 215 1849 h 10"/>
<path d=" M 301 1849 h 10"/>
<path d=" M 363 1849 h 10"/>
</g>
<path d=" M 411 1849 h 5 a 5 5 0 0 1 5 -5 a 5 5 0 0 1 5 5 a 5 5 0 0 1 -5 5 a 5 5 0 0 1 -5 -5"/>
<path d=" M 25 1849 h 10"/>
<path d=" M 115 1849 h 10"/>
<path d=" M 401 1849 h 10"/>
</g>
<g class="sequence">
<path d=" M 10 1896 a 5 5 0 0 1 5 -5 a 5 5 0 0 1 5 5 a 5 5 0 0 1 -5 5 a 5 5 0 0 1 -5 -5 m 10 0 h 5"/>
<text class="comment" id="Range" x="57" y="1901">
Range</text>
<g class="sequence">
<g class="string">
<rect height="22" rx="10" ry="10" width="28" x="90" y="1885"/>
<text x="104" y="1901">
{</text>
</g>
<g class="character">
<rect height="22" rx="10" ry="10" width="52" x="128" y="1885"/>
<text x="154" y="1901">
HIDE</text>
</g>
<g class="optional">
<path d=" M 190 1896 h 24 m -24 0 a 12 12 0 0 0 12 -12 v 0 a 12 12 0 0 1 12 -12 h 76 m -35 0 l -5 -5 m 0 10 l 5 -5 m 35 0 a 12 12 0 0 1 12 12 v 0 a 12 12 0 0 0 12 12 h -24"/>
<a class="link" xlink:href="#Integer">
<g class="symbol">
<rect height="22" width="76" x="214" y="1885"/>
<text x="252" y="1901">
Integer</text>
</g>
</a>
</g>
<g class="character">
<rect height="22" rx="10" ry="10" width="52" x="324" y="1885"/>
<text x="350" y="1901">
HIDE</text>
</g>
<g class="string">
<rect height="22" rx="10" ry="10" width="28" x="386" y="1885"/>
<text x="400" y="1901">
,</text>
</g>
<g class="character">
<rect height="22" rx="10" ry="10" width="52" x="424" y="1885"/>
<text x="450" y="1901">
HIDE</text>
</g>
<g class="optional">
<path d=" M 486 1896 h 24 m -24 0 a 12 12 0 0 0 12 -12 v 0 a 12 12 0 0 1 12 -12 h 76 m -35 0 l -5 -5 m 0 10 l 5 -5 m 35 0 a 12 12 0 0 1 12 12 v 0 a 12 12 0 0 0 12 12 h -24"/>
<a class="link" xlink:href="#Integer">
<g class="symbol">
<rect height="22" width="76" x="510" y="1885"/>
<text x="548" y="1901">
Integer</text>
</g>
</a>
</g>
<g class="character">
<rect height="22" rx="10" ry="10" width="52" x="620" y="1885"/>
<text x="646" y="1901">
HIDE</text>
</g>
<g class="string">
<rect height="22" rx="10" ry="10" width="28" x="682" y="1885"/>
<text x="696" y="1901">
}</text>
</g>
<path d=" M 118 1896 h 10"/>
<path d=" M 180 1896 h 10"/>
<path d=" M 314 1896 h 10"/>
<path d=" M 376 1896 h 10"/>
<path d=" M 414 1896 h 10"/>
<path d=" M 476 1896 h 10"/>
<path d=" M 610 1896 h 10"/>
<path d=" M 672 1896 h 10"/>
</g>
<path d=" M 720 1896 h 5 a 5 5 0 0 1 5 -5 a 5 5 0 0 1 5 5 a 5 5 0 0 1 -5 5 a 5 5 0 0 1 -5 -5"/>
<path d=" M 25 1896 h 10"/>
<path d=" M 80 1896 h 10"/>
<path d=" M 710 1896 h 10"/>
</g>
<g class="sequence">
<path d=" M 10 1930 a 5 5 0 0 1 5 -5 a 5 5 0 0 1 5 5 a 5 5 0 0 1 -5 5 a 5 5 0 0 1 -5 -5 m 10 0 h 5"/>
<text class="comment" id="Boolean" x="64" y="1935">
Boolean</text>
<g class="choice">
<path d=" M 104 1930 h 24 m 76 0 h 32"/>
<g class="string">
<rect height="22" rx="10" ry="10" width="76" x="128" y="1919"/>
<text x="166" y="1935">
真|true</text>
</g>
<path d=" M 104 1930 a 12 12 0 0 1 12 12 v 9 m 108 0 v -9 a 12 12 0 0 1 12 -12"/>
<path d=" M 116 1951 v 0 a 12 12 0 0 0 12 12 m 84 0 h 0 a 12 12 0 0 0 12 -12 v 0"/>
<g class="string">
<rect height="22" rx="10" ry="10" width="84" x="128" y="1952"/>
<text x="170" y="1968">
假|false</text>
</g>
</g>
<path d=" M 246 1930 h 5 a 5 5 0 0 1 5 -5 a 5 5 0 0 1 5 5 a 5 5 0 0 1 -5 5 a 5 5 0 0 1 -5 -5"/>
<path d=" M 25 1930 h 10"/>
<path d=" M 94 1930 h 10"/>
<path d=" M 236 1930 h 10"/>
</g>
</g>
</svg>