<svg class="railroad" viewBox="0 0 1069 1760" xmlns="http://www.w3.org/2000/svg" xmlns:xlink="http://www.w3.org/1999/xlink">
<style type="text/css">svg.railroad{background-color:hsl(30,20%,95%);background-size:15px 15px;background-image:linear-gradient(to right,rgba(30,30,30,.05) 1px,transparent 1px),linear-gradient(to bottom,rgba(30,30,30,.05) 1px,transparent 1px);}svg.railroad path{stroke-width:3px;stroke:black;fill:transparent;}svg.railroad .debug{stroke-width:1px;stroke:red;}svg.railroad text{font-size:14px;font-family:monospace;text-anchor:middle;}svg.railroad .nonterminal text{font-weight:bold;}svg.railroad text.comment{font-family:serif;font-style:italic;font-size:12px;}svg.railroad rect{stroke-width:3px;stroke:black;}svg.railroad g.labeledbox>rect{stroke-width:1px;stroke:grey;stroke-dasharray:5px;fill:rgba(90,90,150,.1);}svg.railroad .symbol>rect{fill:rgba(90,90,150,.1);}svg.railroad .regex>rect{fill:honeydew;}svg.railroad .string>rect{fill:cornsilk;}svg.railroad .character>rect{fill:lightcoral;}</style>
<g class="verticalgrid">
<g class="sequence">
<path d=" M 10 21 a 5 5 0 0 1 5 -5 a 5 5 0 0 1 5 5 a 5 5 0 0 1 -5 5 a 5 5 0 0 1 -5 -5 m 10 0 h 5"/>
<text class="comment" id="Root" x="54" y="26">
Root</text>
<g class="sequence">
<g class="repeat">
<path d=" M 83 21 h 12 m 154 0 h 12 m -12 0 a 12 12 0 0 1 12 12 v 7 a 12 12 0 0 1 -12 12 m -52 0 h -102 m 54 0 l 5 -5 m 0 10 l -5 -5 m -54 0 a 12 12 0 0 1 -12 -12 v -7 a 12 12 0 0 1 12 -12"/>
<text class="comment" x="223" y="57">
[0, ∞]</text>
<g class="sequence">
<g class="character">
<rect height="22" rx="10" ry="10" width="52" x="95" y="10"/>
<text x="121" y="26">
HIDE</text>
</g>
<a class="link" xlink:href="#Statement">
<g class="symbol">
<rect height="22" width="92" x="157" y="10"/>
<text x="203" y="26">
Statement</text>
</g>
</a>
<path d=" M 147 21 h 10"/>
</g>
</g>
<g class="character">
<rect height="22" rx="10" ry="10" width="52" x="271" y="10"/>
<text x="297" y="26">
HIDE</text>
</g>
<g class="character">
<rect height="22" rx="10" ry="10" width="116" x="333" y="10"/>
<text x="391" y="26">
END_OF_INPUT</text>
</g>
<path d=" M 261 21 h 10"/>
<path d=" M 323 21 h 10"/>
</g>
<path d=" M 459 21 h 5 a 5 5 0 0 1 5 -5 a 5 5 0 0 1 5 5 a 5 5 0 0 1 -5 5 a 5 5 0 0 1 -5 -5"/>
<path d=" M 25 21 h 10"/>
<path d=" M 73 21 h 10"/>
<path d=" M 449 21 h 10"/>
</g>
<g class="sequence">
<path d=" M 10 85 a 5 5 0 0 1 5 -5 a 5 5 0 0 1 5 5 a 5 5 0 0 1 -5 5 a 5 5 0 0 1 -5 -5 m 10 0 h 5"/>
<text class="comment" id="Statement" x="71" y="90">
Statement</text>
<g class="choice">
<path d=" M 118 85 h 0 m 156 0 h 0"/>
<a class="link" xlink:href="#PropertyStatement">
<g class="symbol">
<rect height="22" width="156" x="118" y="74"/>
<text x="196" y="90">
PropertyStatement</text>
</g>
</a>
</g>
<path d=" M 284 85 h 5 a 5 5 0 0 1 5 -5 a 5 5 0 0 1 5 5 a 5 5 0 0 1 -5 5 a 5 5 0 0 1 -5 -5"/>
<path d=" M 25 85 h 10"/>
<path d=" M 108 85 h 10"/>
<path d=" M 274 85 h 10"/>
</g>
<g class="sequence">
<path d=" M 10 119 a 5 5 0 0 1 5 -5 a 5 5 0 0 1 5 5 a 5 5 0 0 1 -5 5 a 5 5 0 0 1 -5 -5 m 10 0 h 5"/>
<text class="comment" id="PropertyStatement" x="99" y="124">
PropertyStatement</text>
<g class="sequence">
<a class="link" xlink:href="#KW_PROPERTY">
<g class="symbol">
<rect height="22" width="108" x="174" y="108"/>
<text x="228" y="124">
KW_PROPERTY</text>
</g>
</a>
<g class="character">
<rect height="22" rx="10" ry="10" width="52" x="292" y="108"/>
<text x="318" y="124">
HIDE</text>
</g>
<a class="link" xlink:href="#Identifier">
<g class="symbol">
<rect height="22" width="100" x="354" y="108"/>
<text x="404" y="124">
Identifier</text>
</g>
</a>
<g class="character">
<rect height="22" rx="10" ry="10" width="52" x="464" y="108"/>
<text x="490" y="124">
HIDE</text>
</g>
<g class="string">
<rect height="22" rx="10" ry="10" width="28" x="526" y="108"/>
<text x="540" y="124">
{</text>
</g>
<g class="character">
<rect height="22" rx="10" ry="10" width="52" x="564" y="108"/>
<text x="590" y="124">
HIDE</text>
</g>
<g class="repeat">
<path d=" M 626 119 h 12 m 178 0 h 12 m -12 0 a 12 12 0 0 1 12 12 v 7 a 12 12 0 0 1 -12 12 m -52 0 h -126 m 66 0 l 5 -5 m 0 10 l -5 -5 m -66 0 a 12 12 0 0 1 -12 -12 v -7 a 12 12 0 0 1 12 -12"/>
<text class="comment" x="790" y="155">
[0, ∞]</text>
<g class="sequence">
<g class="character">
<rect height="22" rx="10" ry="10" width="52" x="638" y="108"/>
<text x="664" y="124">
HIDE</text>
</g>
<a class="link" xlink:href="#PropertyItem">
<g class="symbol">
<rect height="22" width="116" x="700" y="108"/>
<text x="758" y="124">
PropertyItem</text>
</g>
</a>
<path d=" M 690 119 h 10"/>
</g>
</g>
<g class="character">
<rect height="22" rx="10" ry="10" width="52" x="838" y="108"/>
<text x="864" y="124">
HIDE</text>
</g>
<g class="string">
<rect height="22" rx="10" ry="10" width="28" x="900" y="108"/>
<text x="914" y="124">
}</text>
</g>
<path d=" M 282 119 h 10"/>
<path d=" M 344 119 h 10"/>
<path d=" M 454 119 h 10"/>
<path d=" M 516 119 h 10"/>
<path d=" M 554 119 h 10"/>
<path d=" M 616 119 h 10"/>
<path d=" M 828 119 h 10"/>
<path d=" M 890 119 h 10"/>
</g>
<path d=" M 938 119 h 5 a 5 5 0 0 1 5 -5 a 5 5 0 0 1 5 5 a 5 5 0 0 1 -5 5 a 5 5 0 0 1 -5 -5"/>
<path d=" M 25 119 h 10"/>
<path d=" M 164 119 h 10"/>
<path d=" M 928 119 h 10"/>
</g>
<g class="sequence">
<path d=" M 10 183 a 5 5 0 0 1 5 -5 a 5 5 0 0 1 5 5 a 5 5 0 0 1 -5 5 a 5 5 0 0 1 -5 -5 m 10 0 h 5"/>
<text class="comment" id="PropertyItem" x="82" y="188">
PropertyItem</text>
<g class="choice">
<path d=" M 139 183 h 0 m 108 0 h 0"/>
<a class="link" xlink:href="#IdStatement">
<g class="symbol">
<rect height="22" width="108" x="139" y="172"/>
<text x="193" y="188">
IdStatement</text>
</g>
</a>
</g>
<path d=" M 257 183 h 5 a 5 5 0 0 1 5 -5 a 5 5 0 0 1 5 5 a 5 5 0 0 1 -5 5 a 5 5 0 0 1 -5 -5"/>
<path d=" M 25 183 h 10"/>
<path d=" M 129 183 h 10"/>
<path d=" M 247 183 h 10"/>
</g>
<g class="sequence">
<path d=" M 10 217 a 5 5 0 0 1 5 -5 a 5 5 0 0 1 5 5 a 5 5 0 0 1 -5 5 a 5 5 0 0 1 -5 -5 m 10 0 h 5"/>
<text class="comment" id="TraitStatement" x="89" y="222">
TraitStatement</text>
<g class="sequence">
<a class="link" xlink:href="#KW_TRAIT">
<g class="symbol">
<rect height="22" width="84" x="153" y="206"/>
<text x="195" y="222">
KW_TRAIT</text>
</g>
</a>
<g class="character">
<rect height="22" rx="10" ry="10" width="52" x="247" y="206"/>
<text x="273" y="222">
HIDE</text>
</g>
<a class="link" xlink:href="#Identifier">
<g class="symbol">
<rect height="22" width="100" x="309" y="206"/>
<text x="359" y="222">
Identifier</text>
</g>
</a>
<g class="character">
<rect height="22" rx="10" ry="10" width="52" x="419" y="206"/>
<text x="445" y="222">
HIDE</text>
</g>
<a class="link" xlink:href="#TraitBlock">
<g class="symbol">
<rect height="22" width="100" x="481" y="206"/>
<text x="531" y="222">
TraitBlock</text>
</g>
</a>
<path d=" M 237 217 h 10"/>
<path d=" M 299 217 h 10"/>
<path d=" M 409 217 h 10"/>
<path d=" M 471 217 h 10"/>
</g>
<path d=" M 591 217 h 5 a 5 5 0 0 1 5 -5 a 5 5 0 0 1 5 5 a 5 5 0 0 1 -5 5 a 5 5 0 0 1 -5 -5"/>
<path d=" M 25 217 h 10"/>
<path d=" M 143 217 h 10"/>
<path d=" M 581 217 h 10"/>
</g>
<g class="sequence">
<path d=" M 10 251 a 5 5 0 0 1 5 -5 a 5 5 0 0 1 5 5 a 5 5 0 0 1 -5 5 a 5 5 0 0 1 -5 -5 m 10 0 h 5"/>
<text class="comment" id="TraitBlock" x="75" y="256">
TraitBlock</text>
<g class="sequence">
<g class="string">
<rect height="22" rx="10" ry="10" width="28" x="125" y="240"/>
<text x="139" y="256">
{</text>
</g>
<g class="character">
<rect height="22" rx="10" ry="10" width="52" x="163" y="240"/>
<text x="189" y="256">
HIDE</text>
</g>
<g class="repeat">
<path d=" M 225 251 h 12 m 186 0 h 12 m -12 0 a 12 12 0 0 1 12 12 v 7 a 12 12 0 0 1 -12 12 m -52 0 h -134 m 70 0 l 5 -5 m 0 10 l -5 -5 m -70 0 a 12 12 0 0 1 -12 -12 v -7 a 12 12 0 0 1 12 -12"/>
<text class="comment" x="397" y="287">
[0, ∞]</text>
<g class="sequence">
<g class="character">
<rect height="22" rx="10" ry="10" width="52" x="237" y="240"/>
<text x="263" y="256">
HIDE</text>
</g>
<a class="link" xlink:href="#TraitProperty">
<g class="symbol">
<rect height="22" width="124" x="299" y="240"/>
<text x="361" y="256">
TraitProperty</text>
</g>
</a>
<path d=" M 289 251 h 10"/>
</g>
</g>
<g class="character">
<rect height="22" rx="10" ry="10" width="52" x="445" y="240"/>
<text x="471" y="256">
HIDE</text>
</g>
<g class="string">
<rect height="22" rx="10" ry="10" width="28" x="507" y="240"/>
<text x="521" y="256">
}</text>
</g>
<path d=" M 153 251 h 10"/>
<path d=" M 215 251 h 10"/>
<path d=" M 435 251 h 10"/>
<path d=" M 497 251 h 10"/>
</g>
<path d=" M 545 251 h 5 a 5 5 0 0 1 5 -5 a 5 5 0 0 1 5 5 a 5 5 0 0 1 -5 5 a 5 5 0 0 1 -5 -5"/>
<path d=" M 25 251 h 10"/>
<path d=" M 115 251 h 10"/>
<path d=" M 535 251 h 10"/>
</g>
<g class="sequence">
<path d=" M 10 315 a 5 5 0 0 1 5 -5 a 5 5 0 0 1 5 5 a 5 5 0 0 1 -5 5 a 5 5 0 0 1 -5 -5 m 10 0 h 5"/>
<text class="comment" id="TraitProperty" x="85" y="320">
TraitProperty</text>
<g class="sequence">
<a class="link" xlink:href="#Identifier">
<g class="symbol">
<rect height="22" width="100" x="146" y="304"/>
<text x="196" y="320">
Identifier</text>
</g>
</a>
<g class="character">
<rect height="22" rx="10" ry="10" width="52" x="256" y="304"/>
<text x="282" y="320">
HIDE</text>
</g>
<g class="string">
<rect height="22" rx="10" ry="10" width="28" x="318" y="304"/>
<text x="332" y="320">
:</text>
</g>
<g class="character">
<rect height="22" rx="10" ry="10" width="52" x="356" y="304"/>
<text x="382" y="320">
HIDE</text>
</g>
<a class="link" xlink:href="#Atomic">
<g class="symbol">
<rect height="22" width="68" x="418" y="304"/>
<text x="452" y="320">
Atomic</text>
</g>
</a>
<path d=" M 246 315 h 10"/>
<path d=" M 308 315 h 10"/>
<path d=" M 346 315 h 10"/>
<path d=" M 408 315 h 10"/>
</g>
<path d=" M 496 315 h 5 a 5 5 0 0 1 5 -5 a 5 5 0 0 1 5 5 a 5 5 0 0 1 -5 5 a 5 5 0 0 1 -5 -5"/>
<path d=" M 25 315 h 10"/>
<path d=" M 136 315 h 10"/>
<path d=" M 486 315 h 10"/>
</g>
<g class="sequence">
<path d=" M 10 349 a 5 5 0 0 1 5 -5 a 5 5 0 0 1 5 5 a 5 5 0 0 1 -5 5 a 5 5 0 0 1 -5 -5 m 10 0 h 5"/>
<text class="comment" id="EventStatement" x="89" y="354">
EventStatement</text>
<g class="sequence">
<a class="link" xlink:href="#KW_EVENT">
<g class="symbol">
<rect height="22" width="84" x="153" y="338"/>
<text x="195" y="354">
KW_EVENT</text>
</g>
</a>
<g class="character">
<rect height="22" rx="10" ry="10" width="52" x="247" y="338"/>
<text x="273" y="354">
HIDE</text>
</g>
<a class="link" xlink:href="#Identifier">
<g class="symbol">
<rect height="22" width="100" x="309" y="338"/>
<text x="359" y="354">
Identifier</text>
</g>
</a>
<g class="character">
<rect height="22" rx="10" ry="10" width="52" x="419" y="338"/>
<text x="445" y="354">
HIDE</text>
</g>
<a class="link" xlink:href="#EventBlock">
<g class="symbol">
<rect height="22" width="100" x="481" y="338"/>
<text x="531" y="354">
EventBlock</text>
</g>
</a>
<path d=" M 237 349 h 10"/>
<path d=" M 299 349 h 10"/>
<path d=" M 409 349 h 10"/>
<path d=" M 471 349 h 10"/>
</g>
<path d=" M 591 349 h 5 a 5 5 0 0 1 5 -5 a 5 5 0 0 1 5 5 a 5 5 0 0 1 -5 5 a 5 5 0 0 1 -5 -5"/>
<path d=" M 25 349 h 10"/>
<path d=" M 143 349 h 10"/>
<path d=" M 581 349 h 10"/>
</g>
<g class="sequence">
<path d=" M 10 383 a 5 5 0 0 1 5 -5 a 5 5 0 0 1 5 5 a 5 5 0 0 1 -5 5 a 5 5 0 0 1 -5 -5 m 10 0 h 5"/>
<text class="comment" id="EventBlock" x="75" y="388">
EventBlock</text>
<g class="sequence">
<g class="string">
<rect height="22" rx="10" ry="10" width="28" x="125" y="372"/>
<text x="139" y="388">
{</text>
</g>
<g class="character">
<rect height="22" rx="10" ry="10" width="52" x="163" y="372"/>
<text x="189" y="388">
HIDE</text>
</g>
<g class="repeat">
<path d=" M 225 383 h 12 m 186 0 h 12 m -12 0 a 12 12 0 0 1 12 12 v 7 a 12 12 0 0 1 -12 12 m -52 0 h -134 m 70 0 l 5 -5 m 0 10 l -5 -5 m -70 0 a 12 12 0 0 1 -12 -12 v -7 a 12 12 0 0 1 12 -12"/>
<text class="comment" x="397" y="419">
[0, ∞]</text>
<g class="sequence">
<g class="character">
<rect height="22" rx="10" ry="10" width="52" x="237" y="372"/>
<text x="263" y="388">
HIDE</text>
</g>
<a class="link" xlink:href="#EventProperty">
<g class="symbol">
<rect height="22" width="124" x="299" y="372"/>
<text x="361" y="388">
EventProperty</text>
</g>
</a>
<path d=" M 289 383 h 10"/>
</g>
</g>
<g class="character">
<rect height="22" rx="10" ry="10" width="52" x="445" y="372"/>
<text x="471" y="388">
HIDE</text>
</g>
<g class="string">
<rect height="22" rx="10" ry="10" width="28" x="507" y="372"/>
<text x="521" y="388">
}</text>
</g>
<path d=" M 153 383 h 10"/>
<path d=" M 215 383 h 10"/>
<path d=" M 435 383 h 10"/>
<path d=" M 497 383 h 10"/>
</g>
<path d=" M 545 383 h 5 a 5 5 0 0 1 5 -5 a 5 5 0 0 1 5 5 a 5 5 0 0 1 -5 5 a 5 5 0 0 1 -5 -5"/>
<path d=" M 25 383 h 10"/>
<path d=" M 115 383 h 10"/>
<path d=" M 535 383 h 10"/>
</g>
<g class="sequence">
<path d=" M 10 460 a 5 5 0 0 1 5 -5 a 5 5 0 0 1 5 5 a 5 5 0 0 1 -5 5 a 5 5 0 0 1 -5 -5 m 10 0 h 5"/>
<text class="comment" id="EventProperty" x="85" y="465">
EventProperty</text>
<g class="sequence">
<a class="link" xlink:href="#Identifier">
<g class="symbol">
<rect height="22" width="100" x="146" y="449"/>
<text x="196" y="465">
Identifier</text>
</g>
</a>
<g class="character">
<rect height="22" rx="10" ry="10" width="52" x="256" y="449"/>
<text x="282" y="465">
HIDE</text>
</g>
<g class="choice">
<path d=" M 318 460 h 24 m 28 0 h 24"/>
<g class="string">
<rect height="22" rx="10" ry="10" width="28" x="342" y="449"/>
<text x="356" y="465">
:</text>
</g>
<path d=" M 318 460 a 12 12 0 0 1 12 12 v 9 m 52 0 v -9 a 12 12 0 0 1 12 -12"/>
<path d=" M 330 481 v 0 a 12 12 0 0 0 12 12 m 28 0 h 0 a 12 12 0 0 0 12 -12 v 0"/>
<g class="string">
<rect height="22" rx="10" ry="10" width="28" x="342" y="482"/>
<text x="356" y="498">
[</text>
</g>
</g>
<g class="character">
<rect height="22" rx="10" ry="10" width="52" x="404" y="449"/>
<text x="430" y="465">
HIDE</text>
</g>
<a class="link" xlink:href="#Expression">
<g class="symbol">
<rect height="22" width="100" x="466" y="449"/>
<text x="516" y="465">
Expression</text>
</g>
</a>
<g class="character">
<rect height="22" rx="10" ry="10" width="52" x="576" y="449"/>
<text x="602" y="465">
HIDE</text>
</g>
<g class="optional">
<path d=" M 638 460 h 24 m -24 0 a 12 12 0 0 0 12 -12 v 0 a 12 12 0 0 1 12 -12 h 348 m -171 0 l -5 -5 m 0 10 l 5 -5 m 171 0 a 12 12 0 0 1 12 12 v 0 a 12 12 0 0 0 12 12 h -24"/>
<g class="choice">
<path d=" M 662 460 h 24 m 28 0 h 296 m -145 0 l -5 -5 m 0 10 l 5 -5 m 145 0"/>
<g class="string">
<rect height="22" rx="10" ry="10" width="28" x="686" y="449"/>
<text x="700" y="465">
]</text>
</g>
<path d=" M 662 460 a 12 12 0 0 1 12 12 v 9 m 324 0 v -9 a 12 12 0 0 1 12 -12"/>
<path d=" M 674 481 v 33 m 324 0 v -33"/>
<path d=" M 674 481 v 0 a 12 12 0 0 0 12 12 m 300 0 h 0 a 12 12 0 0 0 12 -12 v 0"/>
<g class="sequence">
<g class="string">
<rect height="22" rx="10" ry="10" width="28" x="686" y="482"/>
<text x="700" y="498">
{</text>
</g>
<g class="character">
<rect height="22" rx="10" ry="10" width="52" x="724" y="482"/>
<text x="750" y="498">
HIDE</text>
</g>
<a class="link" xlink:href="#EventBlock">
<g class="symbol">
<rect height="22" width="100" x="786" y="482"/>
<text x="836" y="498">
EventBlock</text>
</g>
</a>
<g class="character">
<rect height="22" rx="10" ry="10" width="52" x="896" y="482"/>
<text x="922" y="498">
HIDE</text>
</g>
<g class="string">
<rect height="22" rx="10" ry="10" width="28" x="958" y="482"/>
<text x="972" y="498">
}</text>
</g>
<path d=" M 714 493 h 10"/>
<path d=" M 776 493 h 10"/>
<path d=" M 886 493 h 10"/>
<path d=" M 948 493 h 10"/>
</g>
<path d=" M 674 514 v 0 a 12 12 0 0 0 12 12 m 100 0 h 200 m -97 0 l -5 -5 m 0 10 l 5 -5 m 97 0 a 12 12 0 0 0 12 -12 v 0"/>
<a class="link" xlink:href="#EventBlock">
<g class="symbol">
<rect height="22" width="100" x="686" y="515"/>
<text x="736" y="531">
EventBlock</text>
</g>
</a>
</g>
</g>
<path d=" M 246 460 h 10"/>
<path d=" M 308 460 h 10"/>
<path d=" M 394 460 h 10"/>
<path d=" M 456 460 h 10"/>
<path d=" M 566 460 h 10"/>
<path d=" M 628 460 h 10"/>
</g>
<path d=" M 1044 460 h 5 a 5 5 0 0 1 5 -5 a 5 5 0 0 1 5 5 a 5 5 0 0 1 -5 5 a 5 5 0 0 1 -5 -5"/>
<path d=" M 25 460 h 10"/>
<path d=" M 136 460 h 10"/>
<path d=" M 1034 460 h 10"/>
</g>
<g class="sequence">
<path d=" M 10 560 a 5 5 0 0 1 5 -5 a 5 5 0 0 1 5 5 a 5 5 0 0 1 -5 5 a 5 5 0 0 1 -5 -5 m 10 0 h 5"/>
<text class="comment" id="IdStatement" x="78" y="565">
IdStatement</text>
<g class="sequence">
<a class="link" xlink:href="#KW_ID">
<g class="symbol">
<rect height="22" width="60" x="132" y="549"/>
<text x="162" y="565">
KW_ID</text>
</g>
</a>
<g class="character">
<rect height="22" rx="10" ry="10" width="52" x="202" y="549"/>
<text x="228" y="565">
HIDE</text>
</g>
<a class="link" xlink:href="#Identifier">
<g class="symbol">
<rect height="22" width="100" x="264" y="549"/>
<text x="314" y="565">
Identifier</text>
</g>
</a>
<g class="character">
<rect height="22" rx="10" ry="10" width="52" x="374" y="549"/>
<text x="400" y="565">
HIDE</text>
</g>
<a class="link" xlink:href="#Integer">
<g class="symbol">
<rect height="22" width="76" x="436" y="549"/>
<text x="474" y="565">
Integer</text>
</g>
</a>
<path d=" M 192 560 h 10"/>
<path d=" M 254 560 h 10"/>
<path d=" M 364 560 h 10"/>
<path d=" M 426 560 h 10"/>
</g>
<path d=" M 522 560 h 5 a 5 5 0 0 1 5 -5 a 5 5 0 0 1 5 5 a 5 5 0 0 1 -5 5 a 5 5 0 0 1 -5 -5"/>
<path d=" M 25 560 h 10"/>
<path d=" M 122 560 h 10"/>
<path d=" M 512 560 h 10"/>
</g>
<g class="sequence">
<path d=" M 10 594 a 5 5 0 0 1 5 -5 a 5 5 0 0 1 5 5 a 5 5 0 0 1 -5 5 a 5 5 0 0 1 -5 -5 m 10 0 h 5"/>
<text class="comment" id="Expression" x="75" y="599">
Expression</text>
<a class="link" xlink:href="#Atomic">
<g class="symbol">
<rect height="22" width="68" x="125" y="583"/>
<text x="159" y="599">
Atomic</text>
</g>
</a>
<path d=" M 203 594 h 5 a 5 5 0 0 1 5 -5 a 5 5 0 0 1 5 5 a 5 5 0 0 1 -5 5 a 5 5 0 0 1 -5 -5"/>
<path d=" M 25 594 h 10"/>
<path d=" M 115 594 h 10"/>
<path d=" M 193 594 h 10"/>
</g>
<g class="sequence">
<path d=" M 10 628 a 5 5 0 0 1 5 -5 a 5 5 0 0 1 5 5 a 5 5 0 0 1 -5 5 a 5 5 0 0 1 -5 -5 m 10 0 h 5"/>
<text class="comment" id="Atomic" x="61" y="633">
Atomic</text>
<g class="choice">
<path d=" M 97 628 h 24 m 100 0 h 40"/>
<a class="link" xlink:href="#Identifier">
<g class="symbol">
<rect height="22" width="100" x="121" y="617"/>
<text x="171" y="633">
Identifier</text>
</g>
</a>
<path d=" M 97 628 a 12 12 0 0 1 12 12 v 9 m 140 0 v -9 a 12 12 0 0 1 12 -12"/>
<path d=" M 109 649 v 33 m 140 0 v -33"/>
<path d=" M 109 682 v 33 m 140 0 v -33"/>
<path d=" M 109 715 v 33 m 140 0 v -33"/>
<path d=" M 109 748 v 33 m 140 0 v -33"/>
<path d=" M 109 781 v 33 m 140 0 v -33"/>
<path d=" M 109 649 v 0 a 12 12 0 0 0 12 12 m 76 0 h 40 a 12 12 0 0 0 12 -12 v 0"/>
<a class="link" xlink:href="#Integer">
<g class="symbol">
<rect height="22" width="76" x="121" y="650"/>
<text x="159" y="666">
Integer</text>
</g>
</a>
<path d=" M 109 682 v 0 a 12 12 0 0 0 12 12 m 92 0 h 24 a 12 12 0 0 0 12 -12 v 0"/>
<a class="link" xlink:href="#StringRaw">
<g class="symbol">
<rect height="22" width="92" x="121" y="683"/>
<text x="167" y="699">
StringRaw</text>
</g>
</a>
<path d=" M 109 715 v 0 a 12 12 0 0 0 12 12 m 116 0 h 0 a 12 12 0 0 0 12 -12 v 0"/>
<a class="link" xlink:href="#StringNormal">
<g class="symbol">
<rect height="22" width="116" x="121" y="716"/>
<text x="179" y="732">
StringNormal</text>
</g>
</a>
<path d=" M 109 748 v 0 a 12 12 0 0 0 12 12 m 76 0 h 40 a 12 12 0 0 0 12 -12 v 0"/>
<a class="link" xlink:href="#Boolean">
<g class="symbol">
<rect height="22" width="76" x="121" y="749"/>
<text x="159" y="765">
Boolean</text>
</g>
</a>
<path d=" M 109 781 v 0 a 12 12 0 0 0 12 12 m 100 0 h 16 a 12 12 0 0 0 12 -12 v 0"/>
<a class="link" xlink:href="#RangeExact">
<g class="symbol">
<rect height="22" width="100" x="121" y="782"/>
<text x="171" y="798">
RangeExact</text>
</g>
</a>
<path d=" M 109 814 v 0 a 12 12 0 0 0 12 12 m 60 0 h 56 m -25 0 l -5 -5 m 0 10 l 5 -5 m 25 0 a 12 12 0 0 0 12 -12 v 0"/>
<a class="link" xlink:href="#Range">
<g class="symbol">
<rect height="22" width="60" x="121" y="815"/>
<text x="151" y="831">
Range</text>
</g>
</a>
</g>
<path d=" M 271 628 h 5 a 5 5 0 0 1 5 -5 a 5 5 0 0 1 5 5 a 5 5 0 0 1 -5 5 a 5 5 0 0 1 -5 -5"/>
<path d=" M 25 628 h 10"/>
<path d=" M 87 628 h 10"/>
<path d=" M 261 628 h 10"/>
</g>
<g class="sequence">
<path d=" M 10 860 a 5 5 0 0 1 5 -5 a 5 5 0 0 1 5 5 a 5 5 0 0 1 -5 5 a 5 5 0 0 1 -5 -5 m 10 0 h 5"/>
<text class="comment" id="Prefix" x="61" y="865">
Prefix</text>
<g class="choice">
<path d=" M 97 860 h 0 m 92 0 h 0"/>
<g class="string">
<rect height="22" rx="10" ry="10" width="92" x="97" y="849"/>
<text x="143" y="865">
不是|非|!</text>
</g>
</g>
<path d=" M 199 860 h 5 a 5 5 0 0 1 5 -5 a 5 5 0 0 1 5 5 a 5 5 0 0 1 -5 5 a 5 5 0 0 1 -5 -5"/>
<path d=" M 25 860 h 10"/>
<path d=" M 87 860 h 10"/>
<path d=" M 189 860 h 10"/>
</g>
<g class="sequence">
<path d=" M 10 894 a 5 5 0 0 1 5 -5 a 5 5 0 0 1 5 5 a 5 5 0 0 1 -5 5 a 5 5 0 0 1 -5 -5 m 10 0 h 5"/>
<text class="comment" id="Infix" x="57" y="899">
Infix</text>
<g class="choice">
<path d=" M 90 894 h 24 m 68 0 h 64 m -29 0 l -5 -5 m 0 10 l 5 -5 m 29 0"/>
<g class="string">
<rect height="22" rx="10" ry="10" width="68" x="114" y="883"/>
<text x="148" y="899">
大于|&gt;</text>
</g>
<path d=" M 90 894 a 12 12 0 0 1 12 12 v 9 m 132 0 v -9 a 12 12 0 0 1 12 -12"/>
<path d=" M 102 915 v 33 m 132 0 v -33"/>
<path d=" M 102 948 v 33 m 132 0 v -33"/>
<path d=" M 102 981 v 33 m 132 0 v -33"/>
<path d=" M 102 1014 v 33 m 132 0 v -33"/>
<path d=" M 102 1047 v 33 m 132 0 v -33"/>
<path d=" M 102 1080 v 33 m 132 0 v -33"/>
<path d=" M 102 915 v 0 a 12 12 0 0 0 12 12 m 108 0 h 0 a 12 12 0 0 0 12 -12 v 0"/>
<g class="string">
<rect height="22" rx="10" ry="10" width="108" x="114" y="916"/>
<text x="168" y="932">
大于等于|&gt;=</text>
</g>
<path d=" M 102 948 v 0 a 12 12 0 0 0 12 12 m 68 0 h 40 a 12 12 0 0 0 12 -12 v 0"/>
<g class="string">
<rect height="22" rx="10" ry="10" width="68" x="114" y="949"/>
<text x="148" y="965">
小于|&lt;</text>
</g>
<path d=" M 102 981 v 0 a 12 12 0 0 0 12 12 m 108 0 h 0 a 12 12 0 0 0 12 -12 v 0"/>
<g class="string">
<rect height="22" rx="10" ry="10" width="108" x="114" y="982"/>
<text x="168" y="998">
小于等于|&lt;=</text>
</g>
<path d=" M 102 1014 v 0 a 12 12 0 0 0 12 12 m 100 0 h 8 a 12 12 0 0 0 12 -12 v 0"/>
<g class="string">
<rect height="22" rx="10" ry="10" width="100" x="114" y="1015"/>
<text x="164" y="1031">
为|等于|==</text>
</g>
<path d=" M 102 1047 v 0 a 12 12 0 0 0 12 12 m 92 0 h 16 a 12 12 0 0 0 12 -12 v 0"/>
<g class="string">
<rect height="22" rx="10" ry="10" width="92" x="114" y="1048"/>
<text x="160" y="1064">
不等于|!=</text>
</g>
<path d=" M 102 1080 v 0 a 12 12 0 0 0 12 12 m 60 0 h 48 a 12 12 0 0 0 12 -12 v 0"/>
<g class="string">
<rect height="22" rx="10" ry="10" width="60" x="114" y="1081"/>
<text x="144" y="1097">
&amp;&amp;|且</text>
</g>
<path d=" M 102 1113 v 0 a 12 12 0 0 0 12 12 m 76 0 h 32 a 12 12 0 0 0 12 -12 v 0"/>
<g class="string">
<rect height="22" rx="10" ry="10" width="76" x="114" y="1114"/>
<text x="152" y="1130">
\|\||或</text>
</g>
</g>
<path d=" M 256 894 h 5 a 5 5 0 0 1 5 -5 a 5 5 0 0 1 5 5 a 5 5 0 0 1 -5 5 a 5 5 0 0 1 -5 -5"/>
<path d=" M 25 894 h 10"/>
<path d=" M 80 894 h 10"/>
<path d=" M 246 894 h 10"/>
</g>
<g class="sequence">
<path d=" M 10 1159 a 5 5 0 0 1 5 -5 a 5 5 0 0 1 5 5 a 5 5 0 0 1 -5 5 a 5 5 0 0 1 -5 -5 m 10 0 h 5"/>
<text class="comment" id="StringRaw" x="71" y="1164">
StringRaw</text>
<g class="sequence">
<g class="string">
<rect height="22" rx="10" ry="10" width="28" x="118" y="1148"/>
<text x="132" y="1164">
&#x27;</text>
</g>
<a class="link" xlink:href="#StringRawText">
<g class="symbol">
<rect height="22" width="124" x="156" y="1148"/>
<text x="218" y="1164">
StringRawText</text>
</g>
</a>
<g class="string">
<rect height="22" rx="10" ry="10" width="28" x="290" y="1148"/>
<text x="304" y="1164">
&#x27;</text>
</g>
<path d=" M 146 1159 h 10"/>
<path d=" M 280 1159 h 10"/>
</g>
<path d=" M 328 1159 h 5 a 5 5 0 0 1 5 -5 a 5 5 0 0 1 5 5 a 5 5 0 0 1 -5 5 a 5 5 0 0 1 -5 -5"/>
<path d=" M 25 1159 h 10"/>
<path d=" M 108 1159 h 10"/>
<path d=" M 318 1159 h 10"/>
</g>
<g class="sequence">
<path d=" M 10 1193 a 5 5 0 0 1 5 -5 a 5 5 0 0 1 5 5 a 5 5 0 0 1 -5 5 a 5 5 0 0 1 -5 -5 m 10 0 h 5"/>
<text class="comment" id="StringRawText" x="85" y="1198">
StringRawText</text>
<g class="string">
<rect height="22" rx="10" ry="10" width="60" x="146" y="1182"/>
<text x="176" y="1198">
[^&#x27;]*</text>
</g>
<path d=" M 216 1193 h 5 a 5 5 0 0 1 5 -5 a 5 5 0 0 1 5 5 a 5 5 0 0 1 -5 5 a 5 5 0 0 1 -5 -5"/>
<path d=" M 25 1193 h 10"/>
<path d=" M 136 1193 h 10"/>
<path d=" M 206 1193 h 10"/>
</g>
<g class="sequence">
<path d=" M 10 1227 a 5 5 0 0 1 5 -5 a 5 5 0 0 1 5 5 a 5 5 0 0 1 -5 5 a 5 5 0 0 1 -5 -5 m 10 0 h 5"/>
<text class="comment" id="StringNormal" x="82" y="1232">
StringNormal</text>
<g class="sequence">
<g class="string">
<rect height="22" rx="10" ry="10" width="28" x="139" y="1216"/>
<text x="153" y="1232">
&quot;</text>
</g>
<g class="repeat">
<path d=" M 177 1227 h 12 m 100 0 h 12 m -12 0 a 12 12 0 0 1 12 12 v 7 a 12 12 0 0 1 -12 12 m -52 0 h -48 a 12 12 0 0 1 -12 -12 v -7 a 12 12 0 0 1 12 -12"/>
<text class="comment" x="263" y="1263">
[0, ∞]</text>
<a class="link" xlink:href="#StringItem">
<g class="symbol">
<rect height="22" width="100" x="189" y="1216"/>
<text x="239" y="1232">
StringItem</text>
</g>
</a>
</g>
<g class="string">
<rect height="22" rx="10" ry="10" width="28" x="311" y="1216"/>
<text x="325" y="1232">
&quot;</text>
</g>
<path d=" M 167 1227 h 10"/>
<path d=" M 301 1227 h 10"/>
</g>
<path d=" M 349 1227 h 5 a 5 5 0 0 1 5 -5 a 5 5 0 0 1 5 5 a 5 5 0 0 1 -5 5 a 5 5 0 0 1 -5 -5"/>
<path d=" M 25 1227 h 10"/>
<path d=" M 129 1227 h 10"/>
<path d=" M 339 1227 h 10"/>
</g>
<g class="sequence">
<path d=" M 10 1291 a 5 5 0 0 1 5 -5 a 5 5 0 0 1 5 5 a 5 5 0 0 1 -5 5 a 5 5 0 0 1 -5 -5 m 10 0 h 5"/>
<text class="comment" id="StringItem" x="75" y="1296">
StringItem</text>
<g class="choice">
<path d=" M 125 1291 h 24 m 132 0 h 40"/>
<a class="link" xlink:href="#EscapedUnicode">
<g class="symbol">
<rect height="22" width="132" x="149" y="1280"/>
<text x="215" y="1296">
EscapedUnicode</text>
</g>
</a>
<path d=" M 125 1291 a 12 12 0 0 1 12 12 v 9 m 172 0 v -9 a 12 12 0 0 1 12 -12"/>
<path d=" M 137 1312 v 33 m 172 0 v -33"/>
<path d=" M 137 1312 v 0 a 12 12 0 0 0 12 12 m 148 0 h 0 a 12 12 0 0 0 12 -12 v 0"/>
<a class="link" xlink:href="#EscapedCharacter">
<g class="symbol">
<rect height="22" width="148" x="149" y="1313"/>
<text x="223" y="1329">
EscapedCharacter</text>
</g>
</a>
<path d=" M 137 1345 v 0 a 12 12 0 0 0 12 12 m 76 0 h 72 m -33 0 l -5 -5 m 0 10 l 5 -5 m 33 0 a 12 12 0 0 0 12 -12 v 0"/>
<a class="link" xlink:href="#TextAny">
<g class="symbol">
<rect height="22" width="76" x="149" y="1346"/>
<text x="187" y="1362">
TextAny</text>
</g>
</a>
</g>
<path d=" M 331 1291 h 5 a 5 5 0 0 1 5 -5 a 5 5 0 0 1 5 5 a 5 5 0 0 1 -5 5 a 5 5 0 0 1 -5 -5"/>
<path d=" M 25 1291 h 10"/>
<path d=" M 115 1291 h 10"/>
<path d=" M 321 1291 h 10"/>
</g>
<g class="sequence">
<path d=" M 10 1391 a 5 5 0 0 1 5 -5 a 5 5 0 0 1 5 5 a 5 5 0 0 1 -5 5 a 5 5 0 0 1 -5 -5 m 10 0 h 5"/>
<text class="comment" id="EscapedUnicode" x="89" y="1396">
EscapedUnicode</text>
<g class="sequence">
<g class="string">
<rect height="22" rx="10" ry="10" width="44" x="153" y="1380"/>
<text x="175" y="1396">
\u{</text>
</g>
<a class="link" xlink:href="#HEX">
<g class="symbol">
<rect height="22" width="44" x="207" y="1380"/>
<text x="229" y="1396">
HEX</text>
</g>
</a>
<g class="string">
<rect height="22" rx="10" ry="10" width="28" x="261" y="1380"/>
<text x="275" y="1396">
}</text>
</g>
<path d=" M 197 1391 h 10"/>
<path d=" M 251 1391 h 10"/>
</g>
<path d=" M 299 1391 h 5 a 5 5 0 0 1 5 -5 a 5 5 0 0 1 5 5 a 5 5 0 0 1 -5 5 a 5 5 0 0 1 -5 -5"/>
<path d=" M 25 1391 h 10"/>
<path d=" M 143 1391 h 10"/>
<path d=" M 289 1391 h 10"/>
</g>
<g class="sequence">
<path d=" M 10 1425 a 5 5 0 0 1 5 -5 a 5 5 0 0 1 5 5 a 5 5 0 0 1 -5 5 a 5 5 0 0 1 -5 -5 m 10 0 h 5"/>
<text class="comment" id="EscapedCharacter" x="96" y="1430">
EscapedCharacter</text>
<g class="string">
<rect height="22" rx="10" ry="10" width="44" x="167" y="1414"/>
<text x="189" y="1430">
\\.</text>
</g>
<path d=" M 221 1425 h 5 a 5 5 0 0 1 5 -5 a 5 5 0 0 1 5 5 a 5 5 0 0 1 -5 5 a 5 5 0 0 1 -5 -5"/>
<path d=" M 25 1425 h 10"/>
<path d=" M 157 1425 h 10"/>
<path d=" M 211 1425 h 10"/>
</g>
<g class="sequence">
<path d=" M 10 1459 a 5 5 0 0 1 5 -5 a 5 5 0 0 1 5 5 a 5 5 0 0 1 -5 5 a 5 5 0 0 1 -5 -5 m 10 0 h 5"/>
<text class="comment" id="HEX" x="50" y="1464">
HEX</text>
<g class="repeat">
<path d=" M 76 1459 h 12 m 170 0 h 12 m -12 0 a 12 12 0 0 1 12 12 v 7 a 12 12 0 0 1 -12 12 m -52 0 h -118 m 62 0 l 5 -5 m 0 10 l -5 -5 m -62 0 a 12 12 0 0 1 -12 -12 v -7 a 12 12 0 0 1 12 -12"/>
<text class="comment" x="232" y="1495">
[1, 6]</text>
<g class="sequence">
<g class="character">
<rect height="22" rx="10" ry="10" width="52" x="88" y="1448"/>
<text x="114" y="1464">
HIDE</text>
</g>
<g class="string">
<rect height="22" rx="10" ry="10" width="108" x="150" y="1448"/>
<text x="204" y="1464">
[0-9a-fA-F]</text>
</g>
<path d=" M 140 1459 h 10"/>
</g>
</g>
<path d=" M 280 1459 h 5 a 5 5 0 0 1 5 -5 a 5 5 0 0 1 5 5 a 5 5 0 0 1 -5 5 a 5 5 0 0 1 -5 -5"/>
<path d=" M 25 1459 h 10"/>
<path d=" M 66 1459 h 10"/>
<path d=" M 270 1459 h 10"/>
</g>
<g class="sequence">
<path d=" M 10 1523 a 5 5 0 0 1 5 -5 a 5 5 0 0 1 5 5 a 5 5 0 0 1 -5 5 a 5 5 0 0 1 -5 -5 m 10 0 h 5"/>
<text class="comment" id="TextAny" x="64" y="1528">
TextAny</text>
<g class="string">
<rect height="22" rx="10" ry="10" width="76" x="104" y="1512"/>
<text x="142" y="1528">
[^&quot;\\]+</text>
</g>
<path d=" M 190 1523 h 5 a 5 5 0 0 1 5 -5 a 5 5 0 0 1 5 5 a 5 5 0 0 1 -5 5 a 5 5 0 0 1 -5 -5"/>
<path d=" M 25 1523 h 10"/>
<path d=" M 94 1523 h 10"/>
<path d=" M 180 1523 h 10"/>
</g>
<g class="sequence">
<path d=" M 10 1557 a 5 5 0 0 1 5 -5 a 5 5 0 0 1 5 5 a 5 5 0 0 1 -5 5 a 5 5 0 0 1 -5 -5 m 10 0 h 5"/>
<text class="comment" id="Identifier" x="75" y="1562">
Identifier</text>
<g class="string">
<rect height="22" rx="10" ry="10" width="292" x="125" y="1546"/>
<text x="271" y="1562">
[_\p{XID_start}]\p{XID_continue}*</text>
</g>
<path d=" M 427 1557 h 5 a 5 5 0 0 1 5 -5 a 5 5 0 0 1 5 5 a 5 5 0 0 1 -5 5 a 5 5 0 0 1 -5 -5"/>
<path d=" M 25 1557 h 10"/>
<path d=" M 115 1557 h 10"/>
<path d=" M 417 1557 h 10"/>
</g>
<g class="sequence">
<path d=" M 10 1591 a 5 5 0 0 1 5 -5 a 5 5 0 0 1 5 5 a 5 5 0 0 1 -5 5 a 5 5 0 0 1 -5 -5 m 10 0 h 5"/>
<text class="comment" id="Integer" x="64" y="1596">
Integer</text>
<g class="string">
<rect height="22" rx="10" ry="10" width="124" x="104" y="1580"/>
<text x="166" y="1596">
0|[1-9][0-9]*</text>
</g>
<path d=" M 238 1591 h 5 a 5 5 0 0 1 5 -5 a 5 5 0 0 1 5 5 a 5 5 0 0 1 -5 5 a 5 5 0 0 1 -5 -5"/>
<path d=" M 25 1591 h 10"/>
<path d=" M 94 1591 h 10"/>
<path d=" M 228 1591 h 10"/>
</g>
<g class="sequence">
<path d=" M 10 1625 a 5 5 0 0 1 5 -5 a 5 5 0 0 1 5 5 a 5 5 0 0 1 -5 5 a 5 5 0 0 1 -5 -5 m 10 0 h 5"/>
<text class="comment" id="RangeExact" x="75" y="1630">
RangeExact</text>
<g class="sequence">
<g class="string">
<rect height="22" rx="10" ry="10" width="28" x="125" y="1614"/>
<text x="139" y="1630">
{</text>
</g>
<g class="character">
<rect height="22" rx="10" ry="10" width="52" x="163" y="1614"/>
<text x="189" y="1630">
HIDE</text>
</g>
<a class="link" xlink:href="#Integer">
<g class="symbol">
<rect height="22" width="76" x="225" y="1614"/>
<text x="263" y="1630">
Integer</text>
</g>
</a>
<g class="character">
<rect height="22" rx="10" ry="10" width="52" x="311" y="1614"/>
<text x="337" y="1630">
HIDE</text>
</g>
<g class="string">
<rect height="22" rx="10" ry="10" width="28" x="373" y="1614"/>
<text x="387" y="1630">
}</text>
</g>
<path d=" M 153 1625 h 10"/>
<path d=" M 215 1625 h 10"/>
<path d=" M 301 1625 h 10"/>
<path d=" M 363 1625 h 10"/>
</g>
<path d=" M 411 1625 h 5 a 5 5 0 0 1 5 -5 a 5 5 0 0 1 5 5 a 5 5 0 0 1 -5 5 a 5 5 0 0 1 -5 -5"/>
<path d=" M 25 1625 h 10"/>
<path d=" M 115 1625 h 10"/>
<path d=" M 401 1625 h 10"/>
</g>
<g class="sequence">
<path d=" M 10 1672 a 5 5 0 0 1 5 -5 a 5 5 0 0 1 5 5 a 5 5 0 0 1 -5 5 a 5 5 0 0 1 -5 -5 m 10 0 h 5"/>
<text class="comment" id="Range" x="57" y="1677">
Range</text>
<g class="sequence">
<g class="string">
<rect height="22" rx="10" ry="10" width="28" x="90" y="1661"/>
<text x="104" y="1677">
{</text>
</g>
<g class="character">
<rect height="22" rx="10" ry="10" width="52" x="128" y="1661"/>
<text x="154" y="1677">
HIDE</text>
</g>
<g class="optional">
<path d=" M 190 1672 h 24 m -24 0 a 12 12 0 0 0 12 -12 v 0 a 12 12 0 0 1 12 -12 h 76 m -35 0 l -5 -5 m 0 10 l 5 -5 m 35 0 a 12 12 0 0 1 12 12 v 0 a 12 12 0 0 0 12 12 h -24"/>
<a class="link" xlink:href="#Integer">
<g class="symbol">
<rect height="22" width="76" x="214" y="1661"/>
<text x="252" y="1677">
Integer</text>
</g>
</a>
</g>
<g class="character">
<rect height="22" rx="10" ry="10" width="52" x="324" y="1661"/>
<text x="350" y="1677">
HIDE</text>
</g>
<g class="string">
<rect height="22" rx="10" ry="10" width="28" x="386" y="1661"/>
<text x="400" y="1677">
,</text>
</g>
<g class="character">
<rect height="22" rx="10" ry="10" width="52" x="424" y="1661"/>
<text x="450" y="1677">
HIDE</text>
</g>
<g class="optional">
<path d=" M 486 1672 h 24 m -24 0 a 12 12 0 0 0 12 -12 v 0 a 12 12 0 0 1 12 -12 h 76 m -35 0 l -5 -5 m 0 10 l 5 -5 m 35 0 a 12 12 0 0 1 12 12 v 0 a 12 12 0 0 0 12 12 h -24"/>
<a class="link" xlink:href="#Integer">
<g class="symbol">
<rect height="22" width="76" x="510" y="1661"/>
<text x="548" y="1677">
Integer</text>
</g>
</a>
</g>
<g class="character">
<rect height="22" rx="10" ry="10" width="52" x="620" y="1661"/>
<text x="646" y="1677">
HIDE</text>
</g>
<g class="string">
<rect height="22" rx="10" ry="10" width="28" x="682" y="1661"/>
<text x="696" y="1677">
}</text>
</g>
<path d=" M 118 1672 h 10"/>
<path d=" M 180 1672 h 10"/>
<path d=" M 314 1672 h 10"/>
<path d=" M 376 1672 h 10"/>
<path d=" M 414 1672 h 10"/>
<path d=" M 476 1672 h 10"/>
<path d=" M 610 1672 h 10"/>
<path d=" M 672 1672 h 10"/>
</g>
<path d=" M 720 1672 h 5 a 5 5 0 0 1 5 -5 a 5 5 0 0 1 5 5 a 5 5 0 0 1 -5 5 a 5 5 0 0 1 -5 -5"/>
<path d=" M 25 1672 h 10"/>
<path d=" M 80 1672 h 10"/>
<path d=" M 710 1672 h 10"/>
</g>
<g class="sequence">
<path d=" M 10 1706 a 5 5 0 0 1 5 -5 a 5 5 0 0 1 5 5 a 5 5 0 0 1 -5 5 a 5 5 0 0 1 -5 -5 m 10 0 h 5"/>
<text class="comment" id="Boolean" x="64" y="1711">
Boolean</text>
<g class="choice">
<path d=" M 104 1706 h 24 m 76 0 h 32"/>
<g class="string">
<rect height="22" rx="10" ry="10" width="76" x="128" y="1695"/>
<text x="166" y="1711">
真|true</text>
</g>
<path d=" M 104 1706 a 12 12 0 0 1 12 12 v 9 m 108 0 v -9 a 12 12 0 0 1 12 -12"/>
<path d=" M 116 1727 v 0 a 12 12 0 0 0 12 12 m 84 0 h 0 a 12 12 0 0 0 12 -12 v 0"/>
<g class="string">
<rect height="22" rx="10" ry="10" width="84" x="128" y="1728"/>
<text x="170" y="1744">
假|false</text>
</g>
</g>
<path d=" M 246 1706 h 5 a 5 5 0 0 1 5 -5 a 5 5 0 0 1 5 5 a 5 5 0 0 1 -5 5 a 5 5 0 0 1 -5 -5"/>
<path d=" M 25 1706 h 10"/>
<path d=" M 94 1706 h 10"/>
<path d=" M 236 1706 h 10"/>
</g>
</g>
</svg>