<svg class="railroad" viewBox="0 0 963 2887" xmlns="http://www.w3.org/2000/svg" xmlns:xlink="http://www.w3.org/1999/xlink">
<style type="text/css">svg.railroad{background-color:hsl(30,20%,95%);background-size:15px 15px;background-image:linear-gradient(to right,rgba(30,30,30,.05) 1px,transparent 1px),linear-gradient(to bottom,rgba(30,30,30,.05) 1px,transparent 1px);}svg.railroad path{stroke-width:3px;stroke:black;fill:transparent;}svg.railroad .debug{stroke-width:1px;stroke:red;}svg.railroad text{font-size:14px;font-family:monospace;text-anchor:middle;}svg.railroad .nonterminal text{font-weight:bold;}svg.railroad text.comment{font-family:serif;font-style:italic;font-size:12px;}svg.railroad rect{stroke-width:3px;stroke:black;}svg.railroad g.labeledbox>rect{stroke-width:1px;stroke:grey;stroke-dasharray:5px;fill:rgba(90,90,150,.1);}svg.railroad .symbol>rect{fill:rgba(90,90,150,.1);}svg.railroad .regex>rect{fill:honeydew;}svg.railroad .string>rect{fill:cornsilk;}svg.railroad .character>rect{fill:lightcoral;}</style>
<g class="verticalgrid">
<g class="sequence">
<path d=" M 10 21 a 5 5 0 0 1 5 -5 a 5 5 0 0 1 5 5 a 5 5 0 0 1 -5 5 a 5 5 0 0 1 -5 -5 m 10 0 h 5"/>
<text class="comment" id="Root" x="54" y="26">
Root</text>
<g class="sequence">
<g class="repeat">
<path d=" M 83 21 h 12 m 178 0 h 12 m -12 0 a 12 12 0 0 1 12 12 v 7 a 12 12 0 0 1 -12 12 m -52 0 h -126 m 66 0 l 5 -5 m 0 10 l -5 -5 m -66 0 a 12 12 0 0 1 -12 -12 v -7 a 12 12 0 0 1 12 -12"/>
<text class="comment" x="247" y="57">
[0, ∞]</text>
<g class="sequence">
<g class="character">
<rect height="22" rx="10" ry="10" width="52" x="95" y="10"/>
<text x="121" y="26">
HIDE</text>
</g>
<a class="link" xlink:href="#TopStatement">
<g class="symbol">
<rect height="22" width="116" x="157" y="10"/>
<text x="215" y="26">
TopStatement</text>
</g>
</a>
<path d=" M 147 21 h 10"/>
</g>
</g>
<g class="character">
<rect height="22" rx="10" ry="10" width="52" x="295" y="10"/>
<text x="321" y="26">
HIDE</text>
</g>
<g class="character">
<rect height="22" rx="10" ry="10" width="116" x="357" y="10"/>
<text x="415" y="26">
END_OF_INPUT</text>
</g>
<path d=" M 285 21 h 10"/>
<path d=" M 347 21 h 10"/>
</g>
<path d=" M 483 21 h 5 a 5 5 0 0 1 5 -5 a 5 5 0 0 1 5 5 a 5 5 0 0 1 -5 5 a 5 5 0 0 1 -5 -5"/>
<path d=" M 25 21 h 10"/>
<path d=" M 73 21 h 10"/>
<path d=" M 473 21 h 10"/>
</g>
<g class="sequence">
<path d=" M 10 85 a 5 5 0 0 1 5 -5 a 5 5 0 0 1 5 5 a 5 5 0 0 1 -5 5 a 5 5 0 0 1 -5 -5 m 10 0 h 5"/>
<text class="comment" id="TopStatement" x="82" y="90">
TopStatement</text>
<g class="choice">
<path d=" M 139 85 h 24 m 156 0 h 24"/>
<a class="link" xlink:href="#PropertyStatement">
<g class="symbol">
<rect height="22" width="156" x="163" y="74"/>
<text x="241" y="90">
PropertyStatement</text>
</g>
</a>
<path d=" M 139 85 a 12 12 0 0 1 12 12 v 9 m 180 0 v -9 a 12 12 0 0 1 12 -12"/>
<path d=" M 151 106 v 33 m 180 0 v -33"/>
<path d=" M 151 139 v 33 m 180 0 v -33"/>
<path d=" M 151 172 v 33 m 180 0 v -33"/>
<path d=" M 151 205 v 33 m 180 0 v -33"/>
<path d=" M 151 106 v 0 a 12 12 0 0 0 12 12 m 100 0 h 56 m -25 0 l -5 -5 m 0 10 l 5 -5 m 25 0 a 12 12 0 0 0 12 -12 v 0"/>
<a class="link" xlink:href="#TraitGroup">
<g class="symbol">
<rect height="22" width="100" x="163" y="107"/>
<text x="213" y="123">
TraitGroup</text>
</g>
</a>
<path d=" M 151 139 v 0 a 12 12 0 0 0 12 12 m 132 0 h 24 a 12 12 0 0 0 12 -12 v 0"/>
<a class="link" xlink:href="#TraitStatement">
<g class="symbol">
<rect height="22" width="132" x="163" y="140"/>
<text x="229" y="156">
TraitStatement</text>
</g>
</a>
<path d=" M 151 172 v 0 a 12 12 0 0 0 12 12 m 100 0 h 56 m -25 0 l -5 -5 m 0 10 l 5 -5 m 25 0 a 12 12 0 0 0 12 -12 v 0"/>
<a class="link" xlink:href="#EventGroup">
<g class="symbol">
<rect height="22" width="100" x="163" y="173"/>
<text x="213" y="189">
EventGroup</text>
</g>
</a>
<path d=" M 151 205 v 0 a 12 12 0 0 0 12 12 m 132 0 h 24 a 12 12 0 0 0 12 -12 v 0"/>
<a class="link" xlink:href="#EventStatement">
<g class="symbol">
<rect height="22" width="132" x="163" y="206"/>
<text x="229" y="222">
EventStatement</text>
</g>
</a>
<path d=" M 151 238 v 0 a 12 12 0 0 0 12 12 m 44 0 h 112 m -53 0 l -5 -5 m 0 10 l 5 -5 m 53 0 a 12 12 0 0 0 12 -12 v 0"/>
<a class="link" xlink:href="#EOS">
<g class="symbol">
<rect height="22" width="44" x="163" y="239"/>
<text x="185" y="255">
EOS</text>
</g>
</a>
</g>
<path d=" M 353 85 h 5 a 5 5 0 0 1 5 -5 a 5 5 0 0 1 5 5 a 5 5 0 0 1 -5 5 a 5 5 0 0 1 -5 -5"/>
<path d=" M 25 85 h 10"/>
<path d=" M 129 85 h 10"/>
<path d=" M 343 85 h 10"/>
</g>
<g class="sequence">
<path d=" M 10 284 a 5 5 0 0 1 5 -5 a 5 5 0 0 1 5 5 a 5 5 0 0 1 -5 5 a 5 5 0 0 1 -5 -5 m 10 0 h 5"/>
<text class="comment" id="EOS" x="50" y="289">
EOS</text>
<g class="string">
<rect height="22" rx="10" ry="10" width="28" x="76" y="273"/>
<text x="90" y="289">
;</text>
</g>
<path d=" M 114 284 h 5 a 5 5 0 0 1 5 -5 a 5 5 0 0 1 5 5 a 5 5 0 0 1 -5 5 a 5 5 0 0 1 -5 -5"/>
<path d=" M 25 284 h 10"/>
<path d=" M 66 284 h 10"/>
<path d=" M 104 284 h 10"/>
</g>
<g class="sequence">
<path d=" M 10 318 a 5 5 0 0 1 5 -5 a 5 5 0 0 1 5 5 a 5 5 0 0 1 -5 5 a 5 5 0 0 1 -5 -5 m 10 0 h 5"/>
<text class="comment" id="PropertyStatement" x="99" y="323">
PropertyStatement</text>
<g class="sequence">
<a class="link" xlink:href="#KW_PROPERTY">
<g class="symbol">
<rect height="22" width="108" x="174" y="307"/>
<text x="228" y="323">
KW_PROPERTY</text>
</g>
</a>
<g class="character">
<rect height="22" rx="10" ry="10" width="52" x="292" y="307"/>
<text x="318" y="323">
HIDE</text>
</g>
<a class="link" xlink:href="#Identifier">
<g class="symbol">
<rect height="22" width="100" x="354" y="307"/>
<text x="404" y="323">
Identifier</text>
</g>
</a>
<g class="character">
<rect height="22" rx="10" ry="10" width="52" x="464" y="307"/>
<text x="490" y="323">
HIDE</text>
</g>
<g class="string">
<rect height="22" rx="10" ry="10" width="28" x="526" y="307"/>
<text x="540" y="323">
{</text>
</g>
<g class="character">
<rect height="22" rx="10" ry="10" width="52" x="564" y="307"/>
<text x="590" y="323">
HIDE</text>
</g>
<g class="repeat">
<path d=" M 626 318 h 12 m 178 0 h 12 m -12 0 a 12 12 0 0 1 12 12 v 7 a 12 12 0 0 1 -12 12 m -52 0 h -126 m 66 0 l 5 -5 m 0 10 l -5 -5 m -66 0 a 12 12 0 0 1 -12 -12 v -7 a 12 12 0 0 1 12 -12"/>
<text class="comment" x="790" y="354">
[0, ∞]</text>
<g class="sequence">
<g class="character">
<rect height="22" rx="10" ry="10" width="52" x="638" y="307"/>
<text x="664" y="323">
HIDE</text>
</g>
<a class="link" xlink:href="#PropertyItem">
<g class="symbol">
<rect height="22" width="116" x="700" y="307"/>
<text x="758" y="323">
PropertyItem</text>
</g>
</a>
<path d=" M 690 318 h 10"/>
</g>
</g>
<g class="character">
<rect height="22" rx="10" ry="10" width="52" x="838" y="307"/>
<text x="864" y="323">
HIDE</text>
</g>
<g class="string">
<rect height="22" rx="10" ry="10" width="28" x="900" y="307"/>
<text x="914" y="323">
}</text>
</g>
<path d=" M 282 318 h 10"/>
<path d=" M 344 318 h 10"/>
<path d=" M 454 318 h 10"/>
<path d=" M 516 318 h 10"/>
<path d=" M 554 318 h 10"/>
<path d=" M 616 318 h 10"/>
<path d=" M 828 318 h 10"/>
<path d=" M 890 318 h 10"/>
</g>
<path d=" M 938 318 h 5 a 5 5 0 0 1 5 -5 a 5 5 0 0 1 5 5 a 5 5 0 0 1 -5 5 a 5 5 0 0 1 -5 -5"/>
<path d=" M 25 318 h 10"/>
<path d=" M 164 318 h 10"/>
<path d=" M 928 318 h 10"/>
</g>
<g class="sequence">
<path d=" M 10 382 a 5 5 0 0 1 5 -5 a 5 5 0 0 1 5 5 a 5 5 0 0 1 -5 5 a 5 5 0 0 1 -5 -5 m 10 0 h 5"/>
<text class="comment" id="PropertyItem" x="82" y="387">
PropertyItem</text>
<g class="choice">
<path d=" M 139 382 h 24 m 108 0 h 104 m -49 0 l -5 -5 m 0 10 l 5 -5 m 49 0"/>
<a class="link" xlink:href="#IdStatement">
<g class="symbol">
<rect height="22" width="108" x="163" y="371"/>
<text x="217" y="387">
IdStatement</text>
</g>
</a>
<path d=" M 139 382 a 12 12 0 0 1 12 12 v 9 m 212 0 v -9 a 12 12 0 0 1 12 -12"/>
<path d=" M 151 403 v 33 m 212 0 v -33"/>
<path d=" M 151 436 v 33 m 212 0 v -33"/>
<path d=" M 151 469 v 33 m 212 0 v -33"/>
<path d=" M 151 502 v 33 m 212 0 v -33"/>
<path d=" M 151 403 v 0 a 12 12 0 0 0 12 12 m 188 0 h 0 a 12 12 0 0 0 12 -12 v 0"/>
<a class="link" xlink:href="#DescriptionStatement">
<g class="symbol">
<rect height="22" width="188" x="163" y="404"/>
<text x="257" y="420">
DescriptionStatement</text>
</g>
</a>
<path d=" M 151 436 v 0 a 12 12 0 0 0 12 12 m 188 0 h 0 a 12 12 0 0 0 12 -12 v 0"/>
<a class="link" xlink:href="#RequirementStatement">
<g class="symbol">
<rect height="22" width="188" x="163" y="437"/>
<text x="257" y="453">
RequirementStatement</text>
</g>
</a>
<path d=" M 151 469 v 0 a 12 12 0 0 0 12 12 m 140 0 h 48 a 12 12 0 0 0 12 -12 v 0"/>
<a class="link" xlink:href="#OptionStatement">
<g class="symbol">
<rect height="22" width="140" x="163" y="470"/>
<text x="233" y="486">
OptionStatement</text>
</g>
</a>
<path d=" M 151 502 v 0 a 12 12 0 0 0 12 12 m 164 0 h 24 a 12 12 0 0 0 12 -12 v 0"/>
<a class="link" xlink:href="#EnumerateStatement">
<g class="symbol">
<rect height="22" width="164" x="163" y="503"/>
<text x="245" y="519">
EnumerateStatement</text>
</g>
</a>
<path d=" M 151 535 v 0 a 12 12 0 0 0 12 12 m 44 0 h 144 m -69 0 l -5 -5 m 0 10 l 5 -5 m 69 0 a 12 12 0 0 0 12 -12 v 0"/>
<a class="link" xlink:href="#EOS">
<g class="symbol">
<rect height="22" width="44" x="163" y="536"/>
<text x="185" y="552">
EOS</text>
</g>
</a>
</g>
<path d=" M 385 382 h 5 a 5 5 0 0 1 5 -5 a 5 5 0 0 1 5 5 a 5 5 0 0 1 -5 5 a 5 5 0 0 1 -5 -5"/>
<path d=" M 25 382 h 10"/>
<path d=" M 129 382 h 10"/>
<path d=" M 375 382 h 10"/>
</g>
<g class="sequence">
<path d=" M 10 581 a 5 5 0 0 1 5 -5 a 5 5 0 0 1 5 5 a 5 5 0 0 1 -5 5 a 5 5 0 0 1 -5 -5 m 10 0 h 5"/>
<text class="comment" id="EnumerateStatement" x="103" y="586">
EnumerateStatement</text>
<g class="sequence">
<a class="link" xlink:href="#KW_ENUMERATE">
<g class="symbol">
<rect height="22" width="116" x="181" y="570"/>
<text x="239" y="586">
KW_ENUMERATE</text>
</g>
</a>
<g class="character">
<rect height="22" rx="10" ry="10" width="52" x="307" y="570"/>
<text x="333" y="586">
HIDE</text>
</g>
<g class="string">
<rect height="22" rx="10" ry="10" width="28" x="369" y="570"/>
<text x="383" y="586">
[</text>
</g>
<g class="character">
<rect height="22" rx="10" ry="10" width="52" x="407" y="570"/>
<text x="433" y="586">
HIDE</text>
</g>
<g class="repeat">
<path d=" M 469 581 h 12 m 210 0 h 12 m -12 0 a 12 12 0 0 1 12 12 v 40 a 12 12 0 0 1 -12 12 m -52 0 h -158 m 82 0 l 5 -5 m 0 10 l -5 -5 m -82 0 a 12 12 0 0 1 -12 -12 v -40 a 12 12 0 0 1 12 -12"/>
<text class="comment" x="665" y="650">
[0, ∞]</text>
<g class="sequence">
<g class="character">
<rect height="22" rx="10" ry="10" width="52" x="481" y="570"/>
<text x="507" y="586">
HIDE</text>
</g>
<g class="choice">
<path d=" M 543 581 h 24 m 100 0 h 24"/>
<a class="link" xlink:href="#Identifier">
<g class="symbol">
<rect height="22" width="100" x="567" y="570"/>
<text x="617" y="586">
Identifier</text>
</g>
</a>
<path d=" M 543 581 a 12 12 0 0 1 12 12 v 9 m 124 0 v -9 a 12 12 0 0 1 12 -12"/>
<path d=" M 555 602 v 0 a 12 12 0 0 0 12 12 m 60 0 h 40 a 12 12 0 0 0 12 -12 v 0"/>
<a class="link" xlink:href="#COMMA">
<g class="symbol">
<rect height="22" width="60" x="567" y="603"/>
<text x="597" y="619">
COMMA</text>
</g>
</a>
</g>
<path d=" M 533 581 h 10"/>
</g>
</g>
<g class="character">
<rect height="22" rx="10" ry="10" width="52" x="713" y="570"/>
<text x="739" y="586">
HIDE</text>
</g>
<g class="string">
<rect height="22" rx="10" ry="10" width="28" x="775" y="570"/>
<text x="789" y="586">
]</text>
</g>
<path d=" M 297 581 h 10"/>
<path d=" M 359 581 h 10"/>
<path d=" M 397 581 h 10"/>
<path d=" M 459 581 h 10"/>
<path d=" M 703 581 h 10"/>
<path d=" M 765 581 h 10"/>
</g>
<path d=" M 813 581 h 5 a 5 5 0 0 1 5 -5 a 5 5 0 0 1 5 5 a 5 5 0 0 1 -5 5 a 5 5 0 0 1 -5 -5"/>
<path d=" M 25 581 h 10"/>
<path d=" M 171 581 h 10"/>
<path d=" M 803 581 h 10"/>
</g>
<g class="sequence">
<path d=" M 10 678 a 5 5 0 0 1 5 -5 a 5 5 0 0 1 5 5 a 5 5 0 0 1 -5 5 a 5 5 0 0 1 -5 -5 m 10 0 h 5"/>
<text class="comment" id="OptionStatement" x="92" y="683">
OptionStatement</text>
<g class="sequence">
<a class="link" xlink:href="#KW_OPTIONS">
<g class="symbol">
<rect height="22" width="100" x="160" y="667"/>
<text x="210" y="683">
KW_OPTIONS</text>
</g>
</a>
<g class="character">
<rect height="22" rx="10" ry="10" width="52" x="270" y="667"/>
<text x="296" y="683">
HIDE</text>
</g>
<g class="choice">
<path d=" M 332 678 h 24 m 434 0 h 24"/>
<g class="sequence">
<g class="string">
<rect height="22" rx="10" ry="10" width="28" x="356" y="667"/>
<text x="370" y="683">
[</text>
</g>
<g class="character">
<rect height="22" rx="10" ry="10" width="52" x="394" y="667"/>
<text x="420" y="683">
HIDE</text>
</g>
<g class="repeat">
<path d=" M 456 678 h 12 m 210 0 h 12 m -12 0 a 12 12 0 0 1 12 12 v 40 a 12 12 0 0 1 -12 12 m -52 0 h -158 m 82 0 l 5 -5 m 0 10 l -5 -5 m -82 0 a 12 12 0 0 1 -12 -12 v -40 a 12 12 0 0 1 12 -12"/>
<text class="comment" x="652" y="747">
[0, ∞]</text>
<g class="sequence">
<g class="character">
<rect height="22" rx="10" ry="10" width="52" x="468" y="667"/>
<text x="494" y="683">
HIDE</text>
</g>
<g class="choice">
<path d=" M 530 678 h 24 m 100 0 h 24"/>
<a class="link" xlink:href="#OptionItem">
<g class="symbol">
<rect height="22" width="100" x="554" y="667"/>
<text x="604" y="683">
OptionItem</text>
</g>
</a>
<path d=" M 530 678 a 12 12 0 0 1 12 12 v 9 m 124 0 v -9 a 12 12 0 0 1 12 -12"/>
<path d=" M 542 699 v 0 a 12 12 0 0 0 12 12 m 60 0 h 40 a 12 12 0 0 0 12 -12 v 0"/>
<a class="link" xlink:href="#COMMA">
<g class="symbol">
<rect height="22" width="60" x="554" y="700"/>
<text x="584" y="716">
COMMA</text>
</g>
</a>
</g>
<path d=" M 520 678 h 10"/>
</g>
</g>
<g class="character">
<rect height="22" rx="10" ry="10" width="52" x="700" y="667"/>
<text x="726" y="683">
HIDE</text>
</g>
<g class="string">
<rect height="22" rx="10" ry="10" width="28" x="762" y="667"/>
<text x="776" y="683">
]</text>
</g>
<path d=" M 384 678 h 10"/>
<path d=" M 446 678 h 10"/>
<path d=" M 690 678 h 10"/>
<path d=" M 752 678 h 10"/>
</g>
<path d=" M 332 678 a 12 12 0 0 1 12 12 v 72 m 0 -33 l -5 -5 m 10 0 l -5 5 m 0 33 m 458 0 v -72 m 0 39 l -5 5 m 10 0 l -5 -5 m 0 -39 a 12 12 0 0 1 12 -12"/>
<path d=" M 344 762 v 0 a 12 12 0 0 0 12 12 m 434 0 h 0 a 12 12 0 0 0 12 -12 v 0"/>
<g class="sequence">
<g class="string">
<rect height="22" rx="10" ry="10" width="28" x="356" y="763"/>
<text x="370" y="779">
{</text>
</g>
<g class="character">
<rect height="22" rx="10" ry="10" width="52" x="394" y="763"/>
<text x="420" y="779">
HIDE</text>
</g>
<g class="repeat">
<path d=" M 456 774 h 12 m 210 0 h 12 m -12 0 a 12 12 0 0 1 12 12 v 40 a 12 12 0 0 1 -12 12 m -52 0 h -158 m 82 0 l 5 -5 m 0 10 l -5 -5 m -82 0 a 12 12 0 0 1 -12 -12 v -40 a 12 12 0 0 1 12 -12"/>
<text class="comment" x="652" y="843">
[0, ∞]</text>
<g class="sequence">
<g class="character">
<rect height="22" rx="10" ry="10" width="52" x="468" y="763"/>
<text x="494" y="779">
HIDE</text>
</g>
<g class="choice">
<path d=" M 530 774 h 24 m 100 0 h 24"/>
<a class="link" xlink:href="#OptionItem">
<g class="symbol">
<rect height="22" width="100" x="554" y="763"/>
<text x="604" y="779">
OptionItem</text>
</g>
</a>
<path d=" M 530 774 a 12 12 0 0 1 12 12 v 9 m 124 0 v -9 a 12 12 0 0 1 12 -12"/>
<path d=" M 542 795 v 0 a 12 12 0 0 0 12 12 m 60 0 h 40 a 12 12 0 0 0 12 -12 v 0"/>
<a class="link" xlink:href="#COMMA">
<g class="symbol">
<rect height="22" width="60" x="554" y="796"/>
<text x="584" y="812">
COMMA</text>
</g>
</a>
</g>
<path d=" M 520 774 h 10"/>
</g>
</g>
<g class="character">
<rect height="22" rx="10" ry="10" width="52" x="700" y="763"/>
<text x="726" y="779">
HIDE</text>
</g>
<g class="string">
<rect height="22" rx="10" ry="10" width="28" x="762" y="763"/>
<text x="776" y="779">
}</text>
</g>
<path d=" M 384 774 h 10"/>
<path d=" M 446 774 h 10"/>
<path d=" M 690 774 h 10"/>
<path d=" M 752 774 h 10"/>
</g>
</g>
<path d=" M 260 678 h 10"/>
<path d=" M 322 678 h 10"/>
</g>
<path d=" M 824 678 h 5 a 5 5 0 0 1 5 -5 a 5 5 0 0 1 5 5 a 5 5 0 0 1 -5 5 a 5 5 0 0 1 -5 -5"/>
<path d=" M 25 678 h 10"/>
<path d=" M 150 678 h 10"/>
<path d=" M 814 678 h 10"/>
</g>
<g class="sequence">
<path d=" M 10 884 a 5 5 0 0 1 5 -5 a 5 5 0 0 1 5 5 a 5 5 0 0 1 -5 5 a 5 5 0 0 1 -5 -5 m 10 0 h 5"/>
<text class="comment" id="OptionItem" x="75" y="889">
OptionItem</text>
<g class="sequence">
<g class="sequence">
<g class="optional">
<path d=" M 125 884 h 24 m -24 0 a 12 12 0 0 0 12 -12 v 0 a 12 12 0 0 1 12 -12 h 208 m -101 0 l -5 -5 m 0 10 l 5 -5 m 101 0 a 12 12 0 0 1 12 12 v 0 a 12 12 0 0 0 12 12 h -24"/>
<g class="sequence">
<a class="link" xlink:href="#Integer">
<g class="symbol">
<rect height="22" width="76" x="149" y="873"/>
<text x="187" y="889">
Integer</text>
</g>
</a>
<g class="character">
<rect height="22" rx="10" ry="10" width="52" x="235" y="873"/>
<text x="261" y="889">
HIDE</text>
</g>
<a class="link" xlink:href="#COLON">
<g class="symbol">
<rect height="22" width="60" x="297" y="873"/>
<text x="327" y="889">
COLON</text>
</g>
</a>
<path d=" M 225 884 h 10"/>
<path d=" M 287 884 h 10"/>
</g>
</g>
<g class="character">
<rect height="22" rx="10" ry="10" width="52" x="391" y="873"/>
<text x="417" y="889">
HIDE</text>
</g>
<path d=" M 381 884 h 10"/>
</g>
<a class="link" xlink:href="#Identifier">
<g class="symbol">
<rect height="22" width="100" x="453" y="873"/>
<text x="503" y="889">
Identifier</text>
</g>
</a>
<path d=" M 443 884 h 10"/>
</g>
<path d=" M 563 884 h 5 a 5 5 0 0 1 5 -5 a 5 5 0 0 1 5 5 a 5 5 0 0 1 -5 5 a 5 5 0 0 1 -5 -5"/>
<path d=" M 25 884 h 10"/>
<path d=" M 115 884 h 10"/>
<path d=" M 553 884 h 10"/>
</g>
<g class="sequence">
<path d=" M 10 918 a 5 5 0 0 1 5 -5 a 5 5 0 0 1 5 5 a 5 5 0 0 1 -5 5 a 5 5 0 0 1 -5 -5 m 10 0 h 5"/>
<text class="comment" id="TraitGroup" x="75" y="923">
TraitGroup</text>
<g class="sequence">
<a class="link" xlink:href="#KW_TRAIT_GROUP">
<g class="symbol">
<rect height="22" width="132" x="125" y="907"/>
<text x="191" y="923">
KW_TRAIT_GROUP</text>
</g>
</a>
<g class="character">
<rect height="22" rx="10" ry="10" width="52" x="267" y="907"/>
<text x="293" y="923">
HIDE</text>
</g>
<a class="link" xlink:href="#Identifier">
<g class="symbol">
<rect height="22" width="100" x="329" y="907"/>
<text x="379" y="923">
Identifier</text>
</g>
</a>
<g class="character">
<rect height="22" rx="10" ry="10" width="52" x="439" y="907"/>
<text x="465" y="923">
HIDE</text>
</g>
<g class="string">
<rect height="22" rx="10" ry="10" width="28" x="501" y="907"/>
<text x="515" y="923">
{</text>
</g>
<g class="character">
<rect height="22" rx="10" ry="10" width="52" x="539" y="907"/>
<text x="565" y="923">
HIDE</text>
</g>
<g class="repeat">
<path d=" M 601 918 h 12 m 194 0 h 12 m -12 0 a 12 12 0 0 1 12 12 v 7 a 12 12 0 0 1 -12 12 m -52 0 h -142 m 74 0 l 5 -5 m 0 10 l -5 -5 m -74 0 a 12 12 0 0 1 -12 -12 v -7 a 12 12 0 0 1 12 -12"/>
<text class="comment" x="781" y="954">
[0, ∞]</text>
<g class="sequence">
<g class="character">
<rect height="22" rx="10" ry="10" width="52" x="613" y="907"/>
<text x="639" y="923">
HIDE</text>
</g>
<a class="link" xlink:href="#TraitStatement">
<g class="symbol">
<rect height="22" width="132" x="675" y="907"/>
<text x="741" y="923">
TraitStatement</text>
</g>
</a>
<path d=" M 665 918 h 10"/>
</g>
</g>
<g class="character">
<rect height="22" rx="10" ry="10" width="52" x="829" y="907"/>
<text x="855" y="923">
HIDE</text>
</g>
<g class="string">
<rect height="22" rx="10" ry="10" width="28" x="891" y="907"/>
<text x="905" y="923">
}</text>
</g>
<path d=" M 257 918 h 10"/>
<path d=" M 319 918 h 10"/>
<path d=" M 429 918 h 10"/>
<path d=" M 491 918 h 10"/>
<path d=" M 529 918 h 10"/>
<path d=" M 591 918 h 10"/>
<path d=" M 819 918 h 10"/>
<path d=" M 881 918 h 10"/>
</g>
<path d=" M 929 918 h 5 a 5 5 0 0 1 5 -5 a 5 5 0 0 1 5 5 a 5 5 0 0 1 -5 5 a 5 5 0 0 1 -5 -5"/>
<path d=" M 25 918 h 10"/>
<path d=" M 115 918 h 10"/>
<path d=" M 919 918 h 10"/>
</g>
<g class="sequence">
<path d=" M 10 982 a 5 5 0 0 1 5 -5 a 5 5 0 0 1 5 5 a 5 5 0 0 1 -5 5 a 5 5 0 0 1 -5 -5 m 10 0 h 5"/>
<text class="comment" id="TraitStatement" x="89" y="987">
TraitStatement</text>
<g class="sequence">
<a class="link" xlink:href="#KW_TRAIT">
<g class="symbol">
<rect height="22" width="84" x="153" y="971"/>
<text x="195" y="987">
KW_TRAIT</text>
</g>
</a>
<g class="character">
<rect height="22" rx="10" ry="10" width="52" x="247" y="971"/>
<text x="273" y="987">
HIDE</text>
</g>
<a class="link" xlink:href="#Identifier">
<g class="symbol">
<rect height="22" width="100" x="309" y="971"/>
<text x="359" y="987">
Identifier</text>
</g>
</a>
<g class="character">
<rect height="22" rx="10" ry="10" width="52" x="419" y="971"/>
<text x="445" y="987">
HIDE</text>
</g>
<g class="string">
<rect height="22" rx="10" ry="10" width="28" x="481" y="971"/>
<text x="495" y="987">
{</text>
</g>
<g class="character">
<rect height="22" rx="10" ry="10" width="52" x="519" y="971"/>
<text x="545" y="987">
HIDE</text>
</g>
<g class="repeat">
<path d=" M 581 982 h 12 m 202 0 h 12 m -12 0 a 12 12 0 0 1 12 12 v 40 a 12 12 0 0 1 -12 12 m -52 0 h -150 m 78 0 l 5 -5 m 0 10 l -5 -5 m -78 0 a 12 12 0 0 1 -12 -12 v -40 a 12 12 0 0 1 12 -12"/>
<text class="comment" x="769" y="1051">
[0, ∞]</text>
<g class="sequence">
<g class="character">
<rect height="22" rx="10" ry="10" width="52" x="593" y="971"/>
<text x="619" y="987">
HIDE</text>
</g>
<g class="choice">
<path d=" M 655 982 h 24 m 92 0 h 24"/>
<a class="link" xlink:href="#TraitItem">
<g class="symbol">
<rect height="22" width="92" x="679" y="971"/>
<text x="725" y="987">
TraitItem</text>
</g>
</a>
<path d=" M 655 982 a 12 12 0 0 1 12 12 v 9 m 116 0 v -9 a 12 12 0 0 1 12 -12"/>
<path d=" M 667 1003 v 0 a 12 12 0 0 0 12 12 m 44 0 h 48 a 12 12 0 0 0 12 -12 v 0"/>
<a class="link" xlink:href="#EOS">
<g class="symbol">
<rect height="22" width="44" x="679" y="1004"/>
<text x="701" y="1020">
EOS</text>
</g>
</a>
</g>
<path d=" M 645 982 h 10"/>
</g>
</g>
<g class="character">
<rect height="22" rx="10" ry="10" width="52" x="817" y="971"/>
<text x="843" y="987">
HIDE</text>
</g>
<g class="string">
<rect height="22" rx="10" ry="10" width="28" x="879" y="971"/>
<text x="893" y="987">
}</text>
</g>
<path d=" M 237 982 h 10"/>
<path d=" M 299 982 h 10"/>
<path d=" M 409 982 h 10"/>
<path d=" M 471 982 h 10"/>
<path d=" M 509 982 h 10"/>
<path d=" M 571 982 h 10"/>
<path d=" M 807 982 h 10"/>
<path d=" M 869 982 h 10"/>
</g>
<path d=" M 917 982 h 5 a 5 5 0 0 1 5 -5 a 5 5 0 0 1 5 5 a 5 5 0 0 1 -5 5 a 5 5 0 0 1 -5 -5"/>
<path d=" M 25 982 h 10"/>
<path d=" M 143 982 h 10"/>
<path d=" M 907 982 h 10"/>
</g>
<g class="sequence">
<path d=" M 10 1079 a 5 5 0 0 1 5 -5 a 5 5 0 0 1 5 5 a 5 5 0 0 1 -5 5 a 5 5 0 0 1 -5 -5 m 10 0 h 5"/>
<text class="comment" id="TraitItem" x="71" y="1084">
TraitItem</text>
<g class="choice">
<path d=" M 118 1079 h 24 m 108 0 h 104 m -49 0 l -5 -5 m 0 10 l 5 -5 m 49 0"/>
<a class="link" xlink:href="#IdStatement">
<g class="symbol">
<rect height="22" width="108" x="142" y="1068"/>
<text x="196" y="1084">
IdStatement</text>
</g>
</a>
<path d=" M 118 1079 a 12 12 0 0 1 12 12 v 9 m 212 0 v -9 a 12 12 0 0 1 12 -12"/>
<path d=" M 130 1100 v 33 m 212 0 v -33"/>
<path d=" M 130 1133 v 33 m 212 0 v -33"/>
<path d=" M 130 1100 v 0 a 12 12 0 0 0 12 12 m 188 0 h 0 a 12 12 0 0 0 12 -12 v 0"/>
<a class="link" xlink:href="#DescriptionStatement">
<g class="symbol">
<rect height="22" width="188" x="142" y="1101"/>
<text x="236" y="1117">
DescriptionStatement</text>
</g>
</a>
<path d=" M 130 1133 v 0 a 12 12 0 0 0 12 12 m 188 0 h 0 a 12 12 0 0 0 12 -12 v 0"/>
<a class="link" xlink:href="#RequirementStatement">
<g class="symbol">
<rect height="22" width="188" x="142" y="1134"/>
<text x="236" y="1150">
RequirementStatement</text>
</g>
</a>
<path d=" M 130 1166 v 0 a 12 12 0 0 0 12 12 m 140 0 h 48 a 12 12 0 0 0 12 -12 v 0"/>
<a class="link" xlink:href="#EffectStatement">
<g class="symbol">
<rect height="22" width="140" x="142" y="1167"/>
<text x="212" y="1183">
EffectStatement</text>
</g>
</a>
</g>
<path d=" M 364 1079 h 5 a 5 5 0 0 1 5 -5 a 5 5 0 0 1 5 5 a 5 5 0 0 1 -5 5 a 5 5 0 0 1 -5 -5"/>
<path d=" M 25 1079 h 10"/>
<path d=" M 108 1079 h 10"/>
<path d=" M 354 1079 h 10"/>
</g>
<g class="sequence">
<path d=" M 10 1212 a 5 5 0 0 1 5 -5 a 5 5 0 0 1 5 5 a 5 5 0 0 1 -5 5 a 5 5 0 0 1 -5 -5 m 10 0 h 5"/>
<text class="comment" id="TraitProperty" x="85" y="1217">
TraitProperty</text>
<g class="sequence">
<a class="link" xlink:href="#Identifier">
<g class="symbol">
<rect height="22" width="100" x="146" y="1201"/>
<text x="196" y="1217">
Identifier</text>
</g>
</a>
<g class="character">
<rect height="22" rx="10" ry="10" width="52" x="256" y="1201"/>
<text x="282" y="1217">
HIDE</text>
</g>
<g class="string">
<rect height="22" rx="10" ry="10" width="28" x="318" y="1201"/>
<text x="332" y="1217">
:</text>
</g>
<g class="character">
<rect height="22" rx="10" ry="10" width="52" x="356" y="1201"/>
<text x="382" y="1217">
HIDE</text>
</g>
<a class="link" xlink:href="#Atomic">
<g class="symbol">
<rect height="22" width="68" x="418" y="1201"/>
<text x="452" y="1217">
Atomic</text>
</g>
</a>
<path d=" M 246 1212 h 10"/>
<path d=" M 308 1212 h 10"/>
<path d=" M 346 1212 h 10"/>
<path d=" M 408 1212 h 10"/>
</g>
<path d=" M 496 1212 h 5 a 5 5 0 0 1 5 -5 a 5 5 0 0 1 5 5 a 5 5 0 0 1 -5 5 a 5 5 0 0 1 -5 -5"/>
<path d=" M 25 1212 h 10"/>
<path d=" M 136 1212 h 10"/>
<path d=" M 486 1212 h 10"/>
</g>
<g class="sequence">
<path d=" M 10 1246 a 5 5 0 0 1 5 -5 a 5 5 0 0 1 5 5 a 5 5 0 0 1 -5 5 a 5 5 0 0 1 -5 -5 m 10 0 h 5"/>
<text class="comment" id="RequirementStatement" x="113" y="1251">
RequirementStatement</text>
<g class="sequence">
<a class="link" xlink:href="#KW_REQUIREMENT">
<g class="symbol">
<rect height="22" width="132" x="202" y="1235"/>
<text x="268" y="1251">
KW_REQUIREMENT</text>
</g>
</a>
<g class="character">
<rect height="22" rx="10" ry="10" width="52" x="344" y="1235"/>
<text x="370" y="1251">
HIDE</text>
</g>
<g class="string">
<rect height="22" rx="10" ry="10" width="28" x="406" y="1235"/>
<text x="420" y="1251">
{</text>
</g>
<g class="character">
<rect height="22" rx="10" ry="10" width="52" x="444" y="1235"/>
<text x="470" y="1251">
HIDE</text>
</g>
<g class="repeat">
<path d=" M 506 1246 h 12 m 154 0 h 12 m -12 0 a 12 12 0 0 1 12 12 v 7 a 12 12 0 0 1 -12 12 m -52 0 h -102 m 54 0 l 5 -5 m 0 10 l -5 -5 m -54 0 a 12 12 0 0 1 -12 -12 v -7 a 12 12 0 0 1 12 -12"/>
<text class="comment" x="646" y="1282">
[0, ∞]</text>
<g class="sequence">
<g class="character">
<rect height="22" rx="10" ry="10" width="52" x="518" y="1235"/>
<text x="544" y="1251">
HIDE</text>
</g>
<a class="link" xlink:href="#Statement">
<g class="symbol">
<rect height="22" width="92" x="580" y="1235"/>
<text x="626" y="1251">
Statement</text>
</g>
</a>
<path d=" M 570 1246 h 10"/>
</g>
</g>
<g class="character">
<rect height="22" rx="10" ry="10" width="52" x="694" y="1235"/>
<text x="720" y="1251">
HIDE</text>
</g>
<g class="string">
<rect height="22" rx="10" ry="10" width="28" x="756" y="1235"/>
<text x="770" y="1251">
}</text>
</g>
<path d=" M 334 1246 h 10"/>
<path d=" M 396 1246 h 10"/>
<path d=" M 434 1246 h 10"/>
<path d=" M 496 1246 h 10"/>
<path d=" M 684 1246 h 10"/>
<path d=" M 746 1246 h 10"/>
</g>
<path d=" M 794 1246 h 5 a 5 5 0 0 1 5 -5 a 5 5 0 0 1 5 5 a 5 5 0 0 1 -5 5 a 5 5 0 0 1 -5 -5"/>
<path d=" M 25 1246 h 10"/>
<path d=" M 192 1246 h 10"/>
<path d=" M 784 1246 h 10"/>
</g>
<g class="sequence">
<path d=" M 10 1310 a 5 5 0 0 1 5 -5 a 5 5 0 0 1 5 5 a 5 5 0 0 1 -5 5 a 5 5 0 0 1 -5 -5 m 10 0 h 5"/>
<text class="comment" id="EffectStatement" x="92" y="1315">
EffectStatement</text>
<g class="sequence">
<a class="link" xlink:href="#KW_EFFECT">
<g class="symbol">
<rect height="22" width="92" x="160" y="1299"/>
<text x="206" y="1315">
KW_EFFECT</text>
</g>
</a>
<g class="character">
<rect height="22" rx="10" ry="10" width="52" x="262" y="1299"/>
<text x="288" y="1315">
HIDE</text>
</g>
<g class="string">
<rect height="22" rx="10" ry="10" width="28" x="324" y="1299"/>
<text x="338" y="1315">
{</text>
</g>
<g class="character">
<rect height="22" rx="10" ry="10" width="52" x="362" y="1299"/>
<text x="388" y="1315">
HIDE</text>
</g>
<g class="repeat">
<path d=" M 424 1310 h 12 m 154 0 h 12 m -12 0 a 12 12 0 0 1 12 12 v 7 a 12 12 0 0 1 -12 12 m -52 0 h -102 m 54 0 l 5 -5 m 0 10 l -5 -5 m -54 0 a 12 12 0 0 1 -12 -12 v -7 a 12 12 0 0 1 12 -12"/>
<text class="comment" x="564" y="1346">
[0, ∞]</text>
<g class="sequence">
<g class="character">
<rect height="22" rx="10" ry="10" width="52" x="436" y="1299"/>
<text x="462" y="1315">
HIDE</text>
</g>
<a class="link" xlink:href="#Statement">
<g class="symbol">
<rect height="22" width="92" x="498" y="1299"/>
<text x="544" y="1315">
Statement</text>
</g>
</a>
<path d=" M 488 1310 h 10"/>
</g>
</g>
<g class="character">
<rect height="22" rx="10" ry="10" width="52" x="612" y="1299"/>
<text x="638" y="1315">
HIDE</text>
</g>
<g class="string">
<rect height="22" rx="10" ry="10" width="28" x="674" y="1299"/>
<text x="688" y="1315">
}</text>
</g>
<path d=" M 252 1310 h 10"/>
<path d=" M 314 1310 h 10"/>
<path d=" M 352 1310 h 10"/>
<path d=" M 414 1310 h 10"/>
<path d=" M 602 1310 h 10"/>
<path d=" M 664 1310 h 10"/>
</g>
<path d=" M 712 1310 h 5 a 5 5 0 0 1 5 -5 a 5 5 0 0 1 5 5 a 5 5 0 0 1 -5 5 a 5 5 0 0 1 -5 -5"/>
<path d=" M 25 1310 h 10"/>
<path d=" M 150 1310 h 10"/>
<path d=" M 702 1310 h 10"/>
</g>
<g class="sequence">
<path d=" M 10 1374 a 5 5 0 0 1 5 -5 a 5 5 0 0 1 5 5 a 5 5 0 0 1 -5 5 a 5 5 0 0 1 -5 -5 m 10 0 h 5"/>
<text class="comment" id="EventGroup" x="75" y="1379">
EventGroup</text>
<g class="sequence">
<a class="link" xlink:href="#KW_EVENT_GROUP">
<g class="symbol">
<rect height="22" width="132" x="125" y="1363"/>
<text x="191" y="1379">
KW_EVENT_GROUP</text>
</g>
</a>
<g class="character">
<rect height="22" rx="10" ry="10" width="52" x="267" y="1363"/>
<text x="293" y="1379">
HIDE</text>
</g>
<a class="link" xlink:href="#Identifier">
<g class="symbol">
<rect height="22" width="100" x="329" y="1363"/>
<text x="379" y="1379">
Identifier</text>
</g>
</a>
<g class="character">
<rect height="22" rx="10" ry="10" width="52" x="439" y="1363"/>
<text x="465" y="1379">
HIDE</text>
</g>
<g class="string">
<rect height="22" rx="10" ry="10" width="28" x="501" y="1363"/>
<text x="515" y="1379">
{</text>
</g>
<g class="character">
<rect height="22" rx="10" ry="10" width="52" x="539" y="1363"/>
<text x="565" y="1379">
HIDE</text>
</g>
<g class="repeat">
<path d=" M 601 1374 h 12 m 194 0 h 12 m -12 0 a 12 12 0 0 1 12 12 v 7 a 12 12 0 0 1 -12 12 m -52 0 h -142 m 74 0 l 5 -5 m 0 10 l -5 -5 m -74 0 a 12 12 0 0 1 -12 -12 v -7 a 12 12 0 0 1 12 -12"/>
<text class="comment" x="781" y="1410">
[0, ∞]</text>
<g class="sequence">
<g class="character">
<rect height="22" rx="10" ry="10" width="52" x="613" y="1363"/>
<text x="639" y="1379">
HIDE</text>
</g>
<a class="link" xlink:href="#EventStatement">
<g class="symbol">
<rect height="22" width="132" x="675" y="1363"/>
<text x="741" y="1379">
EventStatement</text>
</g>
</a>
<path d=" M 665 1374 h 10"/>
</g>
</g>
<g class="character">
<rect height="22" rx="10" ry="10" width="52" x="829" y="1363"/>
<text x="855" y="1379">
HIDE</text>
</g>
<g class="string">
<rect height="22" rx="10" ry="10" width="28" x="891" y="1363"/>
<text x="905" y="1379">
}</text>
</g>
<path d=" M 257 1374 h 10"/>
<path d=" M 319 1374 h 10"/>
<path d=" M 429 1374 h 10"/>
<path d=" M 491 1374 h 10"/>
<path d=" M 529 1374 h 10"/>
<path d=" M 591 1374 h 10"/>
<path d=" M 819 1374 h 10"/>
<path d=" M 881 1374 h 10"/>
</g>
<path d=" M 929 1374 h 5 a 5 5 0 0 1 5 -5 a 5 5 0 0 1 5 5 a 5 5 0 0 1 -5 5 a 5 5 0 0 1 -5 -5"/>
<path d=" M 25 1374 h 10"/>
<path d=" M 115 1374 h 10"/>
<path d=" M 919 1374 h 10"/>
</g>
<g class="sequence">
<path d=" M 10 1438 a 5 5 0 0 1 5 -5 a 5 5 0 0 1 5 5 a 5 5 0 0 1 -5 5 a 5 5 0 0 1 -5 -5 m 10 0 h 5"/>
<text class="comment" id="EventStatement" x="89" y="1443">
EventStatement</text>
<g class="sequence">
<a class="link" xlink:href="#KW_EVENT">
<g class="symbol">
<rect height="22" width="84" x="153" y="1427"/>
<text x="195" y="1443">
KW_EVENT</text>
</g>
</a>
<g class="character">
<rect height="22" rx="10" ry="10" width="52" x="247" y="1427"/>
<text x="273" y="1443">
HIDE</text>
</g>
<a class="link" xlink:href="#Identifier">
<g class="symbol">
<rect height="22" width="100" x="309" y="1427"/>
<text x="359" y="1443">
Identifier</text>
</g>
</a>
<g class="character">
<rect height="22" rx="10" ry="10" width="52" x="419" y="1427"/>
<text x="445" y="1443">
HIDE</text>
</g>
<g class="string">
<rect height="22" rx="10" ry="10" width="28" x="481" y="1427"/>
<text x="495" y="1443">
{</text>
</g>
<g class="character">
<rect height="22" rx="10" ry="10" width="52" x="519" y="1427"/>
<text x="545" y="1443">
HIDE</text>
</g>
<g class="repeat">
<path d=" M 581 1438 h 12 m 202 0 h 12 m -12 0 a 12 12 0 0 1 12 12 v 40 a 12 12 0 0 1 -12 12 m -52 0 h -150 m 78 0 l 5 -5 m 0 10 l -5 -5 m -78 0 a 12 12 0 0 1 -12 -12 v -40 a 12 12 0 0 1 12 -12"/>
<text class="comment" x="769" y="1507">
[0, ∞]</text>
<g class="sequence">
<g class="character">
<rect height="22" rx="10" ry="10" width="52" x="593" y="1427"/>
<text x="619" y="1443">
HIDE</text>
</g>
<g class="choice">
<path d=" M 655 1438 h 24 m 92 0 h 24"/>
<a class="link" xlink:href="#EventItem">
<g class="symbol">
<rect height="22" width="92" x="679" y="1427"/>
<text x="725" y="1443">
EventItem</text>
</g>
</a>
<path d=" M 655 1438 a 12 12 0 0 1 12 12 v 9 m 116 0 v -9 a 12 12 0 0 1 12 -12"/>
<path d=" M 667 1459 v 0 a 12 12 0 0 0 12 12 m 44 0 h 48 a 12 12 0 0 0 12 -12 v 0"/>
<a class="link" xlink:href="#EOS">
<g class="symbol">
<rect height="22" width="44" x="679" y="1460"/>
<text x="701" y="1476">
EOS</text>
</g>
</a>
</g>
<path d=" M 645 1438 h 10"/>
</g>
</g>
<g class="character">
<rect height="22" rx="10" ry="10" width="52" x="817" y="1427"/>
<text x="843" y="1443">
HIDE</text>
</g>
<g class="string">
<rect height="22" rx="10" ry="10" width="28" x="879" y="1427"/>
<text x="893" y="1443">
}</text>
</g>
<path d=" M 237 1438 h 10"/>
<path d=" M 299 1438 h 10"/>
<path d=" M 409 1438 h 10"/>
<path d=" M 471 1438 h 10"/>
<path d=" M 509 1438 h 10"/>
<path d=" M 571 1438 h 10"/>
<path d=" M 807 1438 h 10"/>
<path d=" M 869 1438 h 10"/>
</g>
<path d=" M 917 1438 h 5 a 5 5 0 0 1 5 -5 a 5 5 0 0 1 5 5 a 5 5 0 0 1 -5 5 a 5 5 0 0 1 -5 -5"/>
<path d=" M 25 1438 h 10"/>
<path d=" M 143 1438 h 10"/>
<path d=" M 907 1438 h 10"/>
</g>
<g class="sequence">
<path d=" M 10 1535 a 5 5 0 0 1 5 -5 a 5 5 0 0 1 5 5 a 5 5 0 0 1 -5 5 a 5 5 0 0 1 -5 -5 m 10 0 h 5"/>
<text class="comment" id="EventItem" x="71" y="1540">
EventItem</text>
<g class="choice">
<path d=" M 118 1535 h 24 m 108 0 h 104 m -49 0 l -5 -5 m 0 10 l 5 -5 m 49 0"/>
<a class="link" xlink:href="#IdStatement">
<g class="symbol">
<rect height="22" width="108" x="142" y="1524"/>
<text x="196" y="1540">
IdStatement</text>
</g>
</a>
<path d=" M 118 1535 a 12 12 0 0 1 12 12 v 9 m 212 0 v -9 a 12 12 0 0 1 12 -12"/>
<path d=" M 130 1556 v 33 m 212 0 v -33"/>
<path d=" M 130 1589 v 33 m 212 0 v -33"/>
<path d=" M 130 1556 v 0 a 12 12 0 0 0 12 12 m 188 0 h 0 a 12 12 0 0 0 12 -12 v 0"/>
<a class="link" xlink:href="#DescriptionStatement">
<g class="symbol">
<rect height="22" width="188" x="142" y="1557"/>
<text x="236" y="1573">
DescriptionStatement</text>
</g>
</a>
<path d=" M 130 1589 v 0 a 12 12 0 0 0 12 12 m 188 0 h 0 a 12 12 0 0 0 12 -12 v 0"/>
<a class="link" xlink:href="#RequirementStatement">
<g class="symbol">
<rect height="22" width="188" x="142" y="1590"/>
<text x="236" y="1606">
RequirementStatement</text>
</g>
</a>
<path d=" M 130 1622 v 0 a 12 12 0 0 0 12 12 m 140 0 h 48 a 12 12 0 0 0 12 -12 v 0"/>
<a class="link" xlink:href="#OptionStatement">
<g class="symbol">
<rect height="22" width="140" x="142" y="1623"/>
<text x="212" y="1639">
OptionStatement</text>
</g>
</a>
</g>
<path d=" M 364 1535 h 5 a 5 5 0 0 1 5 -5 a 5 5 0 0 1 5 5 a 5 5 0 0 1 -5 5 a 5 5 0 0 1 -5 -5"/>
<path d=" M 25 1535 h 10"/>
<path d=" M 108 1535 h 10"/>
<path d=" M 354 1535 h 10"/>
</g>
<g class="sequence">
<path d=" M 10 1668 a 5 5 0 0 1 5 -5 a 5 5 0 0 1 5 5 a 5 5 0 0 1 -5 5 a 5 5 0 0 1 -5 -5 m 10 0 h 5"/>
<text class="comment" id="EventProperty" x="85" y="1673">
EventProperty</text>
<a class="link" xlink:href="#Identifier">
<g class="symbol">
<rect height="22" width="100" x="146" y="1657"/>
<text x="196" y="1673">
Identifier</text>
</g>
</a>
<path d=" M 256 1668 h 5 a 5 5 0 0 1 5 -5 a 5 5 0 0 1 5 5 a 5 5 0 0 1 -5 5 a 5 5 0 0 1 -5 -5"/>
<path d=" M 25 1668 h 10"/>
<path d=" M 136 1668 h 10"/>
<path d=" M 246 1668 h 10"/>
</g>
<g class="sequence">
<path d=" M 10 1702 a 5 5 0 0 1 5 -5 a 5 5 0 0 1 5 5 a 5 5 0 0 1 -5 5 a 5 5 0 0 1 -5 -5 m 10 0 h 5"/>
<text class="comment" id="IdStatement" x="78" y="1707">
IdStatement</text>
<g class="sequence">
<a class="link" xlink:href="#KW_ID">
<g class="symbol">
<rect height="22" width="60" x="132" y="1691"/>
<text x="162" y="1707">
KW_ID</text>
</g>
</a>
<g class="character">
<rect height="22" rx="10" ry="10" width="52" x="202" y="1691"/>
<text x="228" y="1707">
HIDE</text>
</g>
<a class="link" xlink:href="#Integer">
<g class="symbol">
<rect height="22" width="76" x="264" y="1691"/>
<text x="302" y="1707">
Integer</text>
</g>
</a>
<path d=" M 192 1702 h 10"/>
<path d=" M 254 1702 h 10"/>
</g>
<path d=" M 350 1702 h 5 a 5 5 0 0 1 5 -5 a 5 5 0 0 1 5 5 a 5 5 0 0 1 -5 5 a 5 5 0 0 1 -5 -5"/>
<path d=" M 25 1702 h 10"/>
<path d=" M 122 1702 h 10"/>
<path d=" M 340 1702 h 10"/>
</g>
<g class="sequence">
<path d=" M 10 1749 a 5 5 0 0 1 5 -5 a 5 5 0 0 1 5 5 a 5 5 0 0 1 -5 5 a 5 5 0 0 1 -5 -5 m 10 0 h 5"/>
<text class="comment" id="DescriptionStatement" x="113" y="1754">
DescriptionStatement</text>
<g class="choice">
<path d=" M 202 1749 h 24 m 320 0 h 106 m -50 0 l -5 -5 m 0 10 l 5 -5 m 50 0"/>
<g class="sequence">
<a class="link" xlink:href="#KW_DESCRIPTION">
<g class="symbol">
<rect height="22" width="132" x="226" y="1738"/>
<text x="292" y="1754">
KW_DESCRIPTION</text>
</g>
</a>
<g class="character">
<rect height="22" rx="10" ry="10" width="52" x="368" y="1738"/>
<text x="394" y="1754">
HIDE</text>
</g>
<g class="optional">
<path d=" M 430 1749 h 24 m -24 0 a 12 12 0 0 0 12 -12 v 0 a 12 12 0 0 1 12 -12 h 68 m -31 0 l -5 -5 m 0 10 l 5 -5 m 31 0 a 12 12 0 0 1 12 12 v 0 a 12 12 0 0 0 12 12 h -24"/>
<a class="link" xlink:href="#String">
<g class="symbol">
<rect height="22" width="68" x="454" y="1738"/>
<text x="488" y="1754">
String</text>
</g>
</a>
</g>
<path d=" M 358 1749 h 10"/>
<path d=" M 420 1749 h 10"/>
</g>
<path d=" M 202 1749 a 12 12 0 0 1 12 12 v 9 m 426 0 v -9 a 12 12 0 0 1 12 -12"/>
<path d=" M 214 1770 v 0 a 12 12 0 0 0 12 12 m 402 0 h 0 a 12 12 0 0 0 12 -12 v 0"/>
<g class="sequence">
<g class="string">
<rect height="22" rx="10" ry="10" width="28" x="226" y="1771"/>
<text x="240" y="1787">
[</text>
</g>
<g class="character">
<rect height="22" rx="10" ry="10" width="52" x="264" y="1771"/>
<text x="290" y="1787">
HIDE</text>
</g>
<g class="repeat">
<path d=" M 326 1782 h 12 m 178 0 h 12 m -12 0 a 12 12 0 0 1 12 12 v 40 a 12 12 0 0 1 -12 12 m -52 0 h -126 m 66 0 l 5 -5 m 0 10 l -5 -5 m -66 0 a 12 12 0 0 1 -12 -12 v -40 a 12 12 0 0 1 12 -12"/>
<text class="comment" x="490" y="1851">
[0, ∞]</text>
<g class="sequence">
<g class="character">
<rect height="22" rx="10" ry="10" width="52" x="338" y="1771"/>
<text x="364" y="1787">
HIDE</text>
</g>
<g class="choice">
<path d=" M 400 1782 h 24 m 68 0 h 24"/>
<a class="link" xlink:href="#String">
<g class="symbol">
<rect height="22" width="68" x="424" y="1771"/>
<text x="458" y="1787">
String</text>
</g>
</a>
<path d=" M 400 1782 a 12 12 0 0 1 12 12 v 9 m 92 0 v -9 a 12 12 0 0 1 12 -12"/>
<path d=" M 412 1803 v 0 a 12 12 0 0 0 12 12 m 44 0 h 24 a 12 12 0 0 0 12 -12 v 0"/>
<a class="link" xlink:href="#EOS">
<g class="symbol">
<rect height="22" width="44" x="424" y="1804"/>
<text x="446" y="1820">
EOS</text>
</g>
</a>
</g>
<path d=" M 390 1782 h 10"/>
</g>
</g>
<g class="character">
<rect height="22" rx="10" ry="10" width="52" x="538" y="1771"/>
<text x="564" y="1787">
HIDE</text>
</g>
<g class="string">
<rect height="22" rx="10" ry="10" width="28" x="600" y="1771"/>
<text x="614" y="1787">
]</text>
</g>
<path d=" M 254 1782 h 10"/>
<path d=" M 316 1782 h 10"/>
<path d=" M 528 1782 h 10"/>
<path d=" M 590 1782 h 10"/>
</g>
</g>
<path d=" M 662 1749 h 5 a 5 5 0 0 1 5 -5 a 5 5 0 0 1 5 5 a 5 5 0 0 1 -5 5 a 5 5 0 0 1 -5 -5"/>
<path d=" M 25 1749 h 10"/>
<path d=" M 192 1749 h 10"/>
<path d=" M 652 1749 h 10"/>
</g>
<g class="sequence">
<path d=" M 10 1879 a 5 5 0 0 1 5 -5 a 5 5 0 0 1 5 5 a 5 5 0 0 1 -5 5 a 5 5 0 0 1 -5 -5 m 10 0 h 5"/>
<text class="comment" id="Statement" x="71" y="1884">
Statement</text>
<g class="choice">
<path d=" M 118 1879 h 24 m 108 0 h 24"/>
<a class="link" xlink:href="#IfStatement">
<g class="symbol">
<rect height="22" width="108" x="142" y="1868"/>
<text x="196" y="1884">
IfStatement</text>
</g>
</a>
<path d=" M 118 1879 a 12 12 0 0 1 12 12 v 9 m 132 0 v -9 a 12 12 0 0 1 12 -12"/>
<path d=" M 130 1900 v 33 m 132 0 v -33"/>
<path d=" M 130 1900 v 0 a 12 12 0 0 0 12 12 m 100 0 h 8 a 12 12 0 0 0 12 -12 v 0"/>
<a class="link" xlink:href="#Expression">
<g class="symbol">
<rect height="22" width="100" x="142" y="1901"/>
<text x="192" y="1917">
Expression</text>
</g>
</a>
<path d=" M 130 1933 v 0 a 12 12 0 0 0 12 12 m 44 0 h 64 m -29 0 l -5 -5 m 0 10 l 5 -5 m 29 0 a 12 12 0 0 0 12 -12 v 0"/>
<a class="link" xlink:href="#EOS">
<g class="symbol">
<rect height="22" width="44" x="142" y="1934"/>
<text x="164" y="1950">
EOS</text>
</g>
</a>
</g>
<path d=" M 284 1879 h 5 a 5 5 0 0 1 5 -5 a 5 5 0 0 1 5 5 a 5 5 0 0 1 -5 5 a 5 5 0 0 1 -5 -5"/>
<path d=" M 25 1879 h 10"/>
<path d=" M 108 1879 h 10"/>
<path d=" M 274 1879 h 10"/>
</g>
<g class="sequence">
<path d=" M 10 1992 a 5 5 0 0 1 5 -5 a 5 5 0 0 1 5 5 a 5 5 0 0 1 -5 5 a 5 5 0 0 1 -5 -5 m 10 0 h 5"/>
<text class="comment" id="IfStatement" x="78" y="1997">
IfStatement</text>
<g class="sequence">
<a class="link" xlink:href="#IfThenBlock">
<g class="symbol">
<rect height="22" width="108" x="132" y="1981"/>
<text x="186" y="1997">
IfThenBlock</text>
</g>
</a>
<g class="character">
<rect height="22" rx="10" ry="10" width="52" x="250" y="1981"/>
<text x="276" y="1997">
HIDE</text>
</g>
<g class="optional">
<path d=" M 312 1992 h 24 m -24 0 a 12 12 0 0 0 12 -12 v 0 a 12 12 0 0 1 12 -12 h 108 m -51 0 l -5 -5 m 0 10 l 5 -5 m 51 0 a 12 12 0 0 1 12 12 v 0 a 12 12 0 0 0 12 12 h -24"/>
<a class="link" xlink:href="#IfElseBlock">
<g class="symbol">
<rect height="22" width="108" x="336" y="1981"/>
<text x="390" y="1997">
IfElseBlock</text>
</g>
</a>
</g>
<path d=" M 240 1992 h 10"/>
<path d=" M 302 1992 h 10"/>
</g>
<path d=" M 478 1992 h 5 a 5 5 0 0 1 5 -5 a 5 5 0 0 1 5 5 a 5 5 0 0 1 -5 5 a 5 5 0 0 1 -5 -5"/>
<path d=" M 25 1992 h 10"/>
<path d=" M 122 1992 h 10"/>
<path d=" M 468 1992 h 10"/>
</g>
<g class="sequence">
<path d=" M 10 2026 a 5 5 0 0 1 5 -5 a 5 5 0 0 1 5 5 a 5 5 0 0 1 -5 5 a 5 5 0 0 1 -5 -5 m 10 0 h 5"/>
<text class="comment" id="IfThenBlock" x="78" y="2031">
IfThenBlock</text>
<g class="sequence">
<a class="link" xlink:href="#KW_IF">
<g class="symbol">
<rect height="22" width="60" x="132" y="2015"/>
<text x="162" y="2031">
KW_IF</text>
</g>
</a>
<g class="character">
<rect height="22" rx="10" ry="10" width="52" x="202" y="2015"/>
<text x="228" y="2031">
HIDE</text>
</g>
<a class="link" xlink:href="#Expression">
<g class="symbol">
<rect height="22" width="100" x="264" y="2015"/>
<text x="314" y="2031">
Expression</text>
</g>
</a>
<g class="character">
<rect height="22" rx="10" ry="10" width="52" x="374" y="2015"/>
<text x="400" y="2031">
HIDE</text>
</g>
<g class="string">
<rect height="22" rx="10" ry="10" width="28" x="436" y="2015"/>
<text x="450" y="2031">
{</text>
</g>
<g class="character">
<rect height="22" rx="10" ry="10" width="52" x="474" y="2015"/>
<text x="500" y="2031">
HIDE</text>
</g>
<g class="repeat">
<path d=" M 536 2026 h 12 m 162 0 h 12 m -12 0 a 12 12 0 0 1 12 12 v 7 a 12 12 0 0 1 -12 12 m -52 0 h -110 m 58 0 l 5 -5 m 0 10 l -5 -5 m -58 0 a 12 12 0 0 1 -12 -12 v -7 a 12 12 0 0 1 12 -12"/>
<text class="comment" x="684" y="2062">
[0, ∞]</text>
<g class="sequence">
<g class="character">
<rect height="22" rx="10" ry="10" width="52" x="548" y="2015"/>
<text x="574" y="2031">
HIDE</text>
</g>
<a class="link" xlink:href="#Expression">
<g class="symbol">
<rect height="22" width="100" x="610" y="2015"/>
<text x="660" y="2031">
Expression</text>
</g>
</a>
<path d=" M 600 2026 h 10"/>
</g>
</g>
<g class="character">
<rect height="22" rx="10" ry="10" width="52" x="732" y="2015"/>
<text x="758" y="2031">
HIDE</text>
</g>
<g class="string">
<rect height="22" rx="10" ry="10" width="28" x="794" y="2015"/>
<text x="808" y="2031">
}</text>
</g>
<path d=" M 192 2026 h 10"/>
<path d=" M 254 2026 h 10"/>
<path d=" M 364 2026 h 10"/>
<path d=" M 426 2026 h 10"/>
<path d=" M 464 2026 h 10"/>
<path d=" M 526 2026 h 10"/>
<path d=" M 722 2026 h 10"/>
<path d=" M 784 2026 h 10"/>
</g>
<path d=" M 832 2026 h 5 a 5 5 0 0 1 5 -5 a 5 5 0 0 1 5 5 a 5 5 0 0 1 -5 5 a 5 5 0 0 1 -5 -5"/>
<path d=" M 25 2026 h 10"/>
<path d=" M 122 2026 h 10"/>
<path d=" M 822 2026 h 10"/>
</g>
<g class="sequence">
<path d=" M 10 2090 a 5 5 0 0 1 5 -5 a 5 5 0 0 1 5 5 a 5 5 0 0 1 -5 5 a 5 5 0 0 1 -5 -5 m 10 0 h 5"/>
<text class="comment" id="IfElseBlock" x="78" y="2095">
IfElseBlock</text>
<g class="sequence">
<a class="link" xlink:href="#KW_ELSE">
<g class="symbol">
<rect height="22" width="76" x="132" y="2079"/>
<text x="170" y="2095">
KW_ELSE</text>
</g>
</a>
<g class="character">
<rect height="22" rx="10" ry="10" width="52" x="218" y="2079"/>
<text x="244" y="2095">
HIDE</text>
</g>
<a class="link" xlink:href="#Expression">
<g class="symbol">
<rect height="22" width="100" x="280" y="2079"/>
<text x="330" y="2095">
Expression</text>
</g>
</a>
<g class="character">
<rect height="22" rx="10" ry="10" width="52" x="390" y="2079"/>
<text x="416" y="2095">
HIDE</text>
</g>
<g class="string">
<rect height="22" rx="10" ry="10" width="28" x="452" y="2079"/>
<text x="466" y="2095">
{</text>
</g>
<g class="character">
<rect height="22" rx="10" ry="10" width="52" x="490" y="2079"/>
<text x="516" y="2095">
HIDE</text>
</g>
<g class="repeat">
<path d=" M 552 2090 h 12 m 162 0 h 12 m -12 0 a 12 12 0 0 1 12 12 v 7 a 12 12 0 0 1 -12 12 m -52 0 h -110 m 58 0 l 5 -5 m 0 10 l -5 -5 m -58 0 a 12 12 0 0 1 -12 -12 v -7 a 12 12 0 0 1 12 -12"/>
<text class="comment" x="700" y="2126">
[0, ∞]</text>
<g class="sequence">
<g class="character">
<rect height="22" rx="10" ry="10" width="52" x="564" y="2079"/>
<text x="590" y="2095">
HIDE</text>
</g>
<a class="link" xlink:href="#Expression">
<g class="symbol">
<rect height="22" width="100" x="626" y="2079"/>
<text x="676" y="2095">
Expression</text>
</g>
</a>
<path d=" M 616 2090 h 10"/>
</g>
</g>
<g class="character">
<rect height="22" rx="10" ry="10" width="52" x="748" y="2079"/>
<text x="774" y="2095">
HIDE</text>
</g>
<g class="string">
<rect height="22" rx="10" ry="10" width="28" x="810" y="2079"/>
<text x="824" y="2095">
}</text>
</g>
<path d=" M 208 2090 h 10"/>
<path d=" M 270 2090 h 10"/>
<path d=" M 380 2090 h 10"/>
<path d=" M 442 2090 h 10"/>
<path d=" M 480 2090 h 10"/>
<path d=" M 542 2090 h 10"/>
<path d=" M 738 2090 h 10"/>
<path d=" M 800 2090 h 10"/>
</g>
<path d=" M 848 2090 h 5 a 5 5 0 0 1 5 -5 a 5 5 0 0 1 5 5 a 5 5 0 0 1 -5 5 a 5 5 0 0 1 -5 -5"/>
<path d=" M 25 2090 h 10"/>
<path d=" M 122 2090 h 10"/>
<path d=" M 838 2090 h 10"/>
</g>
<g class="sequence">
<path d=" M 10 2154 a 5 5 0 0 1 5 -5 a 5 5 0 0 1 5 5 a 5 5 0 0 1 -5 5 a 5 5 0 0 1 -5 -5 m 10 0 h 5"/>
<text class="comment" id="Expression" x="75" y="2159">
Expression</text>
<g class="sequence">
<a class="link" xlink:href="#Term">
<g class="symbol">
<rect height="22" width="52" x="125" y="2143"/>
<text x="151" y="2159">
Term</text>
</g>
</a>
<g class="sequence">
<g class="character">
<rect height="22" rx="10" ry="10" width="52" x="187" y="2143"/>
<text x="213" y="2159">
HIDE</text>
</g>
<a class="link" xlink:href="#Infix">
<g class="symbol">
<rect height="22" width="60" x="249" y="2143"/>
<text x="279" y="2159">
Infix</text>
</g>
</a>
<g class="character">
<rect height="22" rx="10" ry="10" width="52" x="319" y="2143"/>
<text x="345" y="2159">
HIDE</text>
</g>
<a class="link" xlink:href="#Term">
<g class="symbol">
<rect height="22" width="52" x="381" y="2143"/>
<text x="407" y="2159">
Term</text>
</g>
</a>
<path d=" M 239 2154 h 10"/>
<path d=" M 309 2154 h 10"/>
<path d=" M 371 2154 h 10"/>
</g>
<path d=" M 177 2154 h 10"/>
</g>
<path d=" M 443 2154 h 5 a 5 5 0 0 1 5 -5 a 5 5 0 0 1 5 5 a 5 5 0 0 1 -5 5 a 5 5 0 0 1 -5 -5"/>
<path d=" M 25 2154 h 10"/>
<path d=" M 115 2154 h 10"/>
<path d=" M 433 2154 h 10"/>
</g>
<g class="sequence">
<path d=" M 10 2188 a 5 5 0 0 1 5 -5 a 5 5 0 0 1 5 5 a 5 5 0 0 1 -5 5 a 5 5 0 0 1 -5 -5 m 10 0 h 5"/>
<text class="comment" id="Term" x="54" y="2193">
Term</text>
<g class="sequence">
<g class="repeat">
<path d=" M 83 2188 h 12 m 130 0 h 12 m -12 0 a 12 12 0 0 1 12 12 v 7 a 12 12 0 0 1 -12 12 m -52 0 h -78 m 42 0 l 5 -5 m 0 10 l -5 -5 m -42 0 a 12 12 0 0 1 -12 -12 v -7 a 12 12 0 0 1 12 -12"/>
<text class="comment" x="199" y="2224">
[0, ∞]</text>
<g class="sequence">
<a class="link" xlink:href="#Prefix">
<g class="symbol">
<rect height="22" width="68" x="95" y="2177"/>
<text x="129" y="2193">
Prefix</text>
</g>
</a>
<g class="character">
<rect height="22" rx="10" ry="10" width="52" x="173" y="2177"/>
<text x="199" y="2193">
HIDE</text>
</g>
<path d=" M 163 2188 h 10"/>
</g>
</g>
<a class="link" xlink:href="#Atomic">
<g class="symbol">
<rect height="22" width="68" x="247" y="2177"/>
<text x="281" y="2193">
Atomic</text>
</g>
</a>
<g class="repeat">
<path d=" M 325 2188 h 12 m 130 0 h 12 m -12 0 a 12 12 0 0 1 12 12 v 7 a 12 12 0 0 1 -12 12 m -52 0 h -78 m 42 0 l 5 -5 m 0 10 l -5 -5 m -42 0 a 12 12 0 0 1 -12 -12 v -7 a 12 12 0 0 1 12 -12"/>
<text class="comment" x="441" y="2224">
[0, ∞]</text>
<g class="sequence">
<g class="character">
<rect height="22" rx="10" ry="10" width="52" x="337" y="2177"/>
<text x="363" y="2193">
HIDE</text>
</g>
<a class="link" xlink:href="#Suffix">
<g class="symbol">
<rect height="22" width="68" x="399" y="2177"/>
<text x="433" y="2193">
Suffix</text>
</g>
</a>
<path d=" M 389 2188 h 10"/>
</g>
</g>
<path d=" M 237 2188 h 10"/>
<path d=" M 315 2188 h 10"/>
</g>
<path d=" M 489 2188 h 5 a 5 5 0 0 1 5 -5 a 5 5 0 0 1 5 5 a 5 5 0 0 1 -5 5 a 5 5 0 0 1 -5 -5"/>
<path d=" M 25 2188 h 10"/>
<path d=" M 73 2188 h 10"/>
<path d=" M 479 2188 h 10"/>
</g>
<g class="sequence">
<path d=" M 10 2252 a 5 5 0 0 1 5 -5 a 5 5 0 0 1 5 5 a 5 5 0 0 1 -5 5 a 5 5 0 0 1 -5 -5 m 10 0 h 5"/>
<text class="comment" id="String" x="61" y="2257">
String</text>
<g class="choice">
<path d=" M 97 2252 h 0 m 92 0 h 0"/>
<a class="link" xlink:href="#StringRaw">
<g class="symbol">
<rect height="22" width="92" x="97" y="2241"/>
<text x="143" y="2257">
StringRaw</text>
</g>
</a>
</g>
<path d=" M 199 2252 h 5 a 5 5 0 0 1 5 -5 a 5 5 0 0 1 5 5 a 5 5 0 0 1 -5 5 a 5 5 0 0 1 -5 -5"/>
<path d=" M 25 2252 h 10"/>
<path d=" M 87 2252 h 10"/>
<path d=" M 189 2252 h 10"/>
</g>
<g class="sequence">
<path d=" M 10 2286 a 5 5 0 0 1 5 -5 a 5 5 0 0 1 5 5 a 5 5 0 0 1 -5 5 a 5 5 0 0 1 -5 -5 m 10 0 h 5"/>
<text class="comment" id="StringRaw" x="71" y="2291">
StringRaw</text>
<g class="sequence">
<g class="string">
<rect height="22" rx="10" ry="10" width="28" x="118" y="2275"/>
<text x="132" y="2291">
&#x27;</text>
</g>
<a class="link" xlink:href="#StringRawText">
<g class="symbol">
<rect height="22" width="124" x="156" y="2275"/>
<text x="218" y="2291">
StringRawText</text>
</g>
</a>
<g class="string">
<rect height="22" rx="10" ry="10" width="28" x="290" y="2275"/>
<text x="304" y="2291">
&#x27;</text>
</g>
<path d=" M 146 2286 h 10"/>
<path d=" M 280 2286 h 10"/>
</g>
<path d=" M 328 2286 h 5 a 5 5 0 0 1 5 -5 a 5 5 0 0 1 5 5 a 5 5 0 0 1 -5 5 a 5 5 0 0 1 -5 -5"/>
<path d=" M 25 2286 h 10"/>
<path d=" M 108 2286 h 10"/>
<path d=" M 318 2286 h 10"/>
</g>
<g class="sequence">
<path d=" M 10 2320 a 5 5 0 0 1 5 -5 a 5 5 0 0 1 5 5 a 5 5 0 0 1 -5 5 a 5 5 0 0 1 -5 -5 m 10 0 h 5"/>
<text class="comment" id="StringRawText" x="85" y="2325">
StringRawText</text>
<g class="string">
<rect height="22" rx="10" ry="10" width="60" x="146" y="2309"/>
<text x="176" y="2325">
[^&#x27;]*</text>
</g>
<path d=" M 216 2320 h 5 a 5 5 0 0 1 5 -5 a 5 5 0 0 1 5 5 a 5 5 0 0 1 -5 5 a 5 5 0 0 1 -5 -5"/>
<path d=" M 25 2320 h 10"/>
<path d=" M 136 2320 h 10"/>
<path d=" M 206 2320 h 10"/>
</g>
<g class="sequence">
<path d=" M 10 2354 a 5 5 0 0 1 5 -5 a 5 5 0 0 1 5 5 a 5 5 0 0 1 -5 5 a 5 5 0 0 1 -5 -5 m 10 0 h 5"/>
<text class="comment" id="StringNormal" x="82" y="2359">
StringNormal</text>
<g class="sequence">
<g class="string">
<rect height="22" rx="10" ry="10" width="28" x="139" y="2343"/>
<text x="153" y="2359">
&quot;</text>
</g>
<g class="repeat">
<path d=" M 177 2354 h 12 m 100 0 h 12 m -12 0 a 12 12 0 0 1 12 12 v 7 a 12 12 0 0 1 -12 12 m -52 0 h -48 a 12 12 0 0 1 -12 -12 v -7 a 12 12 0 0 1 12 -12"/>
<text class="comment" x="263" y="2390">
[0, ∞]</text>
<a class="link" xlink:href="#StringItem">
<g class="symbol">
<rect height="22" width="100" x="189" y="2343"/>
<text x="239" y="2359">
StringItem</text>
</g>
</a>
</g>
<g class="string">
<rect height="22" rx="10" ry="10" width="28" x="311" y="2343"/>
<text x="325" y="2359">
&quot;</text>
</g>
<path d=" M 167 2354 h 10"/>
<path d=" M 301 2354 h 10"/>
</g>
<path d=" M 349 2354 h 5 a 5 5 0 0 1 5 -5 a 5 5 0 0 1 5 5 a 5 5 0 0 1 -5 5 a 5 5 0 0 1 -5 -5"/>
<path d=" M 25 2354 h 10"/>
<path d=" M 129 2354 h 10"/>
<path d=" M 339 2354 h 10"/>
</g>
<g class="sequence">
<path d=" M 10 2418 a 5 5 0 0 1 5 -5 a 5 5 0 0 1 5 5 a 5 5 0 0 1 -5 5 a 5 5 0 0 1 -5 -5 m 10 0 h 5"/>
<text class="comment" id="StringItem" x="75" y="2423">
StringItem</text>
<g class="choice">
<path d=" M 125 2418 h 24 m 132 0 h 40"/>
<a class="link" xlink:href="#EscapedUnicode">
<g class="symbol">
<rect height="22" width="132" x="149" y="2407"/>
<text x="215" y="2423">
EscapedUnicode</text>
</g>
</a>
<path d=" M 125 2418 a 12 12 0 0 1 12 12 v 9 m 172 0 v -9 a 12 12 0 0 1 12 -12"/>
<path d=" M 137 2439 v 33 m 172 0 v -33"/>
<path d=" M 137 2439 v 0 a 12 12 0 0 0 12 12 m 148 0 h 0 a 12 12 0 0 0 12 -12 v 0"/>
<a class="link" xlink:href="#EscapedCharacter">
<g class="symbol">
<rect height="22" width="148" x="149" y="2440"/>
<text x="223" y="2456">
EscapedCharacter</text>
</g>
</a>
<path d=" M 137 2472 v 0 a 12 12 0 0 0 12 12 m 76 0 h 72 m -33 0 l -5 -5 m 0 10 l 5 -5 m 33 0 a 12 12 0 0 0 12 -12 v 0"/>
<a class="link" xlink:href="#TextAny">
<g class="symbol">
<rect height="22" width="76" x="149" y="2473"/>
<text x="187" y="2489">
TextAny</text>
</g>
</a>
</g>
<path d=" M 331 2418 h 5 a 5 5 0 0 1 5 -5 a 5 5 0 0 1 5 5 a 5 5 0 0 1 -5 5 a 5 5 0 0 1 -5 -5"/>
<path d=" M 25 2418 h 10"/>
<path d=" M 115 2418 h 10"/>
<path d=" M 321 2418 h 10"/>
</g>
<g class="sequence">
<path d=" M 10 2518 a 5 5 0 0 1 5 -5 a 5 5 0 0 1 5 5 a 5 5 0 0 1 -5 5 a 5 5 0 0 1 -5 -5 m 10 0 h 5"/>
<text class="comment" id="EscapedUnicode" x="89" y="2523">
EscapedUnicode</text>
<g class="sequence">
<g class="string">
<rect height="22" rx="10" ry="10" width="44" x="153" y="2507"/>
<text x="175" y="2523">
\u{</text>
</g>
<a class="link" xlink:href="#HEX">
<g class="symbol">
<rect height="22" width="44" x="207" y="2507"/>
<text x="229" y="2523">
HEX</text>
</g>
</a>
<g class="string">
<rect height="22" rx="10" ry="10" width="28" x="261" y="2507"/>
<text x="275" y="2523">
}</text>
</g>
<path d=" M 197 2518 h 10"/>
<path d=" M 251 2518 h 10"/>
</g>
<path d=" M 299 2518 h 5 a 5 5 0 0 1 5 -5 a 5 5 0 0 1 5 5 a 5 5 0 0 1 -5 5 a 5 5 0 0 1 -5 -5"/>
<path d=" M 25 2518 h 10"/>
<path d=" M 143 2518 h 10"/>
<path d=" M 289 2518 h 10"/>
</g>
<g class="sequence">
<path d=" M 10 2552 a 5 5 0 0 1 5 -5 a 5 5 0 0 1 5 5 a 5 5 0 0 1 -5 5 a 5 5 0 0 1 -5 -5 m 10 0 h 5"/>
<text class="comment" id="EscapedCharacter" x="96" y="2557">
EscapedCharacter</text>
<g class="string">
<rect height="22" rx="10" ry="10" width="44" x="167" y="2541"/>
<text x="189" y="2557">
\\.</text>
</g>
<path d=" M 221 2552 h 5 a 5 5 0 0 1 5 -5 a 5 5 0 0 1 5 5 a 5 5 0 0 1 -5 5 a 5 5 0 0 1 -5 -5"/>
<path d=" M 25 2552 h 10"/>
<path d=" M 157 2552 h 10"/>
<path d=" M 211 2552 h 10"/>
</g>
<g class="sequence">
<path d=" M 10 2586 a 5 5 0 0 1 5 -5 a 5 5 0 0 1 5 5 a 5 5 0 0 1 -5 5 a 5 5 0 0 1 -5 -5 m 10 0 h 5"/>
<text class="comment" id="HEX" x="50" y="2591">
HEX</text>
<g class="repeat">
<path d=" M 76 2586 h 12 m 170 0 h 12 m -12 0 a 12 12 0 0 1 12 12 v 7 a 12 12 0 0 1 -12 12 m -52 0 h -118 m 62 0 l 5 -5 m 0 10 l -5 -5 m -62 0 a 12 12 0 0 1 -12 -12 v -7 a 12 12 0 0 1 12 -12"/>
<text class="comment" x="232" y="2622">
[1, 6]</text>
<g class="sequence">
<g class="character">
<rect height="22" rx="10" ry="10" width="52" x="88" y="2575"/>
<text x="114" y="2591">
HIDE</text>
</g>
<g class="string">
<rect height="22" rx="10" ry="10" width="108" x="150" y="2575"/>
<text x="204" y="2591">
[0-9a-fA-F]</text>
</g>
<path d=" M 140 2586 h 10"/>
</g>
</g>
<path d=" M 280 2586 h 5 a 5 5 0 0 1 5 -5 a 5 5 0 0 1 5 5 a 5 5 0 0 1 -5 5 a 5 5 0 0 1 -5 -5"/>
<path d=" M 25 2586 h 10"/>
<path d=" M 66 2586 h 10"/>
<path d=" M 270 2586 h 10"/>
</g>
<g class="sequence">
<path d=" M 10 2650 a 5 5 0 0 1 5 -5 a 5 5 0 0 1 5 5 a 5 5 0 0 1 -5 5 a 5 5 0 0 1 -5 -5 m 10 0 h 5"/>
<text class="comment" id="TextAny" x="64" y="2655">
TextAny</text>
<g class="string">
<rect height="22" rx="10" ry="10" width="76" x="104" y="2639"/>
<text x="142" y="2655">
[^&quot;\\]+</text>
</g>
<path d=" M 190 2650 h 5 a 5 5 0 0 1 5 -5 a 5 5 0 0 1 5 5 a 5 5 0 0 1 -5 5 a 5 5 0 0 1 -5 -5"/>
<path d=" M 25 2650 h 10"/>
<path d=" M 94 2650 h 10"/>
<path d=" M 180 2650 h 10"/>
</g>
<g class="sequence">
<path d=" M 10 2684 a 5 5 0 0 1 5 -5 a 5 5 0 0 1 5 5 a 5 5 0 0 1 -5 5 a 5 5 0 0 1 -5 -5 m 10 0 h 5"/>
<text class="comment" id="Identifier" x="75" y="2689">
Identifier</text>
<g class="string">
<rect height="22" rx="10" ry="10" width="292" x="125" y="2673"/>
<text x="271" y="2689">
[_\p{XID_start}]\p{XID_continue}*</text>
</g>
<path d=" M 427 2684 h 5 a 5 5 0 0 1 5 -5 a 5 5 0 0 1 5 5 a 5 5 0 0 1 -5 5 a 5 5 0 0 1 -5 -5"/>
<path d=" M 25 2684 h 10"/>
<path d=" M 115 2684 h 10"/>
<path d=" M 417 2684 h 10"/>
</g>
<g class="sequence">
<path d=" M 10 2718 a 5 5 0 0 1 5 -5 a 5 5 0 0 1 5 5 a 5 5 0 0 1 -5 5 a 5 5 0 0 1 -5 -5 m 10 0 h 5"/>
<text class="comment" id="Integer" x="64" y="2723">
Integer</text>
<g class="string">
<rect height="22" rx="10" ry="10" width="124" x="104" y="2707"/>
<text x="166" y="2723">
0|[1-9][0-9]*</text>
</g>
<path d=" M 238 2718 h 5 a 5 5 0 0 1 5 -5 a 5 5 0 0 1 5 5 a 5 5 0 0 1 -5 5 a 5 5 0 0 1 -5 -5"/>
<path d=" M 25 2718 h 10"/>
<path d=" M 94 2718 h 10"/>
<path d=" M 228 2718 h 10"/>
</g>
<g class="sequence">
<path d=" M 10 2752 a 5 5 0 0 1 5 -5 a 5 5 0 0 1 5 5 a 5 5 0 0 1 -5 5 a 5 5 0 0 1 -5 -5 m 10 0 h 5"/>
<text class="comment" id="RangeExact" x="75" y="2757">
RangeExact</text>
<g class="sequence">
<g class="string">
<rect height="22" rx="10" ry="10" width="28" x="125" y="2741"/>
<text x="139" y="2757">
{</text>
</g>
<g class="character">
<rect height="22" rx="10" ry="10" width="52" x="163" y="2741"/>
<text x="189" y="2757">
HIDE</text>
</g>
<a class="link" xlink:href="#Integer">
<g class="symbol">
<rect height="22" width="76" x="225" y="2741"/>
<text x="263" y="2757">
Integer</text>
</g>
</a>
<g class="character">
<rect height="22" rx="10" ry="10" width="52" x="311" y="2741"/>
<text x="337" y="2757">
HIDE</text>
</g>
<g class="string">
<rect height="22" rx="10" ry="10" width="28" x="373" y="2741"/>
<text x="387" y="2757">
}</text>
</g>
<path d=" M 153 2752 h 10"/>
<path d=" M 215 2752 h 10"/>
<path d=" M 301 2752 h 10"/>
<path d=" M 363 2752 h 10"/>
</g>
<path d=" M 411 2752 h 5 a 5 5 0 0 1 5 -5 a 5 5 0 0 1 5 5 a 5 5 0 0 1 -5 5 a 5 5 0 0 1 -5 -5"/>
<path d=" M 25 2752 h 10"/>
<path d=" M 115 2752 h 10"/>
<path d=" M 401 2752 h 10"/>
</g>
<g class="sequence">
<path d=" M 10 2799 a 5 5 0 0 1 5 -5 a 5 5 0 0 1 5 5 a 5 5 0 0 1 -5 5 a 5 5 0 0 1 -5 -5 m 10 0 h 5"/>
<text class="comment" id="Range" x="57" y="2804">
Range</text>
<g class="sequence">
<g class="string">
<rect height="22" rx="10" ry="10" width="28" x="90" y="2788"/>
<text x="104" y="2804">
{</text>
</g>
<g class="character">
<rect height="22" rx="10" ry="10" width="52" x="128" y="2788"/>
<text x="154" y="2804">
HIDE</text>
</g>
<g class="optional">
<path d=" M 190 2799 h 24 m -24 0 a 12 12 0 0 0 12 -12 v 0 a 12 12 0 0 1 12 -12 h 76 m -35 0 l -5 -5 m 0 10 l 5 -5 m 35 0 a 12 12 0 0 1 12 12 v 0 a 12 12 0 0 0 12 12 h -24"/>
<a class="link" xlink:href="#Integer">
<g class="symbol">
<rect height="22" width="76" x="214" y="2788"/>
<text x="252" y="2804">
Integer</text>
</g>
</a>
</g>
<g class="character">
<rect height="22" rx="10" ry="10" width="52" x="324" y="2788"/>
<text x="350" y="2804">
HIDE</text>
</g>
<g class="string">
<rect height="22" rx="10" ry="10" width="28" x="386" y="2788"/>
<text x="400" y="2804">
,</text>
</g>
<g class="character">
<rect height="22" rx="10" ry="10" width="52" x="424" y="2788"/>
<text x="450" y="2804">
HIDE</text>
</g>
<g class="optional">
<path d=" M 486 2799 h 24 m -24 0 a 12 12 0 0 0 12 -12 v 0 a 12 12 0 0 1 12 -12 h 76 m -35 0 l -5 -5 m 0 10 l 5 -5 m 35 0 a 12 12 0 0 1 12 12 v 0 a 12 12 0 0 0 12 12 h -24"/>
<a class="link" xlink:href="#Integer">
<g class="symbol">
<rect height="22" width="76" x="510" y="2788"/>
<text x="548" y="2804">
Integer</text>
</g>
</a>
</g>
<g class="character">
<rect height="22" rx="10" ry="10" width="52" x="620" y="2788"/>
<text x="646" y="2804">
HIDE</text>
</g>
<g class="string">
<rect height="22" rx="10" ry="10" width="28" x="682" y="2788"/>
<text x="696" y="2804">
}</text>
</g>
<path d=" M 118 2799 h 10"/>
<path d=" M 180 2799 h 10"/>
<path d=" M 314 2799 h 10"/>
<path d=" M 376 2799 h 10"/>
<path d=" M 414 2799 h 10"/>
<path d=" M 476 2799 h 10"/>
<path d=" M 610 2799 h 10"/>
<path d=" M 672 2799 h 10"/>
</g>
<path d=" M 720 2799 h 5 a 5 5 0 0 1 5 -5 a 5 5 0 0 1 5 5 a 5 5 0 0 1 -5 5 a 5 5 0 0 1 -5 -5"/>
<path d=" M 25 2799 h 10"/>
<path d=" M 80 2799 h 10"/>
<path d=" M 710 2799 h 10"/>
</g>
<g class="sequence">
<path d=" M 10 2833 a 5 5 0 0 1 5 -5 a 5 5 0 0 1 5 5 a 5 5 0 0 1 -5 5 a 5 5 0 0 1 -5 -5 m 10 0 h 5"/>
<text class="comment" id="Boolean" x="64" y="2838">
Boolean</text>
<g class="choice">
<path d=" M 104 2833 h 24 m 76 0 h 32"/>
<g class="string">
<rect height="22" rx="10" ry="10" width="76" x="128" y="2822"/>
<text x="166" y="2838">
真|true</text>
</g>
<path d=" M 104 2833 a 12 12 0 0 1 12 12 v 9 m 108 0 v -9 a 12 12 0 0 1 12 -12"/>
<path d=" M 116 2854 v 0 a 12 12 0 0 0 12 12 m 84 0 h 0 a 12 12 0 0 0 12 -12 v 0"/>
<g class="string">
<rect height="22" rx="10" ry="10" width="84" x="128" y="2855"/>
<text x="170" y="2871">
假|false</text>
</g>
</g>
<path d=" M 246 2833 h 5 a 5 5 0 0 1 5 -5 a 5 5 0 0 1 5 5 a 5 5 0 0 1 -5 5 a 5 5 0 0 1 -5 -5"/>
<path d=" M 25 2833 h 10"/>
<path d=" M 94 2833 h 10"/>
<path d=" M 236 2833 h 10"/>
</g>
</g>
</svg>